/* XPM */
static char *title_4_inactive[] = {
/* columns rows colors chars-per-pixel */
"16 32 2 1 ",
"  c #222222 s inactive_shadow_2",
". c #777777 s inactive_color_2",
/* pixels */
"                ",
"................",
"................",
"................",
"................",
"................",
"................",
"................",
"................",
"................",
"................",
"................",
"................",
"................",
"................",
"................",
"................",
"................",
"................",
"................",
"................",
"................",
"................",
"................",
"................",
"................",
"................",
"................",
"................",
"................",
"................",
"................"
};
