/* XPM */
static char *top_right_active[] = {
/* columns rows colors chars-per-pixel */
"3 32 3 1 ",
"  c None",
". c #444444 s active_shadow_1",
"X c #555555 s active_color_1",
/* pixels */
".. ",
"XX.",
"XX.",
"XX.",
"XX.",
"XX.",
"XX.",
"XX.",
"XX.",
"XX.",
"XX.",
"XX.",
"XX.",
"XX.",
"XX.",
"XX.",
"XX.",
"XX.",
"XX.",
"XX.",
"XX.",
"XX.",
"XX.",
"XX.",
"XX.",
"XX.",
"XX.",
"XX.",
"XX.",
"XX.",
"XX.",
"XX."
};
