/* XPM */
static char *top_left_inactive[] = {
/* columns rows colors chars-per-pixel */
"3 32 3 1 ",
"  c None",
". c #222222 s inactive_shadow_2",
"X c #777777 s inactive_color_2",
/* pixels */
" ..",
".XX",
".XX",
".XX",
".XX",
".XX",
".XX",
".XX",
".XX",
".XX",
".XX",
".XX",
".XX",
".XX",
".XX",
".XX",
".XX",
".XX",
".XX",
".XX",
".XX",
".XX",
".XX",
".XX",
".XX",
".XX",
".XX",
".XX",
".XX",
".XX",
".XX",
".XX"
};
