<?xml version="1.0" encoding="UTF-8" standalone="no"?>
<!-- Created with Inkscape (http://www.inkscape.org/) -->

<svg
   sodipodi:docname="bullet-symbolic.svg"
   inkscape:export-filename="/home/sam/dev/RESOURCES/gnome-icon-theme-symbolic/src/gnome-stencils.png"
   inkscape:export-xdpi="90"
   inkscape:export-ydpi="90"
   height="14"
   id="svg7384"
   version="1.1"
   inkscape:version="1.3.2 (091e20ef0f, 2023-11-25, custom)"
   width="14"
   xmlns:inkscape="http://www.inkscape.org/namespaces/inkscape"
   xmlns:sodipodi="http://sodipodi.sourceforge.net/DTD/sodipodi-0.dtd"
   xmlns="http://www.w3.org/2000/svg"
   xmlns:svg="http://www.w3.org/2000/svg"
   xmlns:rdf="http://www.w3.org/1999/02/22-rdf-syntax-ns#"
   xmlns:cc="http://creativecommons.org/ns#"
   xmlns:dc="http://purl.org/dc/elements/1.1/">
  <metadata
     id="metadata90">
    <rdf:RDF>
      <cc:Work
         rdf:about="">
        <dc:format>image/svg+xml</dc:format>
        <dc:type
           rdf:resource="http://purl.org/dc/dcmitype/StillImage" />
        <dc:title>Gnome Symbolic Icon Theme</dc:title>
      </cc:Work>
    </rdf:RDF>
  </metadata>
  <sodipodi:namedview
     inkscape:bbox-nodes="true"
     inkscape:bbox-paths="true"
     bordercolor="#666666"
     borderopacity="1"
     inkscape:current-layer="layer9"
     inkscape:cx="-7.5890332"
     inkscape:cy="5.5668058"
     gridtolerance="10"
     inkscape:guide-bbox="true"
     guidetolerance="10"
     id="namedview88"
     inkscape:object-nodes="true"
     inkscape:object-paths="false"
     objecttolerance="10"
     pagecolor="#3a3b39"
     inkscape:pageopacity="1"
     inkscape:pageshadow="2"
     showborder="true"
     showgrid="false"
     showguides="true"
     inkscape:snap-bbox="true"
     inkscape:snap-bbox-midpoints="false"
     inkscape:snap-global="true"
     inkscape:snap-grids="true"
     inkscape:snap-nodes="false"
     inkscape:snap-others="false"
     inkscape:snap-to-guides="true"
     inkscape:window-height="737"
     inkscape:window-maximized="1"
     inkscape:window-width="1366"
     inkscape:window-x="0"
     inkscape:window-y="0"
     inkscape:zoom="22.005438"
     inkscape:showpageshadow="false"
     inkscape:pagecheckerboard="0"
     inkscape:deskcolor="#d1d1d1">
    <inkscape:grid
       dotted="false"
       empspacing="2"
       enabled="true"
       id="grid4866"
       originx="-139.99995"
       originy="120"
       snapvisiblegridlinesonly="true"
       spacingx="1"
       spacingy="1"
       type="xygrid"
       visible="false"
       units="px" />
  </sodipodi:namedview>
  <title
     id="title9167">Gnome Symbolic Icon Theme</title>
  <defs
     id="defs7386">
    <linearGradient
       gradientTransform="matrix(-2.7365795,0.28202934,-0.18908311,-0.99988321,239.54008,-879.45557)"
       id="linearGradient19282"
       inkscape:swatch="solid">
      <stop
         id="stop19284"
         offset="0"
         style="stop-color:#666666;stop-opacity:1;" />
    </linearGradient>
  </defs>
  <g
     inkscape:groupmode="layer"
     id="layer9"
     inkscape:label="status"
     style="display:inline"
     transform="translate(-381.00015,-339)">
    <path
       inkscape:connector-curvature="0"
       d="m 388.00015,343 c -1.65555,0 -3,1.34444 -3,3 0,1.65555 1.34445,3 3,3 1.65555,0 3,-1.34445 3,-3 0,-1.65556 -1.34445,-3 -3,-3 z"
       id="path9555"
       sodipodi:nodetypes="csssc"
       style="color:#bebebe;font-style:normal;font-variant:normal;font-weight:normal;font-stretch:normal;font-size:medium;line-height:normal;font-family:'Andale Mono';text-indent:0pt;text-align:start;text-decoration:none;text-decoration-line:none;letter-spacing:normal;word-spacing:normal;text-transform:none;direction:ltr;text-anchor:start;display:inline;overflow:visible;visibility:visible;fill:#bebebe;fill-opacity:1;fill-rule:nonzero;stroke:none;stroke-width:1.79172564;marker:none" />
    <path
       style="opacity:1;fill:#dcdcdc;stroke-width:0.0454433"
       d="M 6.4524917,9.9315974 C 5.3802373,9.7008544 4.5085684,8.9300649 4.1740956,7.9168843 4.067666,7.594489 4.0508631,7.469235 4.0508631,6.9982702 c 0,-0.4688718 0.017002,-0.5967847 0.1212788,-0.9124296 C 4.4681888,5.1897095 5.1877787,4.4685235 6.079656,4.1740956 6.4020513,4.067666 6.5273053,4.0508631 6.9982702,4.0508631 c 0.4709648,0 0.5962188,0.016803 0.9186141,0.1232325 0.8841234,0.2918682 1.5864035,0.9903626 1.9103861,1.9000882 0.1047996,0.2942716 0.118707,0.4025362 0.118707,0.9240864 0,0.5215501 -0.013907,0.6298147 -0.118707,0.9240863 C 9.4990143,8.8440821 8.7998421,9.5336412 7.8844148,9.8384999 7.5555604,9.948016 6.767025,9.9992834 6.4524917,9.9315974 Z"
       id="path1"
       transform="translate(381.00015,339)" />
    <path
       style="opacity:1;fill:#dcdcdc;stroke-width:0.0454433"
       d="M 6.2029425,9.8444448 C 5.1937462,9.5213847 4.363489,8.6585884 4.136927,7.6974591 4.049289,7.3256788 4.049289,6.6708615 4.136927,6.2990813 4.3730866,5.2972367 5.2972367,4.3730866 6.2990813,4.136927 c 0.3717802,-0.087638 1.0265975,-0.087638 1.3983778,0 0.9882176,0.2329474 1.9017522,1.1357419 2.1625896,2.1371655 0.09016,0.3461463 0.09016,1.102209 0,1.4483553 C 9.5959081,8.7365537 8.6571965,9.6532762 7.6683245,9.8628321 7.2391853,9.9537732 6.5161271,9.9447 6.2029425,9.8444448 Z"
       id="path2"
       transform="translate(381.00015,339)" />
  </g>
  <g
     inkscape:groupmode="layer"
     id="layer10"
     inkscape:label="devices"
     style="display:inline"
     transform="translate(-381.00015,-339)" />
  <g
     inkscape:groupmode="layer"
     id="layer11"
     inkscape:label="apps"
     transform="translate(-381.00015,-339)" />
  <g
     inkscape:groupmode="layer"
     id="layer13"
     inkscape:label="places"
     style="display:inline"
     transform="translate(-381.00015,-339)" />
  <g
     inkscape:groupmode="layer"
     id="layer14"
     inkscape:label="mimetypes"
     transform="translate(-381.00015,-339)" />
  <g
     inkscape:groupmode="layer"
     id="layer15"
     inkscape:label="emblems"
     style="display:inline"
     transform="translate(-381.00015,-339)" />
  <g
     inkscape:groupmode="layer"
     id="g71291"
     inkscape:label="emotes"
     style="display:inline"
     transform="translate(-381.00015,-339)" />
  <g
     inkscape:groupmode="layer"
     id="g4953"
     inkscape:label="categories"
     style="display:inline"
     transform="translate(-381.00015,-339)" />
  <g
     inkscape:groupmode="layer"
     id="layer12"
     inkscape:label="actions"
     style="display:inline"
     transform="translate(-381.00015,-339)" />
</svg>
