<?xml version="1.0" encoding="UTF-8" standalone="no"?>
<svg
   width="16"
   height="16"
   version="1.1"
   id="svg4"
   sodipodi:docname="object-select-symbolic.svg"
   inkscape:version="1.3.2 (091e20ef0f, 2023-11-25, custom)"
   xmlns:inkscape="http://www.inkscape.org/namespaces/inkscape"
   xmlns:sodipodi="http://sodipodi.sourceforge.net/DTD/sodipodi-0.dtd"
   xmlns="http://www.w3.org/2000/svg"
   xmlns:svg="http://www.w3.org/2000/svg"
   xmlns:rdf="http://www.w3.org/1999/02/22-rdf-syntax-ns#"
   xmlns:cc="http://creativecommons.org/ns#"
   xmlns:dc="http://purl.org/dc/elements/1.1/">
  <metadata
     id="metadata10">
    <rdf:RDF>
      <cc:Work
         rdf:about="">
        <dc:format>image/svg+xml</dc:format>
        <dc:type
           rdf:resource="http://purl.org/dc/dcmitype/StillImage" />
      </cc:Work>
    </rdf:RDF>
  </metadata>
  <defs
     id="defs8" />
  <sodipodi:namedview
     pagecolor="#ffffff"
     bordercolor="#666666"
     borderopacity="1"
     objecttolerance="10"
     gridtolerance="10"
     guidetolerance="10"
     inkscape:pageopacity="0"
     inkscape:pageshadow="2"
     inkscape:window-width="1366"
     inkscape:window-height="737"
     id="namedview6"
     showgrid="false"
     inkscape:zoom="51.875"
     inkscape:cx="4.2216867"
     inkscape:cy="8.0096386"
     inkscape:window-x="0"
     inkscape:window-y="0"
     inkscape:window-maximized="1"
     inkscape:current-layer="svg4"
     inkscape:document-rotation="0"
     inkscape:showpageshadow="2"
     inkscape:pagecheckerboard="0"
     inkscape:deskcolor="#d1d1d1" />
  <path
     style="fill:#404040;fill-opacity:1"
     d="M 11.940017,3.0993136 6.0677966,9.9508305 4.0211864,7.9715169 C 3.5593864,7.5218169 2.739173,7.7171796 2.359173,8.0871796 1.989173,8.4671796 1.8543,9.2947 2.31,9.7505 L 6.09,13.5 13.779,4.6905 C 14.538,3.8206 12.876017,2.0274136 11.940017,3.0993136 Z"
     id="path2"
     inkscape:connector-curvature="0"
     sodipodi:nodetypes="cccccccc" />
  <path
     style="opacity:1;fill:#dcdcdc;stroke-width:0.0192771"
     d="M 5.5226828,12.919542 C 2.6689371,10.089036 2.2144963,9.631504 2.1634342,9.5374448 2.0427348,9.31511 2.0048019,8.9991406 2.0638117,8.707621 2.1034829,8.5116378 2.2370546,8.2376659 2.3503345,8.1199283 2.6421905,7.816587 3.1728967,7.6555761 3.5712823,7.749505 3.7956465,7.802404 3.9044206,7.8745926 4.2195165,8.1797083 5.5233691,9.4422635 6.0487526,9.9478084 6.062085,9.9527011 c 0.00856,0.00314 1.3563277,-1.5583034 2.995034,-3.4698795 3.219381,-3.7554569 3.072618,-3.5936967 3.327103,-3.667085 0.132898,-0.038325 0.346229,-0.038668 0.49165,-7.909e-4 0.363747,0.094744 0.753756,0.4347076 0.951534,0.8294356 0.172221,0.3437205 0.171872,0.7325251 -8.67e-4,0.9656577 -0.03171,0.0428 -7.5760713,8.697979 -7.7139339,8.849722 -0.016399,0.01805 -0.1554516,-0.109287 -0.5899223,-0.540219 z"
     id="path1" />
  <path
     style="opacity:1;fill:#dcdcdc;stroke-width:0.0192771"
     d="M 5.0367046,12.418094 C 3.231096,10.639775 2.2187823,9.6118793 2.1612843,9.4984125 2.0896384,9.3570261 2.0535819,9.1845211 2.0535819,8.9831325 c 0,-0.2258066 0.038236,-0.3834529 0.1458815,-0.6014637 0.068844,-0.1394275 0.1142002,-0.202272 0.2120389,-0.2937953 0.3553935,-0.3324532 0.9659271,-0.4463138 1.3618774,-0.2539813 0.1260735,0.06124 0.2210118,0.1464787 0.9880661,0.8871179 1.1287233,1.0898531 1.282091,1.2356164 1.3000784,1.2356164 0.020313,0 0.5802476,-0.644011 2.2375206,-2.573494 2.7190302,-3.1656355 3.0077802,-3.5009994 3.2863432,-3.8168674 0.629992,-0.7143603 0.672024,-0.7460903 1.004644,-0.758403 0.222205,-0.00823 0.335793,0.016866 0.519477,0.1147536 0.451045,0.2403673 0.797143,0.7290412 0.831226,1.1736523 0.01292,0.168545 -0.02681,0.355962 -0.09811,0.4627681 -0.02477,0.037108 -0.199975,0.2453012 -0.38934,0.4626506 -0.189366,0.2173494 -0.959963,1.1021687 -1.712438,1.9662651 -1.342041,1.5411165 -4.921912,5.6466712 -5.3872292,6.1783132 -0.1299162,0.148434 -0.2439416,0.272687 -0.2533901,0.276119 -0.00945,0.0034 -0.4880334,-0.457499 -1.0635221,-1.02429 z"
     id="path3" />
  <path
     style="opacity:1;fill:#dcdcdc;stroke-width:0.0192771"
     d="M 5.6437527,13.019547 C 5.4023393,12.783489 4.5313787,11.917522 3.7082845,11.095175 2.1054582,9.4938049 2.142962,9.5357249 2.082075,9.2774778 2.0452647,9.1213496 2.04565,8.843541 2.0828978,8.6843373 2.0990215,8.6154217 2.1504085,8.4802884 2.1970911,8.3840411 2.309049,8.1532131 2.4597067,8.0080307 2.7137652,7.8861442 c 0.4598903,-0.2206362 0.9196291,-0.1956931 1.238042,0.06717 0.1054942,0.08709 0.105026,0.086644 1.2048193,1.1474886 0.4187952,0.4039638 0.795164,0.7637239 0.8363751,0.7994668 l 0.07493,0.064987 0.06001,-0.06826 C 6.2691065,9.736427 7.3435034,8.4933947 7.7686747,7.9987373 8.0231325,7.7026934 8.8943316,6.6883746 9.7046726,5.7446957 11.918153,3.1669969 12.093412,2.9709444 12.273345,2.8712706 c 0.09879,-0.054726 0.111763,-0.056813 0.353161,-0.056813 0.228374,0 0.261179,0.00454 0.369841,0.051156 0.355902,0.1526907 0.706791,0.5073241 0.857958,0.8671133 0.110177,0.2622283 0.11725,0.5680812 0.01789,0.773341 -0.02184,0.045119 -0.701417,0.8416885 -1.510168,1.7701548 -0.808751,0.9284661 -1.730519,1.9867455 -2.048373,2.3517317 -0.3178538,0.3649862 -0.8732087,1.0019244 -1.2341221,1.4154176 -0.3609133,0.413494 -0.8295258,0.950736 -1.041361,1.19387 -1.2832327,1.472831 -1.9218637,2.199672 -1.9375784,2.205201 -0.00985,0.0035 -0.2154226,-0.186839 -0.4568358,-0.422897 z"
     id="path4" />
</svg>
