<?xml version="1.0" encoding="UTF-8" standalone="no"?>
<svg
   width="26"
   height="26"
   viewBox="0 0 178.85833 178.85833"
   version="1.1"
   id="svg1454"
   inkscape:version="1.3.2 (091e20ef0f, 2023-11-25, custom)"
   sodipodi:docname="scale-slider.svg"
   xmlns:inkscape="http://www.inkscape.org/namespaces/inkscape"
   xmlns:sodipodi="http://sodipodi.sourceforge.net/DTD/sodipodi-0.dtd"
   xmlns="http://www.w3.org/2000/svg"
   xmlns:svg="http://www.w3.org/2000/svg"
   xmlns:rdf="http://www.w3.org/1999/02/22-rdf-syntax-ns#"
   xmlns:cc="http://creativecommons.org/ns#"
   xmlns:dc="http://purl.org/dc/elements/1.1/">
  <defs
     id="defs1448" />
  <sodipodi:namedview
     id="base"
     pagecolor="#ffffff"
     bordercolor="#666666"
     borderopacity="1.0"
     inkscape:pageopacity="0.0"
     inkscape:pageshadow="2"
     inkscape:zoom="30.423077"
     inkscape:cx="13.016435"
     inkscape:cy="13"
     inkscape:document-units="mm"
     inkscape:current-layer="layer1"
     inkscape:document-rotation="0"
     showgrid="true"
     units="px"
     inkscape:window-width="1366"
     inkscape:window-height="737"
     inkscape:window-x="0"
     inkscape:window-y="0"
     inkscape:window-maximized="1"
     inkscape:showpageshadow="2"
     inkscape:pagecheckerboard="0"
     inkscape:deskcolor="#d1d1d1">
    <inkscape:grid
       type="xygrid"
       id="grid2037"
       originx="0"
       originy="0"
       spacingy="1"
       spacingx="1"
       units="px"
       visible="true" />
  </sodipodi:namedview>
  <metadata
     id="metadata1451">
    <rdf:RDF>
      <cc:Work
         rdf:about="">
        <dc:format>image/svg+xml</dc:format>
        <dc:type
           rdf:resource="http://purl.org/dc/dcmitype/StillImage" />
      </cc:Work>
    </rdf:RDF>
  </metadata>
  <g
     inkscape:label="Layer 1"
     inkscape:groupmode="layer"
     id="layer1">
    <path
       inkscape:connector-curvature="0"
       style="fill:#f9f9f9;fill-opacity:1;stroke:#c5c9cc;stroke-width:6.87916654;stroke-linecap:butt;stroke-linejoin:miter;stroke-miterlimit:4;stroke-dasharray:none;stroke-opacity:1"
       d="m 133.92425,166.90971 c 7.54155,0.0306 19.22948,-12.89576 19.22948,-20.43198 V 87.347125 L 89.429198,14.570995 25.70465,87.347125 v 59.130605 c 0,7.53622 12.173437,20.04926 19.714971,20.07928 z"
       id="path377"
       sodipodi:nodetypes="sscccsss" />
    <path
       style="opacity:1;fill:#dcdcdc;stroke-width:0.0328698"
       d="M 11.011378,23.716016 6.4753476,23.696516 6.2925837,23.62383 C 5.5882649,23.343722 4.7619709,22.540324 4.3923311,21.776233 L 4.273072,21.529709 4.265272,17.207332 4.257472,12.884956 8.6205162,7.8990938 C 11.020195,5.1568699 12.990961,2.9132158 13,2.9131959 c 0.009,-1.99e-5 1.979722,2.243618 4.379296,4.9858618 l 4.362861,4.9858983 6.03e-4,4.261392 c 6.86e-4,4.848791 0.0254,4.425118 -0.288558,4.94749 -0.401381,0.667835 -1.040184,1.282958 -1.609368,1.54971 l -0.188703,0.08844 -2.054361,0.0018 c -1.129899,9.71e-4 -4.095575,-0.007 -6.590392,-0.01774 z"
       id="path1"
       transform="scale(6.8791665)" />
    <path
       style="opacity:1;fill:#dcdcdc;stroke-width:0.0328698"
       d="m 10.611842,23.707553 c 0.02088,-0.01344 -0.9049859,-0.02083 -2.0574854,-0.01644 -1.1524997,0.0044 -2.0954517,5.26e-4 -2.0954489,-0.0086 2.8e-6,-0.0091 -0.085876,-0.0499 -0.1908427,-0.09061 C 5.6675971,23.359071 4.8599028,22.59353 4.4655793,21.883493 4.3976771,21.761226 4.3311136,21.656535 4.3176604,21.650847 c -0.013453,-0.0057 -0.016313,-0.03157 -0.00636,-0.05752 0.00996,-0.02595 0.00543,-0.04718 -0.010064,-0.04719 -0.015527,-2e-6 -0.026016,-1.943501 -0.023372,-4.330594 l 0.0048,-4.330588 3.7973899,-4.3388119 C 13.127179,2.7794167 12.981223,2.9455608 13,2.9456946 c 0.01925,1.372e-4 0.121307,0.1162425 5.004425,5.6933283 l 3.738938,4.2703001 -0.0025,3.077576 c -0.0021,2.610737 -0.03627,5.358837 -0.07033,5.657854 -0.0051,0.0452 -0.02093,0.09697 -0.03506,0.115045 -0.01414,0.01808 -0.08663,0.136409 -0.161094,0.262958 -0.401949,0.683095 -1.120253,1.379839 -1.675955,1.625652 -0.138724,0.06136 -0.284059,0.06364 -4.683864,0.07345 -2.497383,0.0056 -4.523611,-8.72e-4 -4.502729,-0.01431 z"
       id="path2"
       transform="scale(6.8791665)" />
  </g>
</svg>
