<?xml version="1.0" encoding="UTF-8" standalone="no"?>
<svg
   width="52"
   height="52"
   viewBox="0 0 357.71666 357.71666"
   version="1.1"
   id="svg1454"
   inkscape:version="1.3.2 (091e20ef0f, 2023-11-25, custom)"
   sodipodi:docname="scale-slider-active@2.svg"
   xmlns:inkscape="http://www.inkscape.org/namespaces/inkscape"
   xmlns:sodipodi="http://sodipodi.sourceforge.net/DTD/sodipodi-0.dtd"
   xmlns="http://www.w3.org/2000/svg"
   xmlns:svg="http://www.w3.org/2000/svg"
   xmlns:rdf="http://www.w3.org/1999/02/22-rdf-syntax-ns#"
   xmlns:cc="http://creativecommons.org/ns#"
   xmlns:dc="http://purl.org/dc/elements/1.1/">
  <defs
     id="defs1448" />
  <sodipodi:namedview
     id="base"
     pagecolor="#ffffff"
     bordercolor="#666666"
     borderopacity="1.0"
     inkscape:pageopacity="0.0"
     inkscape:pageshadow="2"
     inkscape:zoom="15.211538"
     inkscape:cx="25.967131"
     inkscape:cy="25.934261"
     inkscape:document-units="mm"
     inkscape:current-layer="layer1"
     inkscape:document-rotation="0"
     showgrid="true"
     units="px"
     inkscape:window-width="1366"
     inkscape:window-height="737"
     inkscape:window-x="0"
     inkscape:window-y="0"
     inkscape:window-maximized="1"
     inkscape:showpageshadow="2"
     inkscape:pagecheckerboard="0"
     inkscape:deskcolor="#d1d1d1">
    <inkscape:grid
       type="xygrid"
       id="grid2037"
       originx="0"
       originy="0"
       spacingy="1"
       spacingx="1"
       units="px"
       visible="true" />
  </sodipodi:namedview>
  <metadata
     id="metadata1451">
    <rdf:RDF>
      <cc:Work
         rdf:about="">
        <dc:format>image/svg+xml</dc:format>
        <dc:type
           rdf:resource="http://purl.org/dc/dcmitype/StillImage" />
      </cc:Work>
    </rdf:RDF>
  </metadata>
  <g
     inkscape:label="Layer 1"
     inkscape:groupmode="layer"
     id="layer1">
    <path
       inkscape:connector-curvature="0"
       style="fill:#e6e6e6;fill-opacity:1;stroke:#c5c9cc;stroke-width:13.7583;stroke-linecap:butt;stroke-linejoin:miter;stroke-miterlimit:4;stroke-dasharray:none;stroke-opacity:1"
       d="m 267.67435,333.16384 c 15.0831,0.0612 38.45896,-25.79152 38.45896,-40.86396 V 174.03867 L 178.68425,28.486407 51.235149,174.03867 v 118.26121 c 0,15.07244 24.346874,40.09852 39.429942,40.15856 z"
       id="path377"
       sodipodi:nodetypes="sscccsss" />
    <path
       style="opacity:1;fill:#ffffff;stroke-width:0.0657396;fill-opacity:1"
       d="m 25.835652,47.362701 c -6.363591,-0.02936 -11.910367,-0.06488 -12.32617,-0.07892 -0.644645,-0.02177 -0.812041,-0.05116 -1.136424,-0.199515 C 10.733272,46.334321 8.7742312,44.13961 8.5124471,42.759229 8.4717567,42.544669 8.448658,39.298792 8.4505444,34.06056 l 0.00301,-8.356387 1.5911756,-1.813251 c 0.875146,-0.997288 4.075458,-4.650765 7.111804,-8.118837 3.036345,-3.468073 6.26332,-7.1513819 7.171055,-8.1851317 l 1.650428,-1.8795451 4.608457,5.2651328 c 2.534651,2.895823 6.474204,7.395095 8.754561,9.998383 l 4.146104,4.733249 -0.01664,8.611884 -0.01664,8.611884 -0.206722,0.475305 c -0.303291,0.697338 -0.879728,1.523488 -1.560097,2.235928 -0.714958,0.748661 -1.276573,1.187176 -1.94099,1.51555 l -0.490287,0.242313 -0.924972,0.0095 c -0.508735,0.0052 -6.131547,-0.0145 -12.495137,-0.04386 z"
       id="path1"
       transform="scale(6.8791665)" />
    <path
       style="opacity:1;fill:#ffffff;fill-opacity:1;stroke-width:0.0657396"
       d="m 19.426044,47.299685 c -7.393069,-0.0475 -6.752475,0.0076 -7.760962,-0.667007 -1.156427,-0.77352 -2.2913453,-2.024861 -2.8395851,-3.130874 L 8.5461444,42.938241 8.5030636,38.56141 c -0.023694,-2.407258 -0.026301,-6.294579 -0.00579,-8.638492 l 0.037289,-4.261658 8.4466114,-9.642261 c 4.645636,-5.303243 8.57125,-9.7814074 8.723588,-9.9514759 l 0.276977,-0.3092154 8.734257,9.9729323 8.734258,9.972933 -0.02053,8.644753 -0.02053,8.644754 -0.271797,0.558787 c -0.687607,1.413644 -2.217551,2.984996 -3.575981,3.672765 l -0.276775,0.14013 -6.69162,-0.01204 c -3.680391,-0.0066 -9.605527,-0.03076 -13.166968,-0.05364 z"
       id="path2"
       transform="scale(6.8791665)" />
  </g>
</svg>
