<?xml version="1.0" encoding="UTF-8" standalone="no"?>
<svg
   width="52"
   height="52"
   viewBox="0 0 357.71666 357.71666"
   version="1.1"
   id="svg1454"
   inkscape:version="1.3.2 (091e20ef0f, 2023-11-25, custom)"
   sodipodi:docname="scale-slider-hover-dark@2.svg"
   xmlns:inkscape="http://www.inkscape.org/namespaces/inkscape"
   xmlns:sodipodi="http://sodipodi.sourceforge.net/DTD/sodipodi-0.dtd"
   xmlns="http://www.w3.org/2000/svg"
   xmlns:svg="http://www.w3.org/2000/svg"
   xmlns:rdf="http://www.w3.org/1999/02/22-rdf-syntax-ns#"
   xmlns:cc="http://creativecommons.org/ns#"
   xmlns:dc="http://purl.org/dc/elements/1.1/">
  <defs
     id="defs1448" />
  <sodipodi:namedview
     id="base"
     pagecolor="#ffffff"
     bordercolor="#666666"
     borderopacity="1.0"
     inkscape:pageopacity="0.0"
     inkscape:pageshadow="2"
     inkscape:zoom="15.211538"
     inkscape:cx="25.967131"
     inkscape:cy="25.934261"
     inkscape:document-units="mm"
     inkscape:current-layer="layer1"
     inkscape:document-rotation="0"
     showgrid="true"
     units="px"
     inkscape:window-width="1366"
     inkscape:window-height="737"
     inkscape:window-x="0"
     inkscape:window-y="0"
     inkscape:window-maximized="1"
     inkscape:showpageshadow="2"
     inkscape:pagecheckerboard="0"
     inkscape:deskcolor="#d1d1d1">
    <inkscape:grid
       type="xygrid"
       id="grid2037"
       originx="0"
       originy="0"
       spacingy="1"
       spacingx="1"
       units="px"
       visible="true" />
  </sodipodi:namedview>
  <metadata
     id="metadata1451">
    <rdf:RDF>
      <cc:Work
         rdf:about="">
        <dc:format>image/svg+xml</dc:format>
        <dc:type
           rdf:resource="http://purl.org/dc/dcmitype/StillImage" />
      </cc:Work>
    </rdf:RDF>
  </metadata>
  <g
     inkscape:label="Layer 1"
     inkscape:groupmode="layer"
     id="layer1">
    <path
       inkscape:connector-curvature="0"
       style="fill:#707070;fill-opacity:1;stroke:#303030;stroke-width:13.7583;stroke-linecap:butt;stroke-linejoin:miter;stroke-miterlimit:4;stroke-dasharray:none;stroke-opacity:1"
       d="m 267.67435,333.16384 c 15.0831,0.0612 38.45896,-25.79152 38.45896,-40.86396 V 174.03867 L 178.68425,28.486407 51.235149,174.03867 v 118.26121 c 0,15.07244 24.346874,40.09852 39.429942,40.15856 z"
       id="path377"
       sodipodi:nodetypes="sscccsss" />
    <path
       style="opacity:0.31;fill:#dcdcdc;stroke-width:0.0657396"
       d="M 26.854615,47.362131 C 11.69189,47.2908 12.857357,47.314983 12.32617,47.060673 10.657679,46.26187 8.7715924,44.107681 8.5128652,42.705314 8.471797,42.482715 8.447535,39.265466 8.447535,34.042259 V 25.73331 l 8.74802,-9.990549 c 4.811412,-5.494801 8.768112,-9.9886332 8.792668,-9.9862923 0.02456,0.00234 3.971116,4.4915323 8.770133,9.9759803 l 8.725485,9.971724 0.0014,8.468813 0.0014,8.468815 -0.167483,0.498923 c -0.306357,0.91262 -0.965287,1.868117 -1.928892,2.797035 -0.981944,0.946597 -1.79144,1.404838 -2.571135,1.455475 -0.198862,0.01291 -5.582933,-0.0011 -11.964602,-0.0311 z"
       id="path1"
       transform="scale(6.8791665)" />
    <path
       style="opacity:0.5;fill:#dcdcdc;stroke-width:0.0657396"
       d="m 20.116309,47.295675 c -4.021848,-0.02674 -7.163643,-0.07371 -7.336557,-0.109691 -0.166333,-0.03461 -0.543896,-0.206568 -0.83903,-0.382126 -1.402103,-0.834031 -2.8366999,-2.459982 -3.2701339,-3.706322 l -0.1587563,-0.456503 -0.036832,-8.43556 -0.036832,-8.435561 2.2819902,-2.596713 c 1.255094,-1.428192 4.370006,-4.978129 6.922028,-7.888748 8.213333,-9.3674341 8.306128,-9.4709024 8.413977,-9.3816922 0.149512,0.1236735 1.894873,2.1070172 9.952688,11.3097532 l 7.477876,8.540395 v 8.395219 8.395218 l -0.163868,0.481792 c -0.323411,0.950868 -0.817174,1.704667 -1.737683,2.652822 -0.672514,0.692711 -1.267871,1.147445 -1.884781,1.439594 l -0.45387,0.21494 -6.048041,0.005 c -3.326422,0.0027 -9.213401,-0.01607 -13.082175,-0.04179 z"
       id="path2"
       transform="scale(6.8791665)" />
    <path
       style="opacity:0.5;fill:#dcdcdc;stroke-width:0.0657396"
       d="M 16.655918,47.232178 12.801089,47.187434 12.35698,46.97961 C 11.136298,46.408385 9.6732291,44.976605 8.9840695,43.678832 8.4887381,42.746064 8.5255705,43.465048 8.4960109,34.151708 L 8.4694079,25.769912 8.9407464,25.243996 C 9.1999825,24.954742 12.499457,21.197725 16.272911,16.89507 23.28816,8.8959817 25.524501,6.3659167 25.825617,6.0876965 c 0.149228,-0.137881 0.184525,-0.1460928 0.282569,-0.06574 0.120788,0.098993 2.222448,2.4747127 5.75499,6.5054485 1.218046,1.389826 4.329713,4.937956 6.914817,7.884732 l 4.70019,5.357775 0.0043,8.370315 0.0043,8.370315 -0.262338,0.670976 c -0.345956,0.88484 -0.777179,1.526253 -1.611382,2.396811 -0.682615,0.712363 -1.332145,1.21871 -1.986295,1.548432 l -0.342947,0.172861 -9.386509,-0.01135 c -5.16258,-0.0062 -11.121182,-0.03148 -13.241338,-0.05609 z"
       id="path3"
       transform="scale(6.8791665)" />
    <path
       style="opacity:0.963;fill:#dcdcdc;stroke-width:0.0657396"
       d="M 23.370418,47.233042 12.884956,47.190992 12.434881,46.9836 C 10.767183,46.215135 8.8396262,44.002528 8.6381984,42.625457 8.5915935,42.30684 8.5561424,39.315895 8.5354232,33.954489 l -0.03163,-8.184577 0.6144734,-0.690265 c 0.3379603,-0.379646 1.3549044,-1.533376 2.2598744,-2.563844 0.904971,-1.030467 3.165046,-3.604172 5.022388,-5.719342 6.207758,-7.069489 7.062609,-8.0405556 8.128385,-9.2334352 1.374405,-1.5383113 1.434356,-1.5944368 1.576825,-1.4761977 0.219,0.1817532 2.112249,2.3215931 8.341284,9.4277109 1.045904,1.193173 2.628827,2.997725 3.517608,4.010114 0.888779,1.012389 2.480052,2.82621 3.53616,4.030712 l 1.920196,2.190003 0.002,1.294194 c 0.0011,0.711807 0.01831,4.459554 0.03823,8.328328 l 0.03621,7.034134 -0.169914,0.445798 c -0.442113,1.159958 -1.016759,2.006755 -2.019363,2.975728 -0.638268,0.616857 -1.159205,1.005243 -1.747189,1.302623 l -0.342947,0.173449 -2.681074,-0.01227 c -1.47459,-0.0067 -7.39953,-0.03119 -13.166534,-0.05431 z"
       id="path4"
       transform="scale(6.8791665)" />
    <path
       style="opacity:1;fill:#dcdcdc;stroke-width:0.0657396"
       d="M 25.342605,47.221693 12.884956,47.165532 12.424779,46.946434 C 11.533064,46.521873 10.367768,45.520726 9.6221071,44.53856 9.4436808,44.303541 9.1593613,43.835376 8.9902861,43.498193 l -0.3074096,-0.61306 -0.046265,-1.523476 c -0.025446,-0.837912 -0.062215,-4.68406 -0.08171,-8.546996 L 8.5194568,25.79114 9.7512906,24.399996 c 0.6775084,-0.76513 3.8033924,-4.319844 6.9464084,-7.899363 6.262762,-7.132536 8.618826,-9.7898564 9.031242,-10.1860147 l 0.269982,-0.2593389 0.20602,0.1935993 c 0.354723,0.3333378 2.129751,2.3393177 9.363197,10.5814593 3.23718,3.688602 5.195114,5.920711 6.479902,7.387304 l 1.355246,1.547022 0.03273,8.31868 0.03273,8.31868 -0.217258,0.5456 c -0.446442,1.121153 -1.001778,1.913247 -2.039237,2.908633 -0.612978,0.588118 -1.140748,0.97846 -1.71702,1.269916 -0.310483,0.15703 -0.406941,0.172419 -1.018963,0.162565 -0.371809,-0.006 -6.281958,-0.03616 -13.133665,-0.06705 z"
       id="path5"
       transform="scale(6.8791665)" />
    <path
       style="opacity:1;fill:#dcdcdc;stroke-width:0.0657396"
       d="m 24.389381,47.221031 -11.504425,-0.0567 -0.460177,-0.217886 C 11.555479,46.534843 10.332836,45.479867 9.5961226,44.50569 9.4320628,44.28875 9.1593674,43.835175 8.9901327,43.497746 L 8.6824332,42.88424 8.6366905,41.32834 C 8.611532,40.472596 8.5738031,36.626834 8.5528486,32.782202 l -0.038099,-6.99024 1.4643219,-1.654514 c 0.8053765,-0.909983 2.5291265,-2.867409 3.8305545,-4.349837 8.170464,-9.306793 8.292247,-9.44514 10.127063,-11.5044249 0.837605,-0.9400759 1.644264,-1.8259314 1.792576,-1.9685678 l 0.269658,-0.2593389 0.204916,0.1935993 c 0.411056,0.3883557 2.358069,2.5936667 13.723218,15.5437893 l 3.490467,3.977244 0.0136,6.343869 c 0.0075,3.489128 0.01565,7.260936 0.01817,8.381795 l 0.0046,2.037927 -0.269458,0.602271 c -0.38118,0.851979 -0.940327,1.66089 -1.667419,2.412228 -0.706592,0.730156 -1.277678,1.182939 -1.918501,1.521075 l -0.436921,0.230545 -1.633875,-0.01094 c -0.898633,-0.006 -6.810868,-0.03646 -13.138302,-0.06765 z"
       id="path6"
       transform="scale(6.8791665)" />
    <path
       style="opacity:1;fill:#dcdcdc;stroke-width:0.0657396"
       d="M 23.447436,47.218093 12.841775,47.169434 12.337449,46.905779 C 11.049602,46.23251 9.7037772,44.88774 9.0472947,43.618206 8.9070684,43.34703 8.7610612,43.02162 8.7228343,42.895071 8.6296884,42.586715 8.5877195,40.181461 8.5390314,32.361253 L 8.4982104,25.804679 9.179573,25.036877 c 0.3747494,-0.42229 1.242322,-1.406346 1.927939,-2.186789 0.685617,-0.780443 1.988074,-2.262097 2.894349,-3.292565 0.906275,-1.030468 3.155683,-3.589321 4.998683,-5.68634 5.64802,-6.4264791 6.872448,-7.7902726 6.994186,-7.7902726 0.08066,0 1.000563,0.9894729 2.478591,2.6660364 1.147035,1.3011092 4.537534,5.1582852 6.006572,6.8333322 0.919589,1.048546 2.321953,2.646017 3.116366,3.549936 4.07013,4.631182 5.541631,6.310379 5.667194,6.467093 l 0.138294,0.172604 0.03809,8.341647 0.03809,8.341647 -0.251928,0.584352 c -0.398558,0.924463 -0.886526,1.648615 -1.642063,2.436844 -0.761725,0.794685 -1.324634,1.246001 -1.995691,1.600056 l -0.447161,0.235927 -2.543989,-0.02182 c -1.399194,-0.012 -7.316537,-0.04371 -13.149652,-0.07048 z"
       id="path7"
       transform="scale(6.8791665)" />
  </g>
</svg>
