<?xml version="1.0" encoding="UTF-8" standalone="no"?>
<svg
   width="52"
   height="52"
   viewBox="0 0 357.71667 357.71667"
   version="1.1"
   id="svg1454"
   inkscape:version="1.3.2 (091e20ef0f, 2023-11-25, custom)"
   sodipodi:docname="scale-slider-active-dark@2.svg"
   xmlns:inkscape="http://www.inkscape.org/namespaces/inkscape"
   xmlns:sodipodi="http://sodipodi.sourceforge.net/DTD/sodipodi-0.dtd"
   xmlns="http://www.w3.org/2000/svg"
   xmlns:svg="http://www.w3.org/2000/svg"
   xmlns:rdf="http://www.w3.org/1999/02/22-rdf-syntax-ns#"
   xmlns:cc="http://creativecommons.org/ns#"
   xmlns:dc="http://purl.org/dc/elements/1.1/">
  <defs
     id="defs1448" />
  <sodipodi:namedview
     id="base"
     pagecolor="#ffffff"
     bordercolor="#666666"
     borderopacity="1.0"
     inkscape:pageopacity="0.0"
     inkscape:pageshadow="2"
     inkscape:zoom="19.346154"
     inkscape:cx="26"
     inkscape:cy="25.974155"
     inkscape:document-units="mm"
     inkscape:current-layer="layer1"
     inkscape:document-rotation="0"
     showgrid="true"
     units="px"
     inkscape:window-width="1366"
     inkscape:window-height="737"
     inkscape:window-x="0"
     inkscape:window-y="0"
     inkscape:window-maximized="1"
     scale-x="26"
     inkscape:showpageshadow="2"
     inkscape:pagecheckerboard="0"
     inkscape:deskcolor="#d1d1d1">
    <inkscape:grid
       type="xygrid"
       id="grid2037"
       originx="0"
       originy="0"
       spacingy="1"
       spacingx="1"
       units="px"
       visible="true" />
  </sodipodi:namedview>
  <metadata
     id="metadata1451">
    <rdf:RDF>
      <cc:Work
         rdf:about="">
        <dc:format>image/svg+xml</dc:format>
        <dc:type
           rdf:resource="http://purl.org/dc/dcmitype/StillImage" />
      </cc:Work>
    </rdf:RDF>
  </metadata>
  <g
     inkscape:label="Layer 1"
     inkscape:groupmode="layer"
     id="layer1">
    <path
       inkscape:connector-curvature="0"
       style="fill:#707070;fill-opacity:1;stroke:#303030;stroke-width:16.51;stroke-linecap:butt;stroke-linejoin:miter;stroke-miterlimit:4;stroke-dasharray:none;stroke-opacity:1"
       d="m 267.2042,332.78235 c 15.0831,0.0612 38.45896,-25.79152 38.45896,-40.86396 V 173.65717 L 178.21409,28.104919 50.765001,173.65717 v 118.26122 c 0,15.07244 24.346874,40.09852 39.42994,40.15856 z"
       id="path377"
       sodipodi:nodetypes="sscccsss" />
    <path
       style="opacity:1;fill:#ffffff;stroke-width:0.0516899;fill-opacity:1"
       d="M 24.785288,47.109106 C 17.837707,47.0829 13.113494,47.045677 12.933795,47.015725 11.567806,46.788044 9.3069209,44.622768 8.7307758,42.990445 l -0.1222335,-0.34631 0.00183,-8.477137 0.00183,-8.477137 8.6403057,-9.860879 8.640306,-9.8608791 0.165688,0.16903 c 0.09113,0.092967 3.982559,4.5294711 8.647623,9.8588991 l 8.481935,9.689868 -0.01352,8.608342 -0.01352,8.608342 -0.147854,0.335984 c -0.367672,0.835494 -0.938598,1.633312 -1.738518,2.429424 -0.603385,0.600512 -1.132717,0.989592 -1.742318,1.280674 l -0.403119,0.192487 -1.395626,0.0058 c -0.767594,0.0032 -6.594334,-0.01385 -12.94831,-0.03781 z"
       id="path1"
       transform="scale(6.8791667)" />
    <path
       style="opacity:1;fill:#ffffff;fill-opacity:1;stroke-width:0.0516899"
       d="m 19.636171,47.060542 c -4.419588,-0.02513 -6.604482,-0.05542 -6.784655,-0.09406 C 12.231084,46.833421 11.263895,46.195798 10.44151,45.377677 9.7674623,44.707122 9.2937353,44.075425 8.9541529,43.394341 L 8.6838966,42.852301 8.6705252,34.269556 8.6571538,25.68681 17.190818,15.944797 C 21.884334,10.586689 25.766076,6.1598608 25.816913,6.1074 25.921169,5.9998143 25.545048,5.577161 37.52103,19.259523 l 5.628386,6.430338 -0.0084,8.606361 -0.0084,8.606362 -0.2306,0.48117 c -0.693886,1.447863 -2.050434,2.862929 -3.384777,3.530789 l -0.401116,0.200765 -6.480567,-0.0088 c -3.564312,-0.0049 -9.414071,-0.02553 -12.999465,-0.04592 z"
       id="path2"
       transform="scale(6.8791667)" />
  </g>
</svg>
