<?xml version="1.0" encoding="UTF-8" standalone="no"?>
<svg
   width="52"
   height="52"
   viewBox="0 0 357.71666 357.71666"
   version="1.1"
   id="svg1454"
   inkscape:version="1.3.2 (091e20ef0f, 2023-11-25, custom)"
   sodipodi:docname="scale-slider-hover@2.svg"
   xmlns:inkscape="http://www.inkscape.org/namespaces/inkscape"
   xmlns:sodipodi="http://sodipodi.sourceforge.net/DTD/sodipodi-0.dtd"
   xmlns="http://www.w3.org/2000/svg"
   xmlns:svg="http://www.w3.org/2000/svg"
   xmlns:rdf="http://www.w3.org/1999/02/22-rdf-syntax-ns#"
   xmlns:cc="http://creativecommons.org/ns#"
   xmlns:dc="http://purl.org/dc/elements/1.1/">
  <defs
     id="defs1448" />
  <sodipodi:namedview
     id="base"
     pagecolor="#ffffff"
     bordercolor="#666666"
     borderopacity="1.0"
     inkscape:pageopacity="0.0"
     inkscape:pageshadow="2"
     inkscape:zoom="15.211538"
     inkscape:cx="25.967131"
     inkscape:cy="25.934261"
     inkscape:document-units="mm"
     inkscape:current-layer="layer1"
     inkscape:document-rotation="0"
     showgrid="true"
     units="px"
     inkscape:window-width="1366"
     inkscape:window-height="737"
     inkscape:window-x="0"
     inkscape:window-y="0"
     inkscape:window-maximized="1"
     inkscape:showpageshadow="2"
     inkscape:pagecheckerboard="0"
     inkscape:deskcolor="#d1d1d1">
    <inkscape:grid
       type="xygrid"
       id="grid2037"
       originx="0"
       originy="0"
       spacingy="1"
       spacingx="1"
       units="px"
       visible="true" />
  </sodipodi:namedview>
  <metadata
     id="metadata1451">
    <rdf:RDF>
      <cc:Work
         rdf:about="">
        <dc:format>image/svg+xml</dc:format>
        <dc:type
           rdf:resource="http://purl.org/dc/dcmitype/StillImage" />
      </cc:Work>
    </rdf:RDF>
  </metadata>
  <g
     inkscape:label="Layer 1"
     inkscape:groupmode="layer"
     id="layer1">
    <path
       inkscape:connector-curvature="0"
       style="fill:#e6e6e6;fill-opacity:1;stroke:#c5c9cc;stroke-width:13.7583;stroke-linecap:butt;stroke-linejoin:miter;stroke-miterlimit:4;stroke-dasharray:none;stroke-opacity:1"
       d="m 267.67435,333.16384 c 15.0831,0.0612 38.45896,-25.79152 38.45896,-40.86396 V 174.03867 L 178.68425,28.486407 51.235149,174.03867 v 118.26121 c 0,15.07244 24.346874,40.09852 39.429942,40.15856 z"
       id="path377"
       sodipodi:nodetypes="sscccsss" />
    <path
       style="opacity:1;fill:#dcdcdc;stroke-width:0.0657396"
       d="m 25.835652,47.362701 c -6.363591,-0.02936 -11.910367,-0.06488 -12.32617,-0.07892 -0.644645,-0.02177 -0.812041,-0.05116 -1.136424,-0.199515 C 10.733272,46.334321 8.7742312,44.13961 8.5124471,42.759229 8.4717567,42.544669 8.448658,39.298792 8.4505444,34.06056 l 0.00301,-8.356387 1.5911756,-1.813251 c 0.875146,-0.997288 4.075458,-4.650765 7.111804,-8.118837 3.036345,-3.468073 6.26332,-7.1513819 7.171055,-8.1851317 l 1.650428,-1.8795451 4.608457,5.2651328 c 2.534651,2.895823 6.474204,7.395095 8.754561,9.998383 l 4.146104,4.733249 -0.01664,8.611884 -0.01664,8.611884 -0.206722,0.475305 c -0.303291,0.697338 -0.879728,1.523488 -1.560097,2.235928 -0.714958,0.748661 -1.276573,1.187176 -1.94099,1.51555 l -0.490287,0.242313 -0.924972,0.0095 c -0.508735,0.0052 -6.131547,-0.0145 -12.495137,-0.04386 z"
       id="path1"
       transform="scale(6.8791665)" />
    <path
       style="opacity:1;fill:#dcdcdc;stroke-width:0.0657396"
       d="m 31.841916,47.402454 c -0.02298,-0.02417 -3.913116,-0.06191 -8.644754,-0.08387 -4.731637,-0.02196 -9.009741,-0.0426 -9.506896,-0.04588 -0.497156,-0.0033 -0.903919,-0.03131 -0.903919,-0.0623 0,-0.03099 -0.04343,-0.03967 -0.0965,-0.01931 -0.05308,0.02037 -0.114287,0.0083 -0.136022,-0.02691 -0.02173,-0.03517 -0.06706,-0.04692 -0.100715,-0.02612 -0.03366,0.0208 -0.0612,0.0047 -0.0612,-0.03568 0,-0.04042 -0.02958,-0.05522 -0.06574,-0.03287 -0.03616,0.02235 -0.06574,0.0076 -0.06574,-0.03287 0,-0.04042 -0.02958,-0.05522 -0.06574,-0.03287 -0.03616,0.02235 -0.06574,0.0076 -0.06574,-0.03287 0,-0.04042 -0.02958,-0.05522 -0.06574,-0.03287 -0.03616,0.02235 -0.06574,0.01557 -0.06574,-0.01505 0,-0.03062 -0.195253,-0.184047 -0.433895,-0.340946 -0.351148,-0.230866 -1.9945076,-1.714803 -1.8990287,-1.714803 0.014469,0 -0.1277134,-0.215067 -0.3159601,-0.477927 -0.1882468,-0.262861 -0.4162238,-0.62525 -0.5066157,-0.80531 -0.090392,-0.18006 -0.1848742,-0.336689 -0.2099606,-0.348065 -0.025086,-0.01138 -0.029317,-0.06314 -0.0094,-0.115044 0.019916,-0.0519 0.00623,-0.09436 -0.030408,-0.09436 -0.03664,0 -0.051146,-0.05917 -0.032236,-0.131479 0.01891,-0.07231 0.00875,-0.131492 -0.022589,-0.131508 -0.031845,-1.5e-5 -0.056972,-3.778795 -0.056972,-8.567757 v -8.56773 l 0.2300885,-0.235057 c 0.2418435,-0.247065 0.5927542,-0.632353 0.9983471,-1.096152 0.1332881,-0.152416 0.3458815,-0.395452 0.4724305,-0.540079 0.218313,-0.2495 0.457076,-0.525361 0.903401,-1.043766 0.108953,-0.126548 0.307135,-0.351661 0.440404,-0.50025 0.251451,-0.280355 0.555564,-0.62574 0.966767,-1.097968 0.131877,-0.151448 0.333443,-0.371067 0.447924,-0.488044 0.114481,-0.116975 0.208147,-0.237112 0.208147,-0.266971 0,-0.02986 0.110936,-0.15169 0.246524,-0.270738 0.135588,-0.119048 0.246523,-0.240011 0.246523,-0.268806 0,-0.0288 0.09614,-0.154365 0.213654,-0.279043 0.23123,-0.245335 0.600388,-0.662325 0.927937,-1.048169 0.113339,-0.13351 0.317006,-0.352737 0.452594,-0.487172 0.135588,-0.134435 0.246523,-0.270161 0.246523,-0.301614 0,-0.03145 0.10354,-0.148098 0.230089,-0.259209 0.126548,-0.111112 0.230088,-0.229443 0.230088,-0.262958 0,-0.03352 0.10354,-0.151847 0.230089,-0.262958 0.126548,-0.111112 0.230089,-0.235935 0.23009,-0.277385 2e-6,-0.04145 0.103541,-0.157978 0.230089,-0.258951 0.126547,-0.100973 0.230087,-0.219304 0.230088,-0.262958 2e-6,-0.04365 0.103541,-0.161986 0.230089,-0.262959 0.126547,-0.100972 0.230086,-0.212812 0.230086,-0.248531 0,-0.03572 0.10354,-0.155855 0.230089,-0.266966 0.126548,-0.111112 0.230088,-0.229443 0.230088,-0.262958 0,-0.03352 0.10354,-0.151848 0.230089,-0.262959 0.126548,-0.111111 0.230088,-0.229443 0.230088,-0.262958 0,-0.03352 0.10354,-0.151847 0.230089,-0.262958 0.126548,-0.111112 0.230088,-0.229443 0.230088,-0.262959 0,-0.03352 0.10354,-0.151847 0.230089,-0.262958 0.126548,-0.111112 0.230088,-0.229443 0.230088,-0.262958 0,-0.03352 0.10354,-0.151847 0.230089,-0.262959 0.126548,-0.111111 0.230088,-0.229442 0.230088,-0.262958 0,-0.03352 0.10354,-0.151847 0.230089,-0.262958 0.126548,-0.111112 0.230088,-0.233097 0.230088,-0.271079 0,-0.03798 0.118542,-0.170525 0.263425,-0.29454 0.144884,-0.124015 0.246549,-0.252789 0.225922,-0.286164 -0.02063,-0.03337 0.0064,-0.07752 0.06003,-0.09811 0.05365,-0.02059 0.278857,-0.249644 0.500467,-0.509018 0.695077,-0.813518 0.817098,-0.950504 1.070252,-1.201505 0.135588,-0.1344349 0.246524,-0.2701615 0.246524,-0.3016149 0,-0.031453 0.10275,-0.1474034 0.228332,-0.2576666 0.125583,-0.1102632 0.221728,-0.2218292 0.213654,-0.2479245 -0.0081,-0.026095 0.09547,-0.1444265 0.230089,-0.2629583 0.134622,-0.1185318 0.238162,-0.236863 0.230088,-0.2629583 -0.0081,-0.026095 0.09626,-0.1451203 0.231845,-0.2645001 0.135587,-0.1193798 0.246523,-0.2444763 0.246523,-0.2779921 0,-0.033516 0.10354,-0.1518471 0.230088,-0.2629583 0.126549,-0.1111112 0.230089,-0.2294424 0.230089,-0.2629583 0,-0.033516 0.10354,-0.1518471 0.230088,-0.2629583 0.126549,-0.1111112 0.230089,-0.2286156 0.230089,-0.2611209 0,-0.032505 0.119113,-0.166712 0.264696,-0.2982372 0.145582,-0.1315252 0.251266,-0.2525658 0.234853,-0.2689791 -0.01641,-0.016413 0.07155,-0.1188691 0.195481,-0.2276794 0.123929,-0.1088103 0.226253,-0.2317509 0.227389,-0.2732013 0.0011,-0.04145 0.06877,-0.1237474 0.150303,-0.1828822 0.141034,-0.1022934 0.158245,-0.098575 0.354205,0.076515 0.113283,0.101218 0.192778,0.1972223 0.176658,0.2133429 -0.01612,0.016121 0.08725,0.134618 0.229719,0.2633276 0.142467,0.1287096 0.246006,0.2470408 0.230089,0.2629582 -0.01592,0.015918 0.08762,0.1342487 0.230088,0.2629583 0.142467,0.1287096 0.246006,0.2470409 0.230089,0.2629583 -0.01592,0.015917 0.08762,0.1342487 0.230088,0.2629583 0.142467,0.1287096 0.246006,0.2470408 0.230089,0.2629583 -0.01592,0.015918 0.08762,0.1342487 0.230088,0.2629583 0.142467,0.1287096 0.246006,0.2470408 0.230089,0.2629583 -0.01592,0.015917 0.08762,0.1342487 0.230088,0.2629583 0.142467,0.1287096 0.246006,0.2470408 0.230089,0.2629583 -0.01592,0.015917 0.09757,0.1433555 0.252189,0.2831956 0.154622,0.1398401 0.274526,0.2747407 0.266452,0.2997791 -0.0081,0.025038 0.09547,0.1425048 0.230089,0.2610366 0.134622,0.1185318 0.238162,0.236863 0.230088,0.2629582 -0.0081,0.026095 0.09547,0.1444262 0.230089,0.2629582 0.134622,0.118532 0.238162,0.236863 0.230088,0.262958 -0.0081,0.0261 0.09547,0.144427 0.230089,0.262959 0.134622,0.118531 0.238162,0.236863 0.230088,0.262958 -0.0081,0.02609 0.09547,0.144426 0.230089,0.262958 0.134622,0.118532 0.238162,0.236863 0.230088,0.262958 -0.0081,0.0261 0.09547,0.144427 0.230089,0.262959 0.134622,0.118532 0.238253,0.236588 0.230292,0.262347 -0.008,0.02576 0.100424,0.15064 0.240857,0.277513 0.140432,0.126872 0.242309,0.2437 0.226391,0.259618 -0.01592,0.01592 0.08762,0.134249 0.230089,0.262958 0.142466,0.12871 0.246006,0.247041 0.230088,0.262958 -0.01592,0.01592 0.08762,0.134249 0.230089,0.262959 0.142466,0.128709 0.246006,0.247041 0.230088,0.262958 -0.01592,0.01592 0.08762,0.134249 0.230089,0.262958 0.142466,0.12871 0.245794,0.247253 0.229618,0.263429 -0.01618,0.01618 0.08252,0.127958 0.21932,0.248405 0.136802,0.120445 0.242126,0.240343 0.234052,0.266438 -0.0081,0.02609 0.09547,0.144427 0.230089,0.262958 0.134622,0.118532 0.238162,0.236863 0.230088,0.262959 -0.0081,0.02609 0.09547,0.144426 0.230089,0.262958 0.134622,0.118532 0.238162,0.236863 0.230088,0.262958 -0.0081,0.0261 0.09547,0.144427 0.230089,0.262959 0.134622,0.118531 0.238253,0.236588 0.230292,0.262347 -0.008,0.02576 0.100424,0.15064 0.240857,0.277512 0.140432,0.126873 0.242309,0.243701 0.226392,0.259619 -0.01592,0.01592 0.08762,0.134248 0.230088,0.262958 0.142466,0.128709 0.246006,0.247041 0.230089,0.262958 -0.01592,0.01592 0.08762,0.134249 0.230088,0.262958 0.142466,0.12871 0.246006,0.247041 0.230089,0.262959 -0.01592,0.01592 0.09017,0.136552 0.235754,0.268077 0.145583,0.131525 0.264696,0.265732 0.264696,0.298238 0,0.0325 0.10354,0.150009 0.230088,0.26112 0.126549,0.111111 0.230089,0.229443 0.230089,0.262959 0,0.03352 0.101395,0.149964 0.225324,0.258774 0.123928,0.10881 0.211895,0.211266 0.195481,0.227679 -0.01641,0.01641 0.08672,0.135151 0.229187,0.263861 0.142466,0.128709 0.246006,0.24704 0.230089,0.262958 -0.01592,0.01592 0.08762,0.134249 0.230088,0.262958 0.142466,0.12871 0.246006,0.247041 0.230089,0.262959 -0.01592,0.01592 0.09017,0.136552 0.235754,0.268077 0.145583,0.131525 0.264696,0.265732 0.264696,0.298237 0,0.03251 0.101395,0.148127 0.225324,0.256938 0.123928,0.10881 0.211895,0.211266 0.195481,0.227679 -0.01641,0.01641 0.08672,0.13515 0.229187,0.26386 0.142466,0.12871 0.246006,0.247041 0.230089,0.262958 -0.01592,0.01592 0.08762,0.134249 0.230088,0.262959 0.142466,0.128709 0.246006,0.24704 0.230089,0.262958 -0.01592,0.01592 0.09757,0.143356 0.252189,0.283195 0.154622,0.13984 0.274525,0.274741 0.266452,0.299779 -0.0081,0.02504 0.09547,0.142505 0.230088,0.261037 0.134622,0.118532 0.238162,0.236863 0.230089,0.262958 -0.0081,0.0261 0.09547,0.144427 0.230088,0.262959 0.134622,0.118531 0.238162,0.236863 0.230089,0.262958 -0.0081,0.0261 0.09547,0.144427 0.230088,0.262958 0.134622,0.118532 0.238162,0.236863 0.230089,0.262959 -0.0081,0.0261 0.09547,0.144426 0.230088,0.262958 0.134622,0.118532 0.238162,0.236863 0.230089,0.262958 -0.0081,0.0261 0.08718,0.136882 0.211682,0.246194 l 0.226361,0.198747 -0.03555,8.664928 c -0.01955,4.76571 -0.05309,8.709302 -0.07453,8.763538 -0.02144,0.05423 -0.04277,0.1134 -0.04741,0.131479 -0.0046,0.01808 -0.05778,0.125263 -0.1181,0.238189 -0.06032,0.112924 -0.09112,0.22386 -0.06846,0.246523 0.02266,0.02266 0.0049,0.0412 -0.03937,0.0412 -0.04432,0 -0.06229,0.02958 -0.03995,0.06574 0.02235,0.03616 0.01634,0.06574 -0.01335,0.06574 -0.02969,0 -0.205637,0.229267 -0.390996,0.509482 -0.641809,0.970254 -1.729242,2.050939 -2.547794,2.531987 -0.256473,0.150725 -0.48805,0.304604 -0.514614,0.341953 -0.02656,0.03735 -0.04875,0.0421 -0.0493,0.01055 -5.53e-4,-0.03155 -0.03953,-0.02539 -0.0866,0.01369 -0.09539,0.07916 -7.541977,0.190281 -7.614839,0.11363 z"
       id="path2"
       transform="scale(6.8791665)" />
    <path
       style="opacity:1;fill:#dcdcdc;stroke-width:0.0657396"
       d="m 30.728397,47.405126 c -0.02075,-0.02118 -3.910887,-0.05747 -8.644754,-0.08063 -9.905847,-0.04847 -9.297296,-0.041 -9.297296,-0.114083 0,-0.03099 -0.04343,-0.03967 -0.0965,-0.01931 -0.05308,0.02037 -0.114287,0.0083 -0.136022,-0.02691 -0.02173,-0.03517 -0.06706,-0.04692 -0.100715,-0.02612 -0.03366,0.0208 -0.0612,0.0047 -0.0612,-0.03568 0,-0.04042 -0.02958,-0.05522 -0.06574,-0.03287 -0.03616,0.02235 -0.06574,0.0076 -0.06574,-0.03287 0,-0.04042 -0.02958,-0.05522 -0.06574,-0.03287 -0.03616,0.02235 -0.06574,0.0093 -0.06574,-0.02899 0,-0.03829 -0.02219,-0.06293 -0.04931,-0.05476 -0.02712,0.0082 -0.256384,-0.136737 -0.509481,-0.322019 -0.253098,-0.185282 -0.479441,-0.342805 -0.502984,-0.350052 -0.07336,-0.02258 -1.4363337,-1.403951 -1.4363337,-1.45572 0,-0.02696 -0.065748,-0.09507 -0.1461066,-0.151354 -0.080359,-0.05629 -0.1236305,-0.102337 -0.09616,-0.102337 0.027471,0 -0.065323,-0.170101 -0.206208,-0.378002 -0.2365438,-0.349064 -0.5493493,-0.902681 -0.5757358,-1.018964 -0.00615,-0.02712 -0.018293,-0.07149 -0.026976,-0.09861 -0.00868,-0.02712 -0.010522,-0.101075 -0.00409,-0.164349 0.00644,-0.06327 -0.012344,-0.115052 -0.041734,-0.115061 -0.02939,-8e-6 -0.064659,-3.840478 -0.078374,-8.534376 L 8.4305302,25.694838 8.719603,25.370807 c 0.15899,-0.178216 0.3772914,-0.41556 0.4851143,-0.52743 0.1078228,-0.111869 0.3143727,-0.343026 0.4589998,-0.513681 0.1446271,-0.170655 0.3517069,-0.407628 0.4601769,-0.526607 0.10847,-0.118979 0.300759,-0.342175 0.427307,-0.495991 0.267686,-0.325365 0.672132,-0.786418 0.953224,-1.086639 0.10847,-0.115851 0.285967,-0.313961 0.394438,-0.440243 0.629372,-0.73272 0.80993,-0.93421 1.002528,-1.11875 0.11751,-0.112593 0.213654,-0.234102 0.213654,-0.27002 0,-0.03592 0.118331,-0.166593 0.262958,-0.290389 0.144627,-0.123794 0.262958,-0.253357 0.262958,-0.287915 0,-0.03456 0.08135,-0.14501 0.180784,-0.245449 0.09943,-0.10044 0.299115,-0.325014 0.443742,-0.499052 0.144627,-0.174039 0.351707,-0.41373 0.460177,-0.532649 0.324071,-0.355286 0.708564,-0.787234 0.953224,-1.070874 0.126549,-0.146711 0.342862,-0.394155 0.480696,-0.549876 0.137834,-0.155722 0.344914,-0.393827 0.460177,-0.529123 0.115263,-0.135295 0.320505,-0.354624 0.456093,-0.487396 0.135588,-0.132772 0.246523,-0.270205 0.246523,-0.305406 0,-0.0352 0.10354,-0.152445 0.230089,-0.26054 0.126548,-0.108096 0.230088,-0.22765 0.230088,-0.265678 0,-0.03803 0.09614,-0.165108 0.213654,-0.282401 0.117509,-0.117294 0.311695,-0.326474 0.431523,-0.464846 0.119828,-0.138371 0.336142,-0.384706 0.480696,-0.547412 0.144555,-0.162705 0.357133,-0.406525 0.472396,-0.541821 0.115263,-0.135295 0.320505,-0.354624 0.456093,-0.487395 0.135588,-0.132773 0.246523,-0.268121 0.246523,-0.300774 0,-0.03265 0.09614,-0.159908 0.213654,-0.282788 0.287133,-0.300256 0.482128,-0.515407 0.859697,-0.948565 0.174541,-0.200237 0.421957,-0.482399 0.549815,-0.627026 0.127856,-0.144627 0.347823,-0.396081 0.488813,-0.558786 0.140991,-0.1627057 0.344712,-0.3845975 0.452715,-0.4930932 0.108003,-0.1084957 0.196369,-0.2268269 0.19637,-0.2629583 2e-6,-0.036131 0.103541,-0.1483073 0.230089,-0.2492798 0.126547,-0.1009725 0.230086,-0.2217484 0.230086,-0.2683907 0,-0.046642 0.118332,-0.1798979 0.262959,-0.2961234 0.144627,-0.1162254 0.262959,-0.2469035 0.26296,-0.2903956 10e-7,-0.043492 0.103541,-0.1616905 0.230088,-0.2626631 0.126548,-0.1009725 0.230087,-0.2138946 0.230087,-0.2509379 0,-0.037043 0.09614,-0.1655247 0.213654,-0.2855141 0.593578,-0.6061053 0.70715,-0.7296422 0.706934,-0.7689628 -2.08e-4,-0.037902 0.115844,-0.1700304 0.607678,-0.6918634 l 0.134721,-0.1429379 0.220337,0.1758077 c 0.121187,0.096694 0.220339,0.1997257 0.22034,0.2289587 2e-6,0.029233 0.105424,0.1679363 0.234272,0.3082296 0.128849,0.1402931 0.343324,0.3793792 0.476612,0.5313022 0.133288,0.151923 0.35138,0.3977961 0.48465,0.5463848 0.133269,0.1485887 0.340348,0.3836196 0.460177,0.5222908 0.119828,0.1386712 0.314013,0.35116 0.431523,0.4721973 0.117509,0.1210373 0.213653,0.2493321 0.213653,0.2850994 0,0.035767 0.118331,0.1663186 0.262959,0.290114 0.144627,0.1237953 0.262958,0.257962 0.262958,0.2981481 0,0.040186 0.103539,0.1556795 0.230086,0.256652 0.126548,0.1009726 0.230088,0.2193038 0.230089,0.2629583 10e-7,0.043655 0.103541,0.1619853 0.230088,0.2629583 0.126548,0.100973 0.230088,0.219304 0.230089,0.262958 1e-6,0.04365 0.103541,0.161986 0.230088,0.262959 0.126548,0.100972 0.230088,0.219303 0.230089,0.262958 10e-7,0.04365 0.103541,0.161986 0.230088,0.262958 0.126548,0.100973 0.230088,0.219304 0.230089,0.262958 1e-6,0.04365 0.103541,0.161986 0.230088,0.262959 0.126548,0.100972 0.230088,0.219303 0.230089,0.262958 1e-6,0.04365 0.103541,0.161986 0.230088,0.262958 0.126548,0.100973 0.230088,0.219304 0.230089,0.262959 1e-6,0.04365 0.103541,0.161985 0.230088,0.262958 0.126548,0.100973 0.230088,0.219304 0.230089,0.262958 1e-6,0.04365 0.103541,0.161986 0.230088,0.262959 0.126548,0.100972 0.230088,0.219303 0.230089,0.262958 1e-6,0.04365 0.103541,0.161985 0.230088,0.262958 0.126548,0.100973 0.230088,0.219304 0.230089,0.262958 10e-7,0.04365 0.103541,0.161986 0.230088,0.262959 0.126548,0.100972 0.230088,0.219304 0.230089,0.262958 10e-7,0.04365 0.103541,0.161986 0.230088,0.262958 0.126548,0.100973 0.230088,0.219304 0.230089,0.262959 10e-7,0.04365 0.103541,0.161985 0.230088,0.262958 0.126548,0.100973 0.230088,0.219304 0.230089,0.262958 1e-6,0.04365 0.103541,0.161986 0.230088,0.262958 0.126548,0.100973 0.230088,0.2175 0.230089,0.258951 10e-7,0.04145 0.103542,0.166273 0.23009,0.277385 0.126549,0.111111 0.230089,0.231246 0.230089,0.266966 0,0.03572 0.103539,0.147559 0.230086,0.248532 0.126548,0.100972 0.229875,0.213169 0.229617,0.249325 -2.58e-4,0.03616 0.101893,0.16928 0.227003,0.295829 0.411673,0.416405 0.693825,0.735498 0.693825,0.784664 0,0.02661 0.110935,0.157013 0.246523,0.289785 0.135588,0.132772 0.34083,0.352101 0.456093,0.487396 0.115263,0.135296 0.327841,0.379115 0.472396,0.541821 0.144555,0.162705 0.351322,0.399368 0.459482,0.525916 0.108161,0.126549 0.302346,0.343983 0.431523,0.483186 0.129178,0.139204 0.234868,0.274869 0.234868,0.301479 0,0.02661 0.110935,0.156688 0.246523,0.289063 0.135588,0.132375 0.350064,0.363439 0.476612,0.513477 0.126549,0.150038 0.332572,0.379391 0.45783,0.509673 0.125257,0.130283 0.221999,0.257271 0.214981,0.282196 -0.007,0.02493 0.104975,0.146095 0.248872,0.269265 0.143896,0.12317 0.26163,0.256825 0.26163,0.297011 0,0.04019 0.103539,0.155679 0.230086,0.256652 0.126547,0.100973 0.230087,0.219304 0.230089,0.262958 1e-6,0.04366 0.103541,0.161986 0.230088,0.262959 0.126547,0.100972 0.230087,0.219304 0.230089,0.262958 10e-7,0.04365 0.103541,0.161986 0.230088,0.262958 0.126547,0.100973 0.230087,0.219304 0.230089,0.262959 10e-7,0.04365 0.103541,0.161985 0.230088,0.262958 0.126547,0.100973 0.230087,0.217935 0.230089,0.259917 10e-7,0.04198 0.0916,0.153402 0.203544,0.2476 l 0.203542,0.17127 -0.04418,8.692981 -0.04418,8.692982 -0.156019,0.304653 c -0.08581,0.167559 -0.137804,0.322868 -0.11554,0.345132 0.02226,0.02226 0.001,0.04048 -0.04717,0.04048 -0.04821,0 -0.06934,0.01831 -0.04696,0.0407 0.02238,0.02238 0.0051,0.07806 -0.03835,0.123727 -0.04348,0.04567 -0.270555,0.357066 -0.504623,0.691999 -0.509316,0.728789 -1.511991,1.742628 -2.104346,2.127778 -0.672438,0.43722 -0.820419,0.529254 -0.855663,0.532165 -0.01808,0.0015 -0.07113,0.02699 -0.117887,0.05665 -0.09622,0.06104 -8.637713,0.142005 -8.696069,0.08243 z"
       id="path3"
       transform="scale(6.8791665)" />
  </g>
</svg>
