<?xml version="1.0" encoding="UTF-8" standalone="no"?>
<svg
   width="52"
   height="52"
   viewBox="0 0 357.71666 357.71666"
   version="1.1"
   id="svg1454"
   inkscape:version="1.3.2 (091e20ef0f, 2023-11-25, custom)"
   sodipodi:docname="scale-slider@2.svg"
   xmlns:inkscape="http://www.inkscape.org/namespaces/inkscape"
   xmlns:sodipodi="http://sodipodi.sourceforge.net/DTD/sodipodi-0.dtd"
   xmlns="http://www.w3.org/2000/svg"
   xmlns:svg="http://www.w3.org/2000/svg"
   xmlns:rdf="http://www.w3.org/1999/02/22-rdf-syntax-ns#"
   xmlns:cc="http://creativecommons.org/ns#"
   xmlns:dc="http://purl.org/dc/elements/1.1/">
  <defs
     id="defs1448" />
  <sodipodi:namedview
     id="base"
     pagecolor="#ffffff"
     bordercolor="#666666"
     borderopacity="1.0"
     inkscape:pageopacity="0.0"
     inkscape:pageshadow="2"
     inkscape:zoom="15.211538"
     inkscape:cx="25.967131"
     inkscape:cy="25.934261"
     inkscape:document-units="mm"
     inkscape:current-layer="layer1"
     inkscape:document-rotation="0"
     showgrid="true"
     units="px"
     inkscape:window-width="1366"
     inkscape:window-height="737"
     inkscape:window-x="0"
     inkscape:window-y="0"
     inkscape:window-maximized="1"
     inkscape:showpageshadow="2"
     inkscape:pagecheckerboard="0"
     inkscape:deskcolor="#d1d1d1">
    <inkscape:grid
       type="xygrid"
       id="grid2037"
       originx="0"
       originy="0"
       spacingy="1"
       spacingx="1"
       units="px"
       visible="true" />
  </sodipodi:namedview>
  <metadata
     id="metadata1451">
    <rdf:RDF>
      <cc:Work
         rdf:about="">
        <dc:format>image/svg+xml</dc:format>
        <dc:type
           rdf:resource="http://purl.org/dc/dcmitype/StillImage" />
      </cc:Work>
    </rdf:RDF>
  </metadata>
  <g
     inkscape:label="Layer 1"
     inkscape:groupmode="layer"
     id="layer1">
    <path
       inkscape:connector-curvature="0"
       style="fill:#f9f9f9;fill-opacity:1;stroke:#c5c9cc;stroke-width:13.7583;stroke-linecap:butt;stroke-linejoin:miter;stroke-miterlimit:4;stroke-dasharray:none;stroke-opacity:1"
       d="m 267.66148,333.17078 c 15.0831,0.0612 38.45896,-25.79152 38.45896,-40.86396 V 174.04561 L 178.67137,28.493339 51.222257,174.04561 v 118.26121 c 0,15.07244 24.346874,40.09852 39.429942,40.15856 z"
       id="path377"
       sodipodi:nodetypes="sscccsss" />
    <path
       style="opacity:1;fill:#dcdcdc;stroke-width:0.0657396"
       d="M 26.591657,47.362831 C 12.008059,47.293796 12.85648,47.310288 12.373058,47.086437 10.730548,46.325865 8.815872,44.18395 8.5206281,42.776791 8.469088,42.531146 8.4486418,39.962676 8.4512884,34.066298 l 0.00375,-8.362125 8.7416586,-9.97598 c 4.807912,-5.486789 8.762923,-9.973965 8.788913,-9.9715017 0.02599,0.00246 3.973584,4.4916547 8.772427,9.9759797 l 8.72517,9.971502 0.0018,8.468813 0.0018,8.468815 -0.167176,0.498008 c -0.311696,0.928526 -0.998569,1.917436 -1.980441,2.851295 -1.015113,0.965474 -1.765847,1.368989 -2.612908,1.40442 -0.29233,0.01223 -5.752876,-0.0025 -12.134545,-0.03269 z"
       id="path1"
       transform="scale(6.8791665)" />
    <path
       style="opacity:1;fill:#dcdcdc;stroke-width:0.0657396"
       d="m 28.194993,47.369037 c -0.01606,-0.01606 -3.437799,-0.0543 -7.603875,-0.08498 -7.852764,-0.05783 -8.013407,-0.06018 -8.06773,-0.118085 -0.01808,-0.01927 -0.246253,-0.160461 -0.507055,-0.313758 -1.322008,-0.77706 -2.6117367,-2.146231 -3.2321425,-3.431231 L 8.5461444,42.927941 8.5285275,34.309004 8.5109105,25.690068 11.845868,21.884225 C 16.773027,16.261368 24.057242,7.967668 25.07264,6.8244178 c 0.487804,-0.5492253 0.912058,-0.9830536 0.942785,-0.964063 0.08511,0.052599 3.223716,3.6187763 10.643574,12.0935362 l 6.740239,7.698517 0.04375,3.668817 c 0.02406,2.01785 0.04374,5.82264 0.04374,8.45509 v 4.786273 l -0.194629,0.533295 c -0.381235,1.04461 -0.966736,1.889048 -1.983403,2.860564 -0.619421,0.591911 -1.160378,0.977827 -1.700603,1.213199 -0.32545,0.141797 -0.469919,0.159396 -1.44627,0.176183 -1.9945,0.03429 -9.937253,0.05279 -9.966829,0.02321 z"
       id="path2"
       transform="scale(6.8791665)" />
  </g>
</svg>
