<?xml version="1.0" encoding="UTF-8" standalone="no"?>
<svg
   width="26"
   height="26"
   viewBox="0 0 178.85833 178.85833"
   version="1.1"
   id="svg1454"
   inkscape:version="1.3.2 (091e20ef0f, 2023-11-25, custom)"
   sodipodi:docname="scale-slider-hover.svg"
   xmlns:inkscape="http://www.inkscape.org/namespaces/inkscape"
   xmlns:sodipodi="http://sodipodi.sourceforge.net/DTD/sodipodi-0.dtd"
   xmlns="http://www.w3.org/2000/svg"
   xmlns:svg="http://www.w3.org/2000/svg"
   xmlns:rdf="http://www.w3.org/1999/02/22-rdf-syntax-ns#"
   xmlns:cc="http://creativecommons.org/ns#"
   xmlns:dc="http://purl.org/dc/elements/1.1/">
  <defs
     id="defs1448">
    <filter
       inkscape:collect="always"
       style="color-interpolation-filters:sRGB"
       id="filter1"
       x="-0.004051154"
       y="-0.003404729"
       width="1.0081023"
       height="1.0068095">
      <feGaussianBlur
         inkscape:collect="always"
         stdDeviation="0.029518439"
         id="feGaussianBlur1" />
    </filter>
  </defs>
  <sodipodi:namedview
     id="base"
     pagecolor="#ffffff"
     bordercolor="#666666"
     borderopacity="1.0"
     inkscape:pageopacity="0.0"
     inkscape:pageshadow="2"
     inkscape:zoom="30.423077"
     inkscape:cx="13.016435"
     inkscape:cy="13"
     inkscape:document-units="mm"
     inkscape:current-layer="layer1"
     inkscape:document-rotation="0"
     showgrid="true"
     units="px"
     inkscape:window-width="1366"
     inkscape:window-height="737"
     inkscape:window-x="0"
     inkscape:window-y="0"
     inkscape:window-maximized="1"
     inkscape:showpageshadow="2"
     inkscape:pagecheckerboard="0"
     inkscape:deskcolor="#d1d1d1">
    <inkscape:grid
       type="xygrid"
       id="grid2037"
       originx="0"
       originy="0"
       spacingy="1"
       spacingx="1"
       units="px"
       visible="true" />
  </sodipodi:namedview>
  <metadata
     id="metadata1451">
    <rdf:RDF>
      <cc:Work
         rdf:about="">
        <dc:format>image/svg+xml</dc:format>
        <dc:type
           rdf:resource="http://purl.org/dc/dcmitype/StillImage" />
      </cc:Work>
    </rdf:RDF>
  </metadata>
  <g
     inkscape:label="Layer 1"
     inkscape:groupmode="layer"
     id="layer1">
    <path
       inkscape:connector-curvature="0"
       style="fill:#e6e6e6;fill-opacity:1;stroke:#c5c9cc;stroke-width:6.87916654;stroke-linecap:butt;stroke-linejoin:miter;stroke-miterlimit:4;stroke-dasharray:none;stroke-opacity:1"
       d="m 133.92425,166.90971 c 7.54155,0.0306 19.22948,-12.89576 19.22948,-20.43198 V 87.347125 L 89.429198,14.570995 25.70465,87.347125 v 59.130605 c 0,7.53622 12.173437,20.04926 19.714971,20.07928 z"
       id="path377"
       sodipodi:nodetypes="sscccsss" />
    <path
       style="opacity:1;fill:#dcdcdc;stroke-width:0.0328698;filter:url(#filter1)"
       d="M 10.71555,23.716567 6.4424779,23.699115 6.1896735,23.578393 C 5.8456273,23.4141 5.5987591,23.241134 5.2790359,22.940361 4.902413,22.586062 4.6080429,22.207531 4.4272668,21.845072 L 4.273072,21.535908 4.2643816,17.209307 4.2556912,12.882705 4.4152949,12.703046 C 4.503077,12.604234 6.4655025,10.363843 8.7762405,7.7243995 11.086978,5.0849557 12.987414,2.9254109 12.999431,2.9254109 c 0.01202,0 1.984201,2.2408976 4.382631,4.9797724 l 4.360782,4.9797727 2.59e-4,4.276143 c 2.49e-4,4.090078 -0.0024,4.283909 -0.06114,4.454595 -0.253966,0.738165 -1.09165,1.674632 -1.795747,2.007511 l -0.230089,0.10878 -2.333754,10e-4 c -1.283565,5.6e-4 -4.256637,-0.0068 -6.606827,-0.01643 z"
       id="path1"
       transform="scale(6.8791665)" />
    <path
       style="opacity:1;fill:#dcdcdc;stroke-width:0.0328698"
       d="m 12.457649,23.71555 c 0.144627,-0.01145 -0.905563,-0.02487 -2.333755,-0.02982 -3.0769468,-0.01067 -3.5308561,-0.0086 -3.5714517,0.01652 -0.016868,0.01043 -0.051561,0.0016 -0.077095,-0.01957 -0.025534,-0.02119 -0.061864,-0.02899 -0.080735,-0.01732 -0.01887,0.01166 -0.03431,0.0059 -0.03431,-0.01278 0,-0.01869 -0.070259,-0.06552 -0.1561315,-0.104063 C 6.0006641,23.457172 5.7313007,23.28204 5.505689,23.094377 5.2648812,22.894073 5.2192632,22.84668 4.7668694,22.326801 c -0.02753,-0.03164 -0.050055,-0.06766 -0.050055,-0.08006 0,-0.01239 -0.028043,-0.05307 -0.062318,-0.09039 -0.034275,-0.03732 -0.1267211,-0.191706 -0.2054362,-0.343076 l -0.1431183,-0.275217 -0.00895,-4.326552 -0.00895,-4.326553 0.1568644,-0.168727 c 0.086275,-0.0928 0.2160299,-0.239396 0.2883434,-0.325768 0.072314,-0.08637 0.1925683,-0.221223 0.2672329,-0.299668 0.074665,-0.07844 0.1264344,-0.143097 0.1150442,-0.143671 -0.01139,-5.76e-4 0.00154,-0.01906 0.028741,-0.04109 0.027198,-0.02202 0.1381332,-0.142863 0.2465234,-0.268534 0.10839,-0.125671 0.21926,-0.252496 0.2463775,-0.281835 0.046078,-0.04985 0.3159143,-0.357063 0.4860494,-0.553372 0.041347,-0.04771 0.1081396,-0.123722 0.148427,-0.168918 0.040287,-0.0452 0.1765588,-0.200112 0.3028254,-0.344258 C 6.7007365,10.144971 6.8336283,9.996006 6.8697851,9.9580831 6.9375981,9.8869582 7.2528623,9.5268519 7.3546103,9.4042983 7.4440575,9.2965606 7.6484617,9.062842 7.7572693,8.9438918 7.9256608,8.7598033 8.239609,8.3998137 8.3118062,8.3080301 8.3496761,8.2598861 8.4178944,8.1813319 8.4634023,8.1334656 8.5089105,8.085599 8.6045964,7.9766146 8.6760386,7.8912777 8.8107659,7.7303473 8.8897165,7.6403767 9.0676489,7.4450063 9.1252755,7.381732 9.268174,7.2196208 9.3852009,7.0847594 9.7438757,6.6714235 9.7584643,6.6548972 9.8892771,6.513734 9.9591001,6.438387 10.070036,6.3104468 10.135801,6.229424 c 0.06576,-0.081023 0.17388,-0.203052 0.240256,-0.2711758 0.06638,-0.068124 0.113392,-0.1238614 0.104479,-0.1238614 -0.0089,0 0.0033,-0.019747 0.02723,-0.043881 0.02389,-0.024135 0.119647,-0.1313723 0.212795,-0.238306 0.09315,-0.1069336 0.204083,-0.2324726 0.246523,-0.2789755 0.04244,-0.046503 0.15568,-0.1722298 0.251644,-0.2793932 0.09596,-0.1071633 0.214295,-0.239238 0.262958,-0.2934994 0.04866,-0.054261 0.162435,-0.1870746 0.252827,-0.2951407 0.09039,-0.108066 0.193932,-0.227598 0.230089,-0.2656265 0.06913,-0.072714 0.389765,-0.4331679 0.509865,-0.5731927 0.241666,-0.2817586 0.510196,-0.5584348 0.539985,-0.5563663 0.01917,0.00133 0.09991,0.078986 0.179432,0.1725664 0.140663,0.1655365 0.25434,0.2945497 0.627861,0.7125681 0.2193,0.2454254 0.266413,0.2991322 0.476611,0.5433188 0.09039,0.1050078 0.229045,0.2660633 0.308118,0.3579011 0.07907,0.091838 0.244454,0.2779133 0.367515,0.4135011 0.222031,0.2446334 0.251347,0.2781179 0.485044,0.5540063 0.06668,0.078724 0.13681,0.1600764 0.155834,0.1807838 0.01902,0.020707 0.144511,0.1633768 0.278862,0.317043 0.13435,0.1536663 0.255606,0.2843237 0.269457,0.2903497 0.01385,0.00603 0.02518,0.022776 0.02518,0.03722 0,0.014445 0.05565,0.083471 0.123675,0.1533921 0.06802,0.069921 0.204842,0.2212794 0.304045,0.3363526 0.0992,0.1150729 0.21735,0.2504102 0.262546,0.3007493 0.0452,0.050339 0.104815,0.118894 0.132488,0.1523443 0.0631,0.076278 0.757398,0.8699097 0.803293,0.9182263 0.09199,0.096841 0.401307,0.4586771 0.443999,0.5193833 0.0267,0.037973 0.07979,0.098724 0.11797,0.1350002 0.03818,0.036277 0.179036,0.1916847 0.313014,0.345351 0.133978,0.1536662 0.251696,0.2867889 0.261595,0.2958281 0.0099,0.00904 0.22305,0.2530973 0.473669,0.542352 0.250619,0.289254 0.472271,0.540708 0.49256,0.558786 0.03893,0.03469 0.62665,0.70854 0.866026,0.992945 0.07756,0.09215 0.188498,0.220139 0.246523,0.284412 0.05802,0.06427 0.161003,0.180343 0.228841,0.257932 0.06784,0.07759 0.175959,0.200236 0.24027,0.272549 0.233365,0.262402 0.215295,-0.126931 0.209807,4.520533 -0.0029,2.457254 -0.01769,4.262055 -0.03558,4.341662 -0.02876,0.128009 -0.111428,0.32347 -0.199972,0.472824 -0.134839,0.227442 -0.33291,0.509482 -0.3578,0.509482 -0.01616,0 -0.02937,0.01914 -0.02937,0.04254 0,0.05219 -0.38112,0.45004 -0.616636,0.643707 -0.244851,0.201344 -0.387904,0.297024 -0.632416,0.422987 l -0.213653,0.110066 -3.451328,-0.0098 c -1.89823,-0.0054 -3.27383,-0.0017 -3.05689,0.0083 0.324613,0.01485 0.278063,0.01814 -0.262958,0.01863 -0.435019,3.86e-4 -0.568445,-0.0065 -0.394437,-0.02023 z"
       id="path2"
       transform="scale(6.8791665)" />
  </g>
</svg>
