<?xml version="1.0" encoding="UTF-8" standalone="no"?>
<svg
   width="26"
   height="26"
   viewBox="0 0 178.85833 178.85833"
   version="1.1"
   id="svg1454"
   inkscape:version="1.3.2 (091e20ef0f, 2023-11-25, custom)"
   sodipodi:docname="scale-slider-dark.svg"
   xmlns:inkscape="http://www.inkscape.org/namespaces/inkscape"
   xmlns:sodipodi="http://sodipodi.sourceforge.net/DTD/sodipodi-0.dtd"
   xmlns="http://www.w3.org/2000/svg"
   xmlns:svg="http://www.w3.org/2000/svg"
   xmlns:rdf="http://www.w3.org/1999/02/22-rdf-syntax-ns#"
   xmlns:cc="http://creativecommons.org/ns#"
   xmlns:dc="http://purl.org/dc/elements/1.1/">
  <defs
     id="defs1448" />
  <sodipodi:namedview
     id="base"
     pagecolor="#ffffff"
     bordercolor="#666666"
     borderopacity="1.0"
     inkscape:pageopacity="0.0"
     inkscape:pageshadow="2"
     inkscape:zoom="30.423077"
     inkscape:cx="13.016435"
     inkscape:cy="13"
     inkscape:document-units="mm"
     inkscape:current-layer="layer1"
     inkscape:document-rotation="0"
     showgrid="true"
     units="px"
     inkscape:window-width="1366"
     inkscape:window-height="737"
     inkscape:window-x="0"
     inkscape:window-y="0"
     inkscape:window-maximized="1"
     inkscape:showpageshadow="2"
     inkscape:pagecheckerboard="0"
     inkscape:deskcolor="#d1d1d1">
    <inkscape:grid
       type="xygrid"
       id="grid2037"
       originx="0"
       originy="0"
       spacingy="1"
       spacingx="1"
       units="px"
       visible="true" />
  </sodipodi:namedview>
  <metadata
     id="metadata1451">
    <rdf:RDF>
      <cc:Work
         rdf:about="">
        <dc:format>image/svg+xml</dc:format>
        <dc:type
           rdf:resource="http://purl.org/dc/dcmitype/StillImage" />
      </cc:Work>
    </rdf:RDF>
  </metadata>
  <g
     inkscape:label="Layer 1"
     inkscape:groupmode="layer"
     id="layer1">
    <path
       inkscape:connector-curvature="0"
       style="fill:#505050;fill-opacity:1;stroke:#303030;stroke-width:6.87916654;stroke-linecap:butt;stroke-linejoin:miter;stroke-miterlimit:4;stroke-dasharray:none;stroke-opacity:1"
       d="m 133.92425,166.90971 c 7.54155,0.0306 19.22948,-12.89576 19.22948,-20.43198 V 87.347125 L 89.429198,14.570995 25.70465,87.347125 v 59.130605 c 0,7.53622 12.173437,20.04926 19.714971,20.07928 z"
       id="path377"
       sodipodi:nodetypes="sscccsss" />
    <path
       style="opacity:1;fill:#dcdcdc;stroke-width:0.0328698"
       d="M 10.978508,23.717422 6.4424779,23.699115 6.1630847,23.564529 C 5.4666922,23.22907 4.7179475,22.468953 4.3789975,21.753345 L 4.273072,21.529709 4.2649282,17.207332 4.2567843,12.884956 8.6201747,7.8988043 C 11.020039,5.1564208 12.992607,2.9155232 13.003658,2.9190317 c 0.01105,0.00351 1.981908,2.2472768 4.379681,4.9861516 l 4.359586,4.9797727 2.19e-4,4.261926 c 2.09e-4,4.072447 -0.0025,4.270713 -0.0613,4.459582 -0.21432,0.688612 -1.042256,1.63191 -1.758997,2.004092 l -0.233847,0.121429 -2.087231,0.0019 c -1.147977,10e-4 -4.128445,-0.0064 -6.623262,-0.01644 z"
       id="path1"
       transform="scale(6.8791665)" />
    <path
       style="opacity:1;fill:#dcdcdc;stroke-width:0.0328698"
       d="M 8.3324905,23.6832 6.4096081,23.666245 6.1466498,23.530144 C 5.457987,23.173709 4.7652524,22.474027 4.42349,21.789703 L 4.2906838,21.52378 4.2882932,17.204368 4.2859026,12.884956 5.6928881,11.274855 C 10.315068,5.9854066 12.965808,2.9747155 13.000682,2.9747155 c 0.03356,0 2.09637,2.3437914 7.749476,8.8050445 l 0.959862,1.097081 0.0085,2.124158 c 0.0046,1.168288 0.0011,3.122579 -0.008,4.342869 l -0.01644,2.218711 -0.122403,0.256345 c -0.328839,0.688674 -0.967529,1.376027 -1.628743,1.752835 l -0.252319,0.143791 -4.71761,-0.0077 C 12.37832,23.70365 9.3900978,23.69252 8.3325125,23.6832 Z"
       id="path2"
       transform="scale(6.8791665)" />
  </g>
</svg>
