<?xml version="1.0" encoding="UTF-8" standalone="no"?>
<svg
   width="52"
   height="52"
   viewBox="0 0 357.71666 357.71666"
   version="1.1"
   id="svg1454"
   inkscape:version="1.3.2 (091e20ef0f, 2023-11-25, custom)"
   sodipodi:docname="scale-slider-disabled-dark@2.svg"
   xmlns:inkscape="http://www.inkscape.org/namespaces/inkscape"
   xmlns:sodipodi="http://sodipodi.sourceforge.net/DTD/sodipodi-0.dtd"
   xmlns="http://www.w3.org/2000/svg"
   xmlns:svg="http://www.w3.org/2000/svg"
   xmlns:rdf="http://www.w3.org/1999/02/22-rdf-syntax-ns#"
   xmlns:cc="http://creativecommons.org/ns#"
   xmlns:dc="http://purl.org/dc/elements/1.1/">
  <defs
     id="defs1448" />
  <sodipodi:namedview
     id="base"
     pagecolor="#ffffff"
     bordercolor="#666666"
     borderopacity="1.0"
     inkscape:pageopacity="0.0"
     inkscape:pageshadow="2"
     inkscape:zoom="15.211538"
     inkscape:cx="25.967131"
     inkscape:cy="25.934261"
     inkscape:document-units="mm"
     inkscape:current-layer="layer1"
     inkscape:document-rotation="0"
     showgrid="true"
     units="px"
     inkscape:window-width="1366"
     inkscape:window-height="737"
     inkscape:window-x="0"
     inkscape:window-y="0"
     inkscape:window-maximized="1"
     inkscape:showpageshadow="2"
     inkscape:pagecheckerboard="0"
     inkscape:deskcolor="#d1d1d1">
    <inkscape:grid
       type="xygrid"
       id="grid2037"
       originx="0"
       originy="0"
       spacingy="1"
       spacingx="1"
       units="px"
       visible="true" />
  </sodipodi:namedview>
  <metadata
     id="metadata1451">
    <rdf:RDF>
      <cc:Work
         rdf:about="">
        <dc:format>image/svg+xml</dc:format>
        <dc:type
           rdf:resource="http://purl.org/dc/dcmitype/StillImage" />
      </cc:Work>
    </rdf:RDF>
  </metadata>
  <g
     inkscape:label="Layer 1"
     inkscape:groupmode="layer"
     id="layer1">
    <path
       inkscape:connector-curvature="0"
       style="fill:#f9f9f9;fill-opacity:0;stroke:#404040;stroke-width:13.7583;stroke-linecap:butt;stroke-linejoin:miter;stroke-miterlimit:4;stroke-dasharray:none;stroke-opacity:1"
       d="m 267.66148,333.17078 c 15.0831,0.0612 38.45896,-25.79152 38.45896,-40.86396 V 174.04561 L 178.67137,28.493339 51.222257,174.04561 v 118.26121 c 0,15.07244 24.346874,40.09852 39.429942,40.15856 z"
       id="path377"
       sodipodi:nodetypes="sscccsss" />
    <path
       style="opacity:0.08;fill:#dcdcdc;stroke-width:0.0657396"
       d="M 25.638433,47.358177 C 13.190657,47.299607 13.010859,47.296936 12.612453,47.164659 11.725084,46.870038 10.264266,45.676468 9.4388657,44.571661 9.0088367,43.996062 8.5983695,43.168769 8.5128652,42.705314 8.4717975,42.482717 8.447535,39.266059 8.447535,34.044016 v -8.307194 l 8.749974,-9.992098 c 4.812485,-5.495655 8.775624,-9.976247 8.806974,-9.9568714 0.03135,0.019376 3.977681,4.5130094 8.769623,9.9858524 l 8.712621,9.950625 v 8.407209 c 0,9.363408 0.02994,8.735048 -0.461158,9.677046 -0.741659,1.422599 -2.424743,3.069915 -3.530363,3.455336 -0.172932,0.06028 -0.521501,0.119516 -0.774598,0.131627 -0.253097,0.01211 -6.140076,-0.0047 -13.082175,-0.03737 z"
       id="path1"
       transform="scale(6.8791665)" />
    <path
       style="opacity:1;fill:#dcdcdc;stroke-width:0.0657396"
       d="m 38.139985,47.390875 c -0.0061,-0.0041 -5.380313,-0.02783 -11.942765,-0.05266 -10.639059,-0.04026 -13.078673,-0.06412 -13.414091,-0.131146 -0.204335,-0.04084 -0.73547,-0.271821 -0.884266,-0.384559 -0.03616,-0.02739 -0.287611,-0.209431 -0.558787,-0.404524 -0.788854,-0.567531 -2.1694057,-2.000003 -2.1694057,-2.250994 0,-0.04271 -0.022187,-0.08751 -0.049305,-0.09956 -0.081397,-0.03618 -0.4180143,-0.761698 -0.5393812,-1.162545 -0.1045183,-0.3452 -0.1143526,-1.030184 -0.1256913,-8.754735 -0.00677,-4.609129 0.010683,-8.413756 0.038775,-8.454727 0.028092,-0.04097 0.2314082,-0.277633 0.4518138,-0.525916 0.2204057,-0.248283 1.3432564,-1.531196 2.4952224,-2.850918 1.151967,-1.319722 2.125365,-2.431592 2.163106,-2.470822 0.03774,-0.03923 0.231326,-0.259413 0.430189,-0.489296 0.581031,-0.671666 3.177289,-3.63995 3.251805,-3.717766 0.03742,-0.03908 0.230748,-0.258502 0.429611,-0.487601 0.979812,-1.128791 1.348945,-1.547898 1.390163,-1.578365 0.02482,-0.01835 0.128949,-0.138816 0.231401,-0.267711 0.16229,-0.204181 0.913546,-1.063131 1.110375,-1.26955 0.0946,-0.09921 1.103182,-1.249896 1.508263,-1.72077 0.180784,-0.210147 0.465455,-0.5317865 0.632603,-0.7147547 0.167149,-0.1829683 0.38902,-0.4354245 0.493047,-0.5610139 0.104028,-0.1255893 0.233516,-0.275908 0.287751,-0.3340416 0.392378,-0.4205821 1.101526,-1.2222668 1.180213,-1.3342183 0.05253,-0.074738 0.193049,-0.2215276 0.312263,-0.3261989 0.119214,-0.1046714 0.216997,-0.2094341 0.217295,-0.2328061 2.99e-4,-0.023372 0.22217,-0.2769558 0.493047,-0.5635196 0.270877,-0.2865637 0.492504,-0.4848756 0.492504,-0.4406931 0,0.044183 0.125727,0.2164767 0.279394,0.3828759 0.413542,0.4478083 0.640275,0.6997164 0.969658,1.0773229 0.162706,0.186526 0.369785,0.4197052 0.460177,0.5181759 0.139414,0.1518738 0.355311,0.397119 0.986094,1.1201394 0.05423,0.062166 0.246523,0.2844545 0.427307,0.493975 0.180784,0.2095205 0.398145,0.4576715 0.483025,0.5514468 0.08488,0.093775 0.306751,0.3454823 0.493047,0.5593503 0.186296,0.213867 0.368302,0.421502 0.404459,0.461411 0.101849,0.112418 0.569719,0.6436 0.788656,0.895377 0.10835,0.124602 0.522509,0.598033 0.920354,1.052069 0.397845,0.454035 0.88606,1.013594 1.084922,1.243464 0.198862,0.229869 0.392187,0.450042 0.429611,0.489272 0.09551,0.100123 2.847046,3.248306 3.73339,4.27158 0.06601,0.07621 0.199132,0.228118 0.295828,0.337578 0.0967,0.109461 0.382628,0.434872 0.635405,0.723136 0.252777,0.288264 0.476206,0.538907 0.496509,0.556985 0.03152,0.02807 2.401542,2.736236 3.08688,3.527306 0.681956,0.787165 0.977393,1.123059 1.200644,1.365056 l 0.247419,0.268195 -0.0097,8.463448 c -0.0082,7.104133 -0.02474,8.513684 -0.103184,8.776233 -0.115013,0.384965 -0.560993,1.329327 -0.628442,1.330726 -0.02712,5.62e-4 -0.04931,0.04024 -0.04931,0.08817 0,0.04793 -0.07396,0.156629 -0.164349,0.241548 -0.09039,0.08492 -0.164349,0.176924 -0.164349,0.204457 0,0.10563 -1.226138,1.395626 -1.617738,1.70199 -0.391525,0.306305 -0.874685,0.593732 -1.210619,0.720185 -0.175128,0.06592 -1.343026,0.199271 -1.400812,0.159943 z"
       id="path2"
       transform="scale(6.8791665)" />
    <path
       style="opacity:1;fill:#dcdcdc;stroke-width:0.0657396"
       d="m 33.395703,47.355732 c -1.193174,-0.02338 -4.964982,-0.04735 -8.381796,-0.05328 -3.416814,-0.0059 -7.573199,-0.03135 -9.23641,-0.05648 l -3.02402,-0.04569 -0.427307,-0.20491 C 11.688639,46.689646 10.942255,46.095027 10.038448,45.172816 9.5937275,44.719039 9.2310352,44.324135 9.2324647,44.29525 9.2338942,44.266365 9.1006838,43.976487 8.9364416,43.651076 8.7353652,43.252686 8.6179097,42.919838 8.5768688,42.632113 8.54199,42.387587 8.5162186,38.675709 8.5166205,33.954489 l 7.023e-4,-8.250316 5.5271812,-6.310999 C 21.510933,10.86792 23.053712,9.1125796 24.093553,7.9595836 24.58167,7.4183507 25.19802,6.7282321 25.463221,6.4259868 c 0.265201,-0.3022454 0.507701,-0.540512 0.53889,-0.5294812 0.09091,0.032152 0.813473,0.8460638 5.445439,6.1338364 2.407109,2.747914 6.048881,6.90074 8.092825,9.228502 2.043945,2.327762 3.76499,4.295019 3.824544,4.371682 0.09979,0.128454 0.104923,0.812281 0.06547,8.7184 l -0.04281,8.579015 -0.313481,0.652895 c -0.364439,0.759028 -0.537605,1.008069 -1.295322,1.862889 -1.068048,1.20492 -1.874431,1.732208 -2.829148,1.849955 -0.735024,0.09065 -2.874091,0.114551 -5.553932,0.06205 z"
       id="path3"
       transform="scale(6.8791665)" />
    <path
       style="opacity:1;fill:#c8c8c8;stroke-width:0.0657396;fill-opacity:1"
       d="m 33.264224,47.362282 c -1.265487,-0.01977 -5.037295,-0.04332 -8.381796,-0.05234 -5.781998,-0.01558 -9.775685,-0.05042 -11.438685,-0.09977 -0.670831,-0.01991 -0.796741,-0.04302 -1.117573,-0.20509 C 11.677234,46.677259 10.927926,46.07864 10.090043,45.218647 9.3329193,44.441544 9.2422026,44.321217 8.9523462,43.709604 8.7516105,43.28604 8.6153496,42.892633 8.5766466,42.624901 8.5420813,42.385792 8.5156714,38.650385 8.5153452,33.954489 l -5.73e-4,-8.250316 4.9210828,-5.620734 c 2.706596,-3.091403 4.917574,-5.636315 4.913284,-5.655361 -0.0043,-0.01904 0.11871,-0.148921 0.273332,-0.288612 0.154622,-0.139692 0.271904,-0.263212 0.260626,-0.274489 -0.01128,-0.01128 0.194136,-0.248048 0.456473,-0.526157 0.262339,-0.278108 0.463242,-0.527878 0.446452,-0.555044 -0.01679,-0.02717 0.0089,-0.06451 0.057,-0.08298 0.04814,-0.01847 1.162544,-1.256656 2.476448,-2.7515157 1.313905,-1.49486 2.526935,-2.8658414 2.695624,-3.0466252 0.168687,-0.1807838 0.460223,-0.4914033 0.647855,-0.6902655 L 26.0041,5.8508219 26.248571,6.1219783 c 0.57008,0.6323037 2.69561,3.0321594 2.906925,3.2820991 0.269456,0.3187068 9.332961,10.6685636 9.639903,11.0080596 0.114413,0.126549 1.217352,1.382407 2.450975,2.790797 l 2.242952,2.560707 -0.03634,8.154843 c -0.01998,4.485163 -0.05267,8.36924 -0.07263,8.631281 -0.02943,0.386231 -0.09228,0.591608 -0.331963,1.084703 -0.347409,0.714714 -0.529665,0.976185 -1.242758,1.782911 -1.074339,1.215403 -1.901855,1.75893 -2.856004,1.87587 -0.723562,0.08868 -2.808058,0.11399 -5.685411,0.06903 z"
       id="path4"
       transform="scale(6.8791665)" />
    <path
       style="opacity:1;fill:#c8c8c8;fill-opacity:1;stroke-width:0.0657396"
       d="m 24.389381,47.290353 c -4.91732,-0.02937 -9.578319,-0.07764 -10.357776,-0.107267 l -1.417194,-0.05386 -0.390644,-0.219358 C 11.602193,46.560834 10.839119,45.930392 10.045066,45.109853 9.4082505,44.451796 9.2688257,44.266441 9.0124869,43.737115 8.8494919,43.40054 8.6866268,42.991206 8.6505643,42.827485 8.6102278,42.64436 8.5679519,39.305083 8.540704,34.149862 l -0.044292,-8.37995 4.199329,-4.801092 c 2.309631,-2.640601 4.52474,-5.183293 4.922464,-5.650427 0.397725,-0.467135 0.841467,-0.970425 0.986094,-1.118423 0.144627,-0.147999 0.470038,-0.514671 0.723135,-0.814828 0.253098,-0.300157 0.742897,-0.860901 1.088442,-1.246098 0.345546,-0.385197 1.555122,-1.750548 2.687947,-3.0341133 2.052065,-2.3251253 2.816987,-3.1554994 2.906774,-3.1554994 0.0633,0 2.170356,2.3789009 7.394859,8.3489257 2.38894,2.729836 5.62683,6.4259 7.19531,8.213475 l 2.851781,3.250138 -0.02327,6.643668 c -0.0128,3.654018 -0.04278,7.531152 -0.06662,8.615855 l -0.04335,1.972187 -0.300744,0.624526 c -0.35954,0.74662 -0.737308,1.259542 -1.557242,2.114373 -0.693652,0.723175 -1.310093,1.173411 -1.886095,1.377565 -0.763012,0.270436 -0.534524,0.267724 -15.185841,0.180209 z"
       id="path5"
       transform="scale(6.8791665)" />
  </g>
</svg>
