<?xml version="1.0" encoding="UTF-8" standalone="no"?>
<svg
   width="52"
   height="52"
   viewBox="0 0 357.71666 357.71666"
   version="1.1"
   id="svg1454"
   inkscape:version="1.3.2 (091e20ef0f, 2023-11-25, custom)"
   sodipodi:docname="scale-slider-dark@2.svg"
   xmlns:inkscape="http://www.inkscape.org/namespaces/inkscape"
   xmlns:sodipodi="http://sodipodi.sourceforge.net/DTD/sodipodi-0.dtd"
   xmlns="http://www.w3.org/2000/svg"
   xmlns:svg="http://www.w3.org/2000/svg"
   xmlns:rdf="http://www.w3.org/1999/02/22-rdf-syntax-ns#"
   xmlns:cc="http://creativecommons.org/ns#"
   xmlns:dc="http://purl.org/dc/elements/1.1/">
  <defs
     id="defs1448" />
  <sodipodi:namedview
     id="base"
     pagecolor="#ffffff"
     bordercolor="#666666"
     borderopacity="1.0"
     inkscape:pageopacity="0.0"
     inkscape:pageshadow="2"
     inkscape:zoom="15.211538"
     inkscape:cx="25.967131"
     inkscape:cy="25.934261"
     inkscape:document-units="mm"
     inkscape:current-layer="layer1"
     inkscape:document-rotation="0"
     showgrid="true"
     units="px"
     inkscape:window-width="1366"
     inkscape:window-height="737"
     inkscape:window-x="0"
     inkscape:window-y="0"
     inkscape:window-maximized="1"
     inkscape:showpageshadow="2"
     inkscape:pagecheckerboard="0"
     inkscape:deskcolor="#d1d1d1">
    <inkscape:grid
       type="xygrid"
       id="grid2037"
       originx="0"
       originy="0"
       spacingy="1"
       spacingx="1"
       units="px"
       visible="true" />
  </sodipodi:namedview>
  <metadata
     id="metadata1451">
    <rdf:RDF>
      <cc:Work
         rdf:about="">
        <dc:format>image/svg+xml</dc:format>
        <dc:type
           rdf:resource="http://purl.org/dc/dcmitype/StillImage" />
      </cc:Work>
    </rdf:RDF>
  </metadata>
  <g
     inkscape:label="Layer 1"
     inkscape:groupmode="layer"
     id="layer1">
    <path
       inkscape:connector-curvature="0"
       style="fill:#505050;fill-opacity:1;stroke:#303030;stroke-width:13.7583;stroke-linecap:butt;stroke-linejoin:miter;stroke-miterlimit:4;stroke-dasharray:none;stroke-opacity:1"
       d="m 267.66148,333.17078 c 15.0831,0.0612 38.45896,-25.79152 38.45896,-40.86396 V 174.04561 L 178.67137,28.493339 51.222257,174.04561 v 118.26121 c 0,15.07244 24.346874,40.09852 39.429942,40.15856 z"
       id="path377"
       sodipodi:nodetypes="sscccsss" />
    <path
       style="opacity:1;fill:#dcdcdc;stroke-width:0.0657396"
       d="m 26.591657,47.362831 c -6.381669,-0.03021 -12.109632,-0.06419 -12.728806,-0.0755 L 12.73708,47.266752 12.179847,46.984043 C 10.813838,46.291002 9.2723336,44.669471 8.6676468,43.289508 l -0.187242,-0.427307 -0.017862,-8.56621 -0.017862,-8.56621 3.4346282,-3.924309 c 1.889045,-2.158369 5.833007,-6.662523 8.76436,-10.00923 L 25.9734,5.7113201 26.898588,6.7671646 c 0.508853,0.5807145 4.44901,5.0791064 8.755905,9.9964264 l 7.830716,8.940582 -2.1e-5,8.447535 c -2.4e-5,9.315648 0.02604,8.726374 -0.425281,9.614759 -0.336121,0.661622 -0.758116,1.234017 -1.411886,1.915083 -0.673523,0.701647 -1.251379,1.151633 -1.874112,1.459404 -0.394952,0.195196 -0.543903,0.232064 -1.020822,0.252673 -0.307117,0.01327 -5.779761,-5.86e-4 -12.16143,-0.0308 z"
       id="path1"
       transform="scale(6.8791665)" />
    <path
       style="opacity:1;fill:#dcdcdc;stroke-width:0.0657396"
       d="m 19.787611,47.300328 -6.968394,-0.04256 -0.592244,-0.306243 C 10.849208,46.2391 9.4421773,44.788182 8.7713468,43.388118 l -0.2519889,-0.525917 -0.01564,-8.559962 -0.01564,-8.559962 4.5321941,-5.177483 c 2.492707,-2.847616 6.427698,-7.340966 8.744425,-9.985222 l 4.21223,-4.8077378 2.796585,3.1949933 c 1.538122,1.7572465 5.463036,6.2390235 8.722031,9.9595055 l 5.925445,6.764511 -0.0013,8.322721 c -7.94e-4,5.077759 -0.02641,8.496333 -0.06569,8.768006 -0.194772,1.346968 -2.08779,3.596069 -3.647292,4.333361 l -0.460177,0.21756 -6.24526,0.0052 c -3.434892,0.0029 -9.381037,-0.01395 -13.213654,-0.03736 z"
       id="path2"
       transform="scale(6.8791665)" />
  </g>
</svg>
