<?xml version="1.0" encoding="UTF-8" standalone="no"?>
<svg
   width="26"
   height="26"
   viewBox="0 0 178.85833 178.85833"
   version="1.1"
   id="svg1454"
   inkscape:version="1.3.2 (091e20ef0f, 2023-11-25, custom)"
   sodipodi:docname="scale-slider-disabled.svg"
   xmlns:inkscape="http://www.inkscape.org/namespaces/inkscape"
   xmlns:sodipodi="http://sodipodi.sourceforge.net/DTD/sodipodi-0.dtd"
   xmlns="http://www.w3.org/2000/svg"
   xmlns:svg="http://www.w3.org/2000/svg"
   xmlns:rdf="http://www.w3.org/1999/02/22-rdf-syntax-ns#"
   xmlns:cc="http://creativecommons.org/ns#"
   xmlns:dc="http://purl.org/dc/elements/1.1/">
  <defs
     id="defs1448" />
  <sodipodi:namedview
     id="base"
     pagecolor="#ffffff"
     bordercolor="#666666"
     borderopacity="1.0"
     inkscape:pageopacity="0.0"
     inkscape:pageshadow="2"
     inkscape:zoom="30.423077"
     inkscape:cx="13.016435"
     inkscape:cy="13"
     inkscape:document-units="mm"
     inkscape:current-layer="layer1"
     inkscape:document-rotation="0"
     showgrid="true"
     units="px"
     inkscape:window-width="1366"
     inkscape:window-height="737"
     inkscape:window-x="0"
     inkscape:window-y="0"
     inkscape:window-maximized="1"
     inkscape:showpageshadow="2"
     inkscape:pagecheckerboard="0"
     inkscape:deskcolor="#d1d1d1">
    <inkscape:grid
       type="xygrid"
       id="grid2037"
       originx="0"
       originy="0"
       spacingy="1"
       spacingx="1"
       units="px"
       visible="true" />
  </sodipodi:namedview>
  <metadata
     id="metadata1451">
    <rdf:RDF>
      <cc:Work
         rdf:about="">
        <dc:format>image/svg+xml</dc:format>
        <dc:type
           rdf:resource="http://purl.org/dc/dcmitype/StillImage" />
      </cc:Work>
    </rdf:RDF>
  </metadata>
  <g
     inkscape:label="Layer 1"
     inkscape:groupmode="layer"
     id="layer1">
    <path
       inkscape:connector-curvature="0"
       style="fill:#f9f9f9;fill-opacity:1;stroke:#e3e3e3;stroke-width:6.88999985;stroke-linecap:butt;stroke-linejoin:miter;stroke-miterlimit:4;stroke-dasharray:none;stroke-opacity:1"
       d="m 133.92425,166.90971 c 7.54155,0.0306 19.22948,-12.89576 19.22948,-20.43198 V 87.347125 L 89.429198,14.570995 25.70465,87.347125 v 59.130605 c 0,7.53622 12.173437,20.04926 19.714971,20.07928 z"
       id="path377"
       sodipodi:nodetypes="sscccsss" />
    <path
       style="opacity:1;fill:#c8c8c8;stroke-width:0.0328698;fill-opacity:1"
       d="M 11.093552,23.715598 C 5.913257,23.692824 6.3811051,23.717244 5.9352044,23.44635 5.300325,23.060648 4.6770256,22.382557 4.3789975,21.753345 L 4.273072,21.529709 4.2643814,17.20557 4.2556908,12.881432 4.54547,12.554496 c 0.311602,-0.351557 7.476043,-8.5343651 8.076527,-9.2245404 0.198863,-0.2285651 0.370436,-0.4130916 0.381274,-0.4100588 0.01084,0.00303 1.981662,2.2464117 4.379609,4.9852865 l 4.359904,4.9797727 2.9e-4,4.261392 c 2.82e-4,4.155515 -0.0013,4.266631 -0.06483,4.472236 -0.213699,0.691876 -1.090211,1.672143 -1.792496,2.004678 l -0.229613,0.108723 -1.972187,0.002 c -1.084703,0.0011 -4.050379,-0.0072 -6.590392,-0.01834 z"
       id="path1"
       transform="scale(6.8791665)" />
    <path
       style="opacity:1;fill:#c8c8c8;fill-opacity:1;stroke-width:0.0328698"
       d="M 8.6776232,23.681071 C 6.910486,23.663642 6.4428746,23.65001 6.3109987,23.612081 6.2206068,23.586084 6.0142021,23.4767 5.8523215,23.369006 5.2750433,22.984961 4.6934268,22.343743 4.4225042,21.792667 l -0.129277,-0.262958 -0.00813,-4.3199 -0.00813,-4.3199 4.156082,-4.7478713 C 12.831555,3.117219 12.957507,2.9747155 13.00018,2.9747155 c 0.03336,0 1.011629,1.1082843 5.077418,5.7522124 1.733138,1.9795831 3.269012,3.7323641 3.413055,3.8950691 l 0.261894,0.295829 -0.02256,4.239452 c -0.01393,2.61712 -0.03514,4.296343 -0.05543,4.388117 -0.143315,0.648199 -1.084192,1.719802 -1.817127,2.069599 l -0.210695,0.100556 -4.383417,-0.0064 C 12.852438,23.70565 9.8888768,23.693 8.6776252,23.68105 Z"
       id="path2"
       transform="scale(6.8791665)" />
  </g>
</svg>
