<?xml version="1.0" encoding="UTF-8" standalone="no"?>
<svg
   width="52"
   height="52"
   viewBox="0 0 357.71666 357.71666"
   version="1.1"
   id="svg1454"
   inkscape:version="1.3.2 (091e20ef0f, 2023-11-25, custom)"
   sodipodi:docname="scale-slider-disabled@2.svg"
   xmlns:inkscape="http://www.inkscape.org/namespaces/inkscape"
   xmlns:sodipodi="http://sodipodi.sourceforge.net/DTD/sodipodi-0.dtd"
   xmlns="http://www.w3.org/2000/svg"
   xmlns:svg="http://www.w3.org/2000/svg"
   xmlns:rdf="http://www.w3.org/1999/02/22-rdf-syntax-ns#"
   xmlns:cc="http://creativecommons.org/ns#"
   xmlns:dc="http://purl.org/dc/elements/1.1/">
  <defs
     id="defs1448" />
  <sodipodi:namedview
     id="base"
     pagecolor="#ffffff"
     bordercolor="#666666"
     borderopacity="1.0"
     inkscape:pageopacity="0.0"
     inkscape:pageshadow="2"
     inkscape:zoom="15.211538"
     inkscape:cx="25.967131"
     inkscape:cy="25.934261"
     inkscape:document-units="mm"
     inkscape:current-layer="layer1"
     inkscape:document-rotation="0"
     showgrid="true"
     units="px"
     inkscape:window-width="1366"
     inkscape:window-height="737"
     inkscape:window-x="0"
     inkscape:window-y="0"
     inkscape:window-maximized="1"
     inkscape:showpageshadow="2"
     inkscape:pagecheckerboard="0"
     inkscape:deskcolor="#d1d1d1">
    <inkscape:grid
       type="xygrid"
       id="grid2037"
       originx="0"
       originy="0"
       spacingy="1"
       spacingx="1"
       units="px"
       visible="true" />
  </sodipodi:namedview>
  <metadata
     id="metadata1451">
    <rdf:RDF>
      <cc:Work
         rdf:about="">
        <dc:format>image/svg+xml</dc:format>
        <dc:type
           rdf:resource="http://purl.org/dc/dcmitype/StillImage" />
      </cc:Work>
    </rdf:RDF>
  </metadata>
  <g
     inkscape:label="Layer 1"
     inkscape:groupmode="layer"
     id="layer1">
    <path
       inkscape:connector-curvature="0"
       style="fill:#f9f9f9;fill-opacity:1;stroke:#e3e3e3;stroke-width:13.7583;stroke-linecap:butt;stroke-linejoin:miter;stroke-miterlimit:4;stroke-dasharray:none;stroke-opacity:1"
       d="m 267.66148,333.17078 c 15.0831,0.0612 38.45896,-25.79152 38.45896,-40.86396 V 174.04561 L 178.67137,28.493339 51.222257,174.04561 v 118.26121 c 0,15.07244 24.346874,40.09852 39.429942,40.15856 z"
       id="path377"
       sodipodi:nodetypes="sscccsss" />
    <path
       style="opacity:1;fill:#c8c8c8;stroke-width:0.0657396;fill-opacity:1"
       d="m 26.591657,47.362658 c -6.381669,-0.03011 -12.109632,-0.06401 -12.728806,-0.07533 L 12.73708,47.266752 12.179847,46.984043 C 10.576725,46.170703 8.7641606,44.086509 8.5143434,42.769228 8.4711638,42.541542 8.4488393,39.46147 8.4512229,34.06056 l 0.00369,-8.356387 3.8913821,-4.441222 c 2.14026,-2.442672 6.082442,-6.941746 8.760406,-9.997943 l 4.869024,-5.5567207 8.754806,9.9979427 8.754806,9.997943 -8.5e-5,8.447535 c -8.9e-5,9.006699 0.01077,8.684863 -0.318019,9.428137 -0.386853,0.874546 -1.580771,2.308892 -2.505447,3.009988 -0.233997,0.177418 -0.637924,0.427588 -0.897615,0.555935 -0.40812,0.201704 -0.546586,0.235953 -1.020822,0.2525 -0.30176,0.01053 -5.770021,-0.0055 -12.15169,-0.03561 z"
       id="path1"
       transform="scale(6.8791665)" />
  </g>
</svg>
