/* XPM */
static char *graphic[] = {
"4 6 3 1",
". c #444444",
", c #656667",
"- c #262626",
"....",
",,,,",
",,,,",
",,,,",
",,,,",
"----"}
