/* XPM */
static char *graphic[] = {
"31 24 225 2",
".. c #1B2231",
"., c #8793A4",
".- c #8893A4",
".* c #55657D",
".a c #54667D",
".b c #52637B",
".c c #2B3443",
".d c #4F6079",
".e c #7C899B",
".f c #65748A",
".g c #637288",
".h c #627188",
".i c #647389",
".j c #7A879A",
".k c #4B5D76",
".l c #223857",
".m c #1D3353",
".n c #243958",
".o c #778598",
".p c #485973",
".q c #788598",
".r c #748195",
".s c #465771",
".t c #768396",
".u c #213756",
".v c #1C2B43",
".w c #1B2334",
".x c #1C2B45",
".y c #1C2C44",
".z c #1C2B44",
".A c #717F93",
".B c #445671",
".C c #738194",
".D c #1D3352",
".E c #1C2639",
".F c #8F939A",
".G c #FFFFFF",
".H c #DFE0E2",
".I c #282F3E",
".J c #1C2C46",
".K c #29303F",
".L c #E0E1E3",
".M c #898D94",
".N c #1C263A",
".O c #1F3455",
".P c #1F3556",
".Q c #203656",
".R c #263C5B",
".S c #707E93",
".T c #435671",
".U c #717F94",
".V c #243A5A",
".W c #213757",
".X c #213758",
".Y c #223858",
".Z c #213653",
".0 c #1E2636",
".1 c #C1C3C7",
".2 c #B3B5BA",
".3 c #1C2332",
".4 c #B5B7BC",
".5 c #C3C5C9",
".6 c #1F2737",
".7 c #223656",
".8 c #23395A",
".9 c #243A5B",
".@ c #2A3F60",
".# c #707F94",
".; c #435672",
".: c #718095",
".= c #293F5E",
".+ c #253B5B",
".% c #253B5C",
".$ c #263C5C",
".( c #233451",
".) c #303745",
".[ c #E9E9EB",
".] c #C2C4C8",
",. c #E6E7E8",
",, c #2D3441",
",- c #243652",
",* c #283E5E",
",a c #283E5F",
",b c #2F4463",
",c c #6F7E94",
",d c #425671",
",e c #2D4362",
",f c #293F60",
",g c #2A4060",
",h c #2A4061",
",i c #223148",
",j c #545965",
",k c #FCFCFD",
",l c #FBFCFC",
",m c #4F5460",
",n c #23324A",
",o c #2C4262",
",p c #2C4263",
",q c #2D4363",
",r c #2D4364",
",s c #324768",
",t c #707F95",
",u c #2C4261",
",v c #718096",
",w c #314767",
",x c #2E4464",
",y c #2E4465",
",z c #2F4565",
",A c #233046",
",B c #616670",
",C c #FEFEFE",
",D c #636772",
",E c #243148",
",F c #304667",
",G c #314768",
",H c #364B6C",
",I c #707F96",
",J c #2F4564",
",K c #718097",
",L c #344A6A",
",M c #324869",
",N c #32486A",
",O c #33496A",
",P c #2B3B56",
",Q c #3B414E",
",R c #F2F2F3",
",S c #ABAEB3",
",T c #EFEFF0",
",U c #383E4B",
",V c #2C3D58",
",W c #344A6B",
",X c #344A6C",
",Y c #354B6C",
",Z c #3A4F70",
",0 c #707F97",
",1 c #324766",
",2 c #718199",
",3 c #384E6F",
",4 c #364C6D",
",5 c #364C6E",
",6 c #374D6E",
",7 c #324665",
",8 c #232A3A",
",9 c #D2D4D7",
",@ c #9EA1A7",
",# c #A5A7AD",
",; c #D0D1D4",
",: c #344867",
",= c #394F70",
",+ c #394F71",
",% c #3E5374",
",$ c #354A69",
",( c #72829A",
",) c #3D5373",
",[ c #3A5071",
",] c #3A5072",
"-. c #3B5172",
"-, c #202A3D",
"-- c #A3A6AC",
"-* c #31445E",
"-a c #242B3A",
"-b c #D3D5D7",
"-c c #9DA0A6",
"-d c #212C3E",
"-e c #3C5172",
"-f c #3D5375",
"-g c #3E5475",
"-h c #425779",
"-i c #71829B",
"-j c #384D6C",
"-k c #415778",
"-l c #3E5476",
"-m c #3F5576",
"-n c #3F5577",
"-o c #29354C",
"-p c #2A313F",
"-q c #212837",
"-r c #344460",
"-s c #405678",
"-t c #33435E",
"-u c #222937",
"-v c #2A374D",
"-w c #415779",
"-x c #425879",
"-y c #42587A",
"-z c #465B7D",
"-A c #3B506E",
"-B c #73839C",
"-C c #455B7C",
"-D c #43597B",
"-E c #445A7C",
"-F c #445A7D",
"-G c #455B7D",
"-H c #455B7E",
"-I c #465C7E",
"-J c #4A5F81",
"-K c #72829D",
"-L c #3E5371",
"-M c #74849E",
"-N c #485E81",
"-O c #475D7F",
"-P c #475D80",
"-Q c #485E80",
"-R c #495F81",
"-S c #495F82",
"-T c #4A6082",
"-U c #4A6083",
"-V c #4E6385",
"-W c #73849F",
"-X c #415674",
"-Y c #7485A0",
"-Z c #70829D",
"-0 c #70819C",
"-1 c #70819D",
"-2 c #71829D",
"-3 c #71829E",
"-4 c #70829E",
"-5 c #71829F",
"-6 c #72839F",
"-7 c #7586A1",
"-8 c #445976",
"-9 c #475B79",
"-@ c #4A5E7C",
"-# c #374251",
"-; c #374351",
"..............................................................",
".,.,.,.,.,.,.,.,.,.,.,.,.,.,.,.,.,.,.,.,.,.,.,.,.,.,.,.,.,.,.-",
".*.*.*.*.*.*.*.*.*.*.*.*.*.*.*.*.*.*.*.*.*.*.*.*.*.*.*.*.*.*.a",
".b...c.c.c.c.c.c.c.c.c.c.c.c.c.c.c.c.c.c.c.c.c.c.c.c.c.c.c.c..",
".d...e.f.g.g.g.g.g.g.g.g.g.g.g.g.g.g.g.g.g.g.g.g.h.h.h.h.i.j..",
".k...e.l.m.m.m.m.m.m.m.m.m.m.m.m.m.m.m.m.m.m.m.m.m.m.m.m.n.o..",
".p...q.l.m.m.m.m.m.m.m.m.m.m.m.m.m.m.m.m.m.m.m.m.m.m.m.m.n.r..",
".s...t.u.m.m.m.m.m.m.v.w.w.w.w.x.m.y.w.w.w.w.z.m.m.m.m.m.n.A..",
".B...C.u.m.m.m.m.m.m.D.E.F.G.H.I.J.K.L.G.M.N.O.P.Q.Q.Q.Q.R.S..",
".T...U.V.W.W.W.W.W.X.Y.Z.0.1.G.2.3.4.G.5.6.7.8.V.V.V.V.9.@.#..",
".;...:.=.+.+.%.%.%.$.$.$.(.).[.G.].G,.,,,-,*,*,*,a,a,a,a,b,c..",
",d...:,e,f,f,f,f,g,g,h,h,h,i,j,k.G,l,m,n,o,p,p,p,p,p,q,r,s,t..",
",u..,v,w,r,r,x,y,y,y,y,y,z,A,B,C.G,C,D,E,F,F,F,F,F,G,G,G,H,I..",
",J..,K,L,G,M,M,M,M,M,N,O,P,Q,R.G,S.G,T,U,V,W,X,Y,Y,Y,Y,Y,Z,0..",
",1..,2,3,4,4,4,4,5,5,6,7,8,9.G,@..,#.G,;,8,:,=,=,=,+,+,+,%,2..",
",$..,(,),[,],],]-.-.,Z-,--.G,;,8-*-a-b.G-c-d-e-f-f-f-f-g-h-i..",
"-j..,(-k-l-l-l-m-n-n-o..-p-p-q-r-s-t-u-p-p..-v-w-w-x-y-y-z-i..",
"-A..-B-C-y-y-D-D-D-D-D-D-E-E-E-E-E-F-G-G-G-G-G-H-I-I-I-I-J-K..",
"-L..-M-N-O-O-O-O-O-P-Q-Q-Q-Q-Q-N-N-R-R-R-R-S-S-T-T-T-U-U-V-W..",
"-X..-Y-Z-Z-0-1-1-1-2-2-2-3-1-1-2-2-2-4-4-4-3-3-3-5-5-5-6-6-7..",
"-8............................................................",
"-9-9-9-9-9-9-9-9-9-9-9-9-9-9-9-9-9-9-9-9-9-9-9-9-9-9-9-9-9-9-9",
"-@-@-@-@-@-@-@-@-@-@-@-@-@-@-@-@-@-@-@-@-@-@-@-@-@-@-@-@-@-@-@",
"-#-#-#-#-#-#-#-#-#-#-#-#-#-#-#-#-#-#-#-#-#-#-#-#-#-#-#-#-#-#-;"}
