/* XPM */
static char *graphic[] = {
"31 24 230 2",
".. c #262626",
"., c #949699",
".- c #939698",
".* c #939598",
".a c #66696D",
".b c #65686D",
".c c #63676B",
".d c #28292A",
".e c #5F6368",
".f c #888B8F",
".g c #7F8287",
".h c #7E8286",
".i c #7E8185",
".j c #86898D",
".k c #5C5F65",
".l c #8C8E92",
".m c #696D71",
".n c #65696E",
".o c #666A6F",
".p c #6A6E73",
".q c #84878B",
".r c #595C62",
".s c #898C90",
".t c #61656B",
".u c #62666B",
".v c #666A70",
".w c #828589",
".x c #575B5F",
".y c #85888D",
".z c #60646A",
".A c #5D6167",
".B c #5E6268",
".C c #424448",
".D c #292A2B",
".E c #46484D",
".F c #45484C",
".G c #43474A",
".H c #62666C",
".I c #57595E",
".J c #83868B",
".K c #5A5E64",
".L c #595D63",
".M c #313335",
".N c #949595",
".O c #FFFFFF",
".P c #E0E0E1",
".Q c #333435",
".R c #45474B",
".S c #343535",
".T c #E1E1E1",
".U c #8E8F8F",
".V c #333437",
".W c #5C6065",
".X c #61656A",
".Y c #7D8085",
".Z c #82858A",
".0 c #5C6066",
".1 c #595E63",
".2 c #595E64",
".3 c #54585D",
".4 c #2B2D2E",
".5 c #C4C4C5",
".6 c #B6B7B7",
".7 c #262728",
".8 c #B8B8B9",
".9 c #C6C6C6",
".@ c #2D2E2E",
".# c #575A60",
".; c #5C6167",
".: c #60656B",
".= c #7E8186",
".+ c #56595D",
".% c #81858A",
".$ c #5A5E65",
".( c #5A5F65",
".) c #5B5F65",
".[ c #4C5054",
".] c #3A3B3C",
",. c #EAEAEA",
",, c #C5C5C5",
",- c #E7E7E7",
",* c #373839",
",a c #4D5256",
",b c #5C6067",
",c c #56585D",
",d c #818489",
",e c #3E4245",
",f c #5C5C5D",
",g c #FCFCFC",
",h c #575758",
",i c #404447",
",j c #5D6168",
",k c #5D6268",
",l c #5D6269",
",m c #61656C",
",n c #7E8187",
",o c #43464A",
",p c #808388",
",q c #474C53",
",r c #434850",
",s c #434950",
",t c #444950",
",u c #444951",
",v c #444A51",
",w c #454A51",
",x c #323538",
",y c #686869",
",z c #FEFEFE",
",A c #696A6B",
",B c #333639",
",C c #464B53",
",D c #464C53",
",E c #474C54",
",F c #4B5058",
",G c #7F8388",
",H c #46494D",
",I c #808389",
",J c #494F56",
",K c #474D54",
",L c #474D55",
",M c #484D55",
",N c #3C3F45",
",O c #444545",
",P c #F2F2F2",
",Q c #AFAFAF",
",R c #F0F0F0",
",S c #404142",
",T c #3D4147",
",U c #494F57",
",V c #4A4F57",
",W c #4A5057",
",X c #4E545C",
",Y c #494D50",
",Z c #80848A",
",0 c #4D535B",
",1 c #4B5158",
",2 c #4B5159",
",3 c #4C5159",
",4 c #464A51",
",5 c #2D2E2F",
",6 c #D4D4D5",
",7 c #A2A2A3",
",8 c #252627",
",9 c #A9A9A9",
",@ c #D2D2D2",
",# c #2D2E30",
",; c #4E535B",
",: c #4E535C",
",= c #52575F",
",+ c #808489",
",% c #4D4F52",
",$ c #81858B",
",( c #4F545C",
",) c #4F545D",
",[ c #4F555D",
",] c #50555D",
"-. c #A7A7A8",
"-, c #2D2F30",
"-- c #43474D",
"-* c #D5D5D5",
"-a c #A1A1A2",
"-b c #2D2F32",
"-c c #525760",
"-d c #525860",
"-e c #535860",
"-f c #565B64",
"-g c #505255",
"-h c #82858B",
"-i c #565B63",
"-j c #535961",
"-k c #545961",
"-l c #545962",
"-m c #373A3D",
"-n c #343435",
"-o c #2B2C2D",
"-p c #45494F",
"-q c #555B63",
"-r c #43484D",
"-s c #2C2D2E",
"-t c #383C3F",
"-u c #565C64",
"-v c #575C64",
"-w c #575C65",
"-x c #5A6068",
"-y c #81868C",
"-z c #535557",
"-A c #82878D",
"-B c #5A6067",
"-C c #575D65",
"-D c #585D66",
"-E c #585E66",
"-F c #595E67",
"-G c #595F67",
"-H c #595F68",
"-I c #5A5F68",
"-J c #5A6069",
"-K c #5B6069",
"-L c #5B6169",
"-M c #5E646C",
"-N c #82868D",
"-O c #56575A",
"-P c #84888E",
"-Q c #5D636C",
"-R c #5C616A",
"-S c #5C626A",
"-T c #5C626B",
"-U c #5D626B",
"-V c #5D636B",
"-W c #5E636C",
"-X c #5E646D",
"-Y c #5F646D",
"-Z c #5F656D",
"-0 c #5F656E",
"-1 c #626871",
"-2 c #84878E",
"-3 c #595A5C",
"-4 c #848990",
"-5 c #81858C",
"-6 c #80848C",
"-7 c #80858C",
"-8 c #81858D",
"-9 c #81868D",
"-@ c #82868E",
"-# c #858A90",
"-; c #5C5D5F",
"-: c #5F6062",
"-= c #5F6061",
"-+ c #626364",
"-% c #454545",
"-$ c #444444",
"..............................................................",
".,.-.-.-.-.-.-.-.-.-.-.-.-.-.-.-.-.-.-.-.-.-.-.-.-.-.-.-.-.-.*",
".a.b.b.b.b.b.b.b.b.b.b.b.b.b.b.b.b.b.b.b.b.b.b.b.b.b.b.b.b.b.b",
".c...d.d.d.d.d.d.d.d.d.d.d.d.d.d.d.d.d.d.d.d.d.d.d.d.d.d.d.d..",
".e...f.g.g.g.g.g.g.g.g.g.g.g.g.g.g.g.g.g.g.g.h.h.h.h.h.i.h.j..",
".k...l.m.n.n.n.n.n.n.n.n.n.n.n.n.o.o.o.o.o.o.o.o.o.o.o.o.p.q..",
".r...s.n.t.t.t.t.u.u.u.u.u.u.u.u.u.u.u.u.u.u.u.u.u.u.u.u.v.w..",
".x...y.z.A.B.B.B.B.B.C.D.D.D.D.E.B.F.D.D.D.D.G.B.B.B.B.e.H.h..",
".I...J.A.K.K.K.K.K.K.L.M.N.O.P.Q.R.S.T.O.U.V.W.A.A.A.A.A.X.Y..",
".I...Z.0.1.1.1.1.1.2.K.3.4.5.O.6.7.8.O.9.@.#.;.A.A.A.A.A.:.=..",
".+...%.0.L.L.$.$.(.).).).[.],..O,,.O,-,*,a.0.0.0,b,b.;.;.t.h..",
",c..,d.;.2.2.2.2.K.K.$.$.$,e,f,g.O,g,h,i.A,j,j,j,j,k,k,l,m,n..",
",o..,p,q,r,s,t,u,u,u,u,v,w,x,y,z.O,z,A,B,C,C,C,D,D,E,E,E,F,G..",
",H..,I,J,D,E,E,E,E,K,L,M,N,O,P.O,Q.O,R,S,T,J,U,V,V,V,V,W,X,G..",
",Y..,Z,0,F,F,F,1,2,2,3,4,5,6.O,7,8,9.O,@,#,E,;,;,;,:,X,X,=,+..",
",%..,$,=,(,),[,[,],],;,#-..O,@-,---,-*.O-a-b,]-c-d-d-d-e-f,$..",
"-g..-h-i-j-j-j-k-l-l-m,8-n-n-o-p-q-r-s-n-n,8-t-u-u-v-w-w-x-y..",
"-z..-A-B-C-C-D-D-E-E-E-E-F-F-G-G-G-H-I-I-x-x-x-J-K-K-L-L-M-N..",
"-O..-P-Q-R-R-R-S-S-T-U-U-U-V-V-Q-Q-W-W-M-M-X-X-Y-Y-Z-0-0-1-2..",
"-3..-4-5-6-7-7-7-7-5-5-5-8-8-8-8-5-y-9-9-9-N-5-y-9-9-9-N-@-#..",
"-;............................................................",
"-:-:-:-:-:-:-:-:-:-:-:-:-:-:-:-=-=-=-=-=-=-=-=-=-=-=-=-=-=-=-=",
"-+-+-+-+-+-+-+-+-+-+-+-+-+-+-+-+-+-+-+-+-+-+-+-+-+-+-+-+-+-+-+",
"-%-$-$-$-$-$-$-$-$-$-$-$-$-$-$-$-$-$-$-$-$-$-$-$-$-$-$-$-$-$-$"}
