/* XPM */
static char *graphic[] = {
"31 24 223 2",
".. c #1B2231",
"., c #8793A4",
".- c #8693A3",
".* c #55657D",
".a c #52637B",
".b c #1C2536",
".c c #4F6079",
".d c #7C899B",
".e c #728094",
".f c #717F93",
".g c #707E92",
".h c #7A879A",
".i c #4B5D76",
".j c #7F8C9E",
".k c #5A6A81",
".l c #56667E",
".m c #57677F",
".n c #5B6B82",
".o c #778598",
".p c #485973",
".q c #7D8A9C",
".r c #55667E",
".s c #51627B",
".t c #56677F",
".u c #758296",
".v c #465771",
".w c #798699",
".x c #50617A",
".y c #4D5E77",
".z c #4E5F78",
".A c #354256",
".B c #1E2636",
".C c #38455A",
".D c #384559",
".E c #364357",
".F c #53637B",
".G c #445671",
".H c #768497",
".I c #4D5E78",
".J c #495B75",
".K c #495A74",
".L c #262F41",
".M c #8F939A",
".N c #FFFFFF",
".O c #DFE0E2",
".P c #29303F",
".Q c #364359",
".R c #29313F",
".S c #E0E1E3",
".T c #898D94",
".U c #273043",
".V c #4B5C77",
".W c #4C5D78",
".X c #51617B",
".Y c #707E93",
".Z c #435671",
".0 c #758396",
".1 c #4B5C78",
".2 c #485A75",
".3 c #44556D",
".4 c #212839",
".5 c #C1C3C7",
".6 c #B3B5BA",
".7 c #1C2332",
".8 c #B5B7BC",
".9 c #C3C5C9",
".@ c #232A3A",
".# c #4B5D78",
".; c #4C5E78",
".: c #4C5E79",
".= c #50617C",
".+ c #707F94",
".% c #435672",
".$ c #748297",
".( c #475A75",
".) c #485B76",
".[ c #495B76",
".] c #3D4B64",
",. c #313845",
",, c #E9E9EB",
",- c #C2C4C8",
",* c #E6E7E8",
",a c #2E3441",
",b c #3E4E65",
",c c #4B5D79",
",d c #50627D",
",e c #425671",
",f c #738297",
",g c #475A76",
",h c #485B77",
",i c #313E52",
",j c #545965",
",k c #FCFCFD",
",l c #FBFCFC",
",m c #4F5460",
",n c #324055",
",o c #4B5D7A",
",p c #4B5E7A",
",q c #4F627D",
",r c #707F95",
",s c #2C4261",
",t c #718096",
",u c #334868",
",v c #2F4465",
",w c #304565",
",x c #304566",
",y c #314666",
",z c #243046",
",A c #616670",
",B c #FEFEFE",
",C c #636772",
",D c #243148",
",E c #324768",
",F c #334869",
",G c #384C6D",
",H c #707F96",
",I c #2F4564",
",J c #728197",
",K c #344A6A",
",L c #314768",
",M c #324869",
",N c #32486A",
",O c #33496A",
",P c #2B3B56",
",Q c #3B414E",
",R c #F2F2F3",
",S c #ABAEB3",
",T c #EFEFF0",
",U c #383E4B",
",V c #2C3D58",
",W c #344A6B",
",X c #344A6C",
",Y c #354B6C",
",Z c #3A4F70",
",0 c #707F97",
",1 c #324766",
",2 c #718199",
",3 c #384E6F",
",4 c #364C6D",
",5 c #364C6E",
",6 c #374D6E",
",7 c #324665",
",8 c #D2D4D7",
",9 c #9EA1A7",
",@ c #A5A7AD",
",# c #D0D1D4",
",; c #344867",
",: c #394F70",
",= c #394F71",
",+ c #3E5374",
",% c #354A69",
",$ c #72829A",
",( c #3D5373",
",) c #3A5071",
",[ c #3A5072",
",] c #3B5172",
"-. c #202A3D",
"-, c #A3A6AC",
"-- c #31445E",
"-* c #242B3A",
"-a c #D3D5D7",
"-b c #9DA0A6",
"-c c #212C3E",
"-d c #3C5172",
"-e c #3D5375",
"-f c #3E5475",
"-g c #425779",
"-h c #71829B",
"-i c #384D6C",
"-j c #415778",
"-k c #3E5476",
"-l c #3F5576",
"-m c #3F5577",
"-n c #29354C",
"-o c #2A313F",
"-p c #212837",
"-q c #344460",
"-r c #405678",
"-s c #33435E",
"-t c #222937",
"-u c #2A374D",
"-v c #415779",
"-w c #425879",
"-x c #42587A",
"-y c #465B7D",
"-z c #3B506E",
"-A c #73839C",
"-B c #455B7C",
"-C c #43597B",
"-D c #445A7C",
"-E c #445A7D",
"-F c #455B7D",
"-G c #455B7E",
"-H c #465C7E",
"-I c #4A5F81",
"-J c #72829D",
"-K c #3E5371",
"-L c #74849E",
"-M c #485E81",
"-N c #475D7F",
"-O c #475D80",
"-P c #485E80",
"-Q c #495F81",
"-R c #495F82",
"-S c #4A6082",
"-T c #4A6083",
"-U c #4E6385",
"-V c #73849F",
"-W c #415674",
"-X c #7485A0",
"-Y c #70829D",
"-Z c #70819C",
"-0 c #70819D",
"-1 c #71829D",
"-2 c #70829E",
"-3 c #71829E",
"-4 c #71839E",
"-5 c #72839F",
"-6 c #7586A1",
"-7 c #445976",
"-8 c #475B79",
"-9 c #4A5E7C",
"-@ c #374251",
"..............................................................",
".,.,.,.,.,.,.,.,.,.,.,.,.,.,.,.,.,.,.,.,.,.,.,.,.,.,.,.,.,.,.-",
".*.*.*.*.*.*.*.*.*.*.*.*.*.*.*.*.*.*.*.*.*.*.*.*.*.*.*.*.*.*.*",
".a...b.b.b.b.b.b.b.b.b.b.b.b.b.b.b.b.b.b.b.b.b.b.b.b.b.b.b.b..",
".c...d.e.e.e.e.e.e.e.e.e.e.e.e.e.e.e.e.e.e.e.f.f.f.f.f.g.f.h..",
".i...j.k.l.l.l.l.l.l.l.l.l.l.l.l.m.m.m.m.m.m.m.m.m.m.m.m.n.o..",
".p...q.r.s.s.s.s.a.a.a.a.a.a.a.a.a.a.a.a.a.a.a.a.a.a.a.a.t.u..",
".v...w.x.y.z.z.z.z.z.A.B.B.B.B.C.z.D.B.B.B.B.E.z.z.z.z.c.F.f..",
".G...H.I.J.J.J.J.J.J.K.L.M.N.O.P.Q.R.S.N.T.U.V.W.I.I.I.I.X.Y..",
".Z...0.1.2.2.2.2.2.2.J.3.4.5.N.6.7.8.N.9.@.v.#.;.;.;.;.:.=.+..",
".%...$.#.(.(.).).).[.[.[.],.,,.N,-.N,*,a,b.#.#.#,c,c,c,c,d.+..",
",e..,f,c,g,g,g,g.).),h,h,h,i,j,k.N,l,m,n,c,o,o,o,o,o,p,p,q,r..",
",s..,t,u,v,v,w,x,x,x,x,x,y,z,A,B.N,B,C,D,E,E,E,E,E,F,F,F,G,H..",
",I..,J,K,L,M,M,M,M,M,N,O,P,Q,R.N,S.N,T,U,V,W,X,Y,Y,Y,Y,Y,Z,0..",
",1..,2,3,4,4,4,4,5,5,6,7.@,8.N,9..,@.N,#.@,;,:,:,:,=,=,=,+,2..",
",%..,$,(,),[,[,[,],],Z-.-,.N,#.@---*-a.N-b-c-d-e-e-e-e-f-g-h..",
"-i..,$-j-k-k-k-l-m-m-n..-o-o-p-q-r-s-t-o-o..-u-v-v-w-x-x-y-h..",
"-z..-A-B-x-x-C-C-C-C-C-C-D-D-D-D-D-E-F-F-F-F-F-G-H-H-H-H-I-J..",
"-K..-L-M-N-N-N-N-N-O-P-P-P-P-P-M-M-Q-Q-Q-Q-R-R-S-S-S-T-T-U-V..",
"-W..-X-Y-Z-Z-0-0-0-0-0-0-0-0-0-1-Y-Y-2-2-2-3-Y-Y-2-2-2-4-5-6..",
"-7............................................................",
"-8-8-8-8-8-8-8-8-8-8-8-8-8-8-8-8-8-8-8-8-8-8-8-8-8-8-8-8-8-8-8",
"-9-9-9-9-9-9-9-9-9-9-9-9-9-9-9-9-9-9-9-9-9-9-9-9-9-9-9-9-9-9-9",
"-@-@-@-@-@-@-@-@-@-@-@-@-@-@-@-@-@-@-@-@-@-@-@-@-@-@-@-@-@-@-@"}
