/* XPM */
static char *graphic[] = {
"31 24 167 2",
".. c #1B2231",
"., c #8793A4",
".- c #8893A4",
".* c #55657D",
".a c #54667D",
".b c #52637B",
".c c #1B2232",
".d c #1C2536",
".e c #4F6079",
".f c #212939",
".g c #7C899B",
".h c #728094",
".i c #717F93",
".j c #707E92",
".k c #7A879A",
".l c #4B5D76",
".m c #1D3353",
".n c #203555",
".o c #778598",
".p c #202838",
".q c #485973",
".r c #798699",
".s c #758296",
".t c #465771",
".u c #768396",
".v c #1F3554",
".w c #445671",
".x c #738194",
".y c #1E3454",
".z c #1F3555",
".A c #1F3556",
".B c #203656",
".C c #223857",
".D c #707E93",
".E c #435671",
".F c #717F94",
".G c #203657",
".H c #213757",
".I c #213758",
".J c #223858",
".K c #223859",
".L c #233959",
".M c #23395A",
".N c #243A5A",
".O c #243A5B",
".P c #263C5C",
".Q c #707F94",
".R c #1F2838",
".S c #435672",
".T c #718095",
".U c #253B5B",
".V c #253B5C",
".W c #263C5D",
".X c #273D5D",
".Y c #273D5E",
".Z c #283E5E",
".0 c #283E5F",
".1 c #2B4160",
".2 c #425671",
".3 c #293F5F",
".4 c #293F60",
".5 c #2A4060",
".6 c #2A4061",
".7 c #2B4161",
".8 c #2B4162",
".9 c #2C4262",
".@ c #2C4263",
".# c #2D4363",
".; c #2D4364",
".: c #2F4465",
".= c #707F95",
".+ c #2C4261",
".% c #718096",
".$ c #2E4464",
".( c #2E4465",
".) c #2F4565",
".[ c #2F4566",
".] c #304667",
",. c #314768",
",, c #334869",
",- c #707F96",
",* c #202839",
",a c #2F4564",
",b c #728197",
",c c #314769",
",d c #324869",
",e c #324769",
",f c #1C2331",
",g c #344A6B",
",h c #344A6C",
",i c #354B6C",
",j c #374C6E",
",k c #707F97",
",l c #202939",
",m c #324766",
",n c #718199",
",o c #354B6D",
",p c #364C6D",
",q c #364C6E",
",r c #374C6D",
",s c #1D2433",
",t c #FFFFFF",
",u c #FCFCFD",
",v c #384E70",
",w c #394F70",
",x c #394F71",
",y c #3C5172",
",z c #354A69",
",A c #72829A",
",B c #3A5071",
",C c #3A5072",
",D c #3B5172",
",E c #3B5071",
",F c #3D5374",
",G c #3D5375",
",H c #3E5475",
",I c #405576",
",J c #71829B",
",K c #212838",
",L c #384D6C",
",M c #72829B",
",N c #3E5476",
",O c #3F5576",
",P c #3F5577",
",Q c #3F5476",
",R c #415779",
",S c #425879",
",T c #42587A",
",U c #43597B",
",V c #3B506E",
",W c #73839C",
",X c #445A7C",
",Y c #445A7D",
",Z c #455B7D",
",0 c #455B7E",
",1 c #465C7E",
",2 c #475D7F",
",3 c #72839E",
",4 c #3E5371",
",5 c #74849E",
",6 c #465C7F",
",7 c #475D80",
",8 c #485E80",
",9 c #485E81",
",@ c #495F81",
",# c #495F82",
",; c #4A6082",
",: c #4A6083",
",= c #4B6183",
",+ c #73849F",
",% c #222939",
",$ c #415674",
",( c #7485A0",
",) c #70819C",
",[ c #70819D",
",] c #71829D",
"-. c #70829D",
"-, c #70829E",
"-- c #71829E",
"-* c #71839E",
"-a c #7586A1",
"-b c #445976",
"-c c #475B79",
"-d c #4A5E7C",
"-e c #384252",
"-f c #374251",
"-g c #374351",
"..............................................................",
".,.,.,.,.,.,.,.,.,.,.,.,.,.,.,.,.,.,.,.,.,.,.,.,.,.,.,.,.,.,.-",
".*.*.*.*.*.*.*.*.*.*.*.*.*.*.*.*.*.*.*.*.*.*.*.*.*.*.*.*.*.*.a",
".b.c.d.d.d.d.d.d.d.d.d.d.d.d.d.d.d.d.d.d.d.d.d.d.d.d.d.d.d.d.c",
".e.f.g.h.h.h.h.h.h.h.h.h.h.h.h.h.h.h.h.h.h.h.i.i.i.i.i.j.j.k.f",
".l.f.g.m.m.m.m.m.m.m.m.m.m.m.m.m.m.m.m.m.m.m.m.m.m.m.m.m.n.o.p",
".q.f.r.m.m.m.m.m.m.m.m.m.m.m.m.m.m.m.m.m.m.m.m.m.m.m.m.m.n.s.p",
".t.p.u.m.m.m.m.m.m.m.m.m.m.m.m.m.m.m.m.m.m.m.m.m.m.m.m.m.v.i.p",
".w.p.x.m.m.m.m.m.m.m.m.m.y.y.y.y.y.y.z.z.z.z.z.A.B.B.B.B.C.D.p",
".E.p.F.G.H.H.H.H.H.I.J.J.J.J.J.K.K.L.L.L.L.M.M.N.N.N.N.O.P.Q.R",
".S.R.T.U.U.U.V.V.V.P.P.P.W.W.W.X.X.X.Y.Y.Y.Z.Z.Z.0.0.0.0.1.Q.p",
".2.p.T.3.4.4.4.4.5.5.6.6.6.6.7.7.8.8.8.8.9.@.@.@.@.@.#.;.:.=.p",
".+.p.%.;.;.;.$.(.(.(.(.(.).[.[.[.[.[.[.].].].].].],.,.,.,,,-,*",
",a,*,b,.,c,d,d,d,d,d,e..................,f,g,h,i,i,i,i,i,j,k,l",
",m,l,n,o,p,p,p,p,q,q,r,s,t,t,t,t,t,t,t,u,f,v,w,w,w,x,x,x,y,n.f",
",z.f,A,B,B,C,C,C,D,D,E,s,t,t,t,t,t,t,t,u,f,F,F,G,G,G,G,H,I,J,K",
",L,K,M,N,N,N,N,O,P,P,Q..................,f,R,R,R,R,S,T,T,U,J.f",
",V.f,W,T,T,T,U,U,U,U,U,U,X,X,X,X,X,Y,Z,Z,Z,Z,Z,0,1,1,1,1,2,3.f",
",4.f,5,6,2,2,2,2,2,7,8,8,8,8,8,9,9,@,@,@,@,#,#,;,;,;,;,:,=,+,%",
",$,%,(,),),),[,[,[,[,[,[,[,[,[,]-.-.-,-,-,---.-.-,-,-,-*-*-a.f",
"-b............................................................",
"-c-c-c-c-c-c-c-c-c-c-c-c-c-c-c-c-c-c-c-c-c-c-c-c-c-c-c-c-c-c-c",
"-d-d-d-d-d-d-d-d-d-d-d-d-d-d-d-d-d-d-d-d-d-d-d-d-d-d-d-d-d-d-d",
"-e-f-f-f-f-f-f-f-f-f-f-f-f-f-f-f-f-f-f-f-f-f-f-f-f-f-f-f-f-f-g"}
