/* XPM */
static char *graphic[] = {
"31 24 132 2",
".. c #262626",
"., c #949697",
".- c #959698",
".* c #67696B",
".a c #676A6C",
".b c #656769",
".c c #28292A",
".d c #616466",
".e c #2D2D2E",
".f c #888B8F",
".g c #7F8287",
".h c #7E8286",
".i c #7E8185",
".j c #86898D",
".k c #5E6163",
".l c #8C8E92",
".m c #65696E",
".n c #666A6F",
".o c #676B70",
".p c #84878B",
".q c #2C2C2D",
".r c #5B5D60",
".s c #898C90",
".t c #61656B",
".u c #62666B",
".v c #63676D",
".w c #828589",
".x c #595B5E",
".y c #85888D",
".z c #5D6167",
".A c #5E6268",
".B c #5F6368",
".C c #585B5D",
".D c #83868B",
".E c #5A5E64",
".F c #5B5F65",
".G c #5C5F65",
".H c #5D6166",
".I c #5E6267",
".J c #7E8085",
".K c #2C2D2D",
".L c #575A5D",
".M c #818489",
".N c #595D63",
".O c #595E63",
".P c #5A5E63",
".Q c #5C6065",
".R c #5C6066",
".S c #5D6066",
".T c #5E6167",
".U c #7E8186",
".V c #2C2C2C",
".W c #585A5D",
".X c #5B5E64",
".Y c #5B5F64",
".Z c #5B6065",
".0 c #7F8286",
".1 c #56595D",
".2 c #5D6267",
".3 c #5F6268",
".4 c #43464A",
".5 c #808388",
".6 c #44494F",
".7 c #45494F",
".8 c #454950",
".9 c #454A50",
".@ c #464A50",
".# c #464A51",
".; c #464B51",
".: c #474B51",
".= c #474B52",
".+ c #474C52",
".% c #484C52",
".$ c #484C53",
".( c #484D53",
".) c #494E54",
".[ c #7F8387",
".] c #2D2D2D",
",. c #46494D",
",, c #818488",
",- c #494D53",
",* c #272727",
",a c #4B4F55",
",b c #4B5056",
",c c #4C5056",
",d c #4D5157",
",e c #808387",
",f c #484C50",
",g c #4C5157",
",h c #282828",
",i c #FFFFFF",
",j c #FCFCFC",
",k c #4F5359",
",l c #4F545A",
",m c #50545A",
",n c #51555B",
",o c #4B4E53",
",p c #50555B",
",q c #51565B",
",r c #54585D",
",s c #54585E",
",t c #55595E",
",u c #565A60",
",v c #82858A",
",w c #4E5156",
",x c #83868A",
",y c #55595F",
",z c #565A5F",
",A c #585C62",
",B c #595C62",
",C c #595D62",
",D c #505459",
",E c #5A5D63",
",F c #85888B",
",G c #53575C",
",H c #86888D",
",I c #5F6369",
",J c #606369",
",K c #606469",
",L c #61646A",
",M c #61656A",
",N c #62656B",
",O c #63676C",
",P c #85888C",
",Q c #56595F",
",R c #838589",
",S c #83858A",
",T c #83878B",
",U c #888A8E",
",V c #5E6168",
",W c #444444",
",X c #454545",
"..............................................................",
".,.,.,.,.,.,.,.,.,.,.,.,.,.,.,.,.,.,.,.,.,.,.,.,.,.,.,.,.,.,.-",
".*.*.*.*.*.*.*.*.*.*.*.*.*.*.*.*.*.*.*.*.*.*.*.*.*.*.*.*.*.*.a",
".b...c.c.c.c.c.c.c.c.c.c.c.c.c.c.c.c.c.c.c.c.c.c.c.c.c.c.c.c..",
".d.e.f.g.g.g.g.g.g.g.g.g.g.g.g.g.g.g.g.g.g.g.h.h.h.h.h.i.i.j.e",
".k.e.l.m.m.m.m.m.m.m.m.m.m.m.m.m.n.n.n.n.n.n.n.n.n.n.n.n.o.p.q",
".r.e.s.t.t.t.t.t.u.u.u.u.u.u.u.u.u.u.u.u.u.u.u.u.u.u.u.u.v.w.q",
".x.q.y.z.z.A.A.A.A.A.A.A.A.A.A.A.A.A.A.A.A.A.A.A.A.A.A.B.A.h.q",
".C.q.D.E.E.E.E.E.E.E.E.E.F.F.F.F.F.G.H.H.H.H.H.H.z.z.z.z.I.J.K",
".L.K.M.N.O.O.O.O.O.P.P.E.E.E.E.G.Q.R.R.R.R.S.H.z.z.z.T.T.I.U.V",
".W.V.w.N.N.N.X.X.Y.F.F.F.F.F.Z.Z.Z.Z.Q.Q.Q.Q.R.R.S.S.H.H.A.0.q",
".1.q.M.E.E.E.E.E.E.X.X.Y.Y.Y.F.G.G.Q.Q.Q.H.z.z.2.2.2.2.A.3.0.K",
".4.q.5.6.6.6.7.8.8.9.9.9.@.#.#.;.;.;.:.:.=.+.+.+.%.%.$.(.).[.]",
",..K,,.+.%.%.$.(.(,-.%..................,*,a,a,a,a,b,b,c,d,e.]",
",f.],,,c,c,g,g,d,d,d,c,h,i,i,i,i,i,i,i,j,*,k,k,l,m,m,m,m,n,,.e",
",o.e.w,p,n,n,n,n,n,q,n,h,i,i,i,i,i,i,i,j,*,r,s,s,s,s,s,t,u,v.K",
",w.K,x,y,y,y,y,z,z,u,y..................,*,A,A,A,B,C,C.N.E,x.]",
",D.].p.N,E.P.P.E.E.E.X.Y.Y.Y.F.F.G.Q.Q.Q.R.R.S.H.H.H.z.T.3,F.]",
",G.],H.I.I.I.A.3.3.B.B.B,I,J,J,K,K,K,K,L,L,M,M,M,M,N,N.u,O,P.e",
",Q.e.j.w,R,S,S,x,x.w,R,S,S,x,x,x,x,x,x,x,x,x,x,x.D,T,T,T.p,U.]",
",A............................................................",
".F.F.F.F.F.F.F.F.F.F.F.F.F.F.F.F.F.F.F.F.F.F.F.F.F.F.F.F.F.F.F",
".A.A.A.A.A.A.A.A.A.A.A.A.A,V,V,V,V,V,V,V,V,V,V,V,V,V,V,V,V,V,V",
",W,W,W,W,W,W,W,W,W,W,W,W,W,W,W,W,W,W,W,W,W,W,W,W,W,W,W,W,W,W,X"}
