/* XPM */
static char *graphic[] = {
"31 24 151 2",
".. c #262626",
"., c #959798",
".- c #949697",
".* c #939596",
".a c #676A6C",
".b c #67696B",
".c c #646669",
".d c #28292A",
".e c #616365",
".f c #2D2D2E",
".g c #888B8F",
".h c #7F8287",
".i c #7E8286",
".j c #7E8185",
".k c #86898D",
".l c #5D5F62",
".m c #8C8E92",
".n c #65696E",
".o c #666A6F",
".p c #676B70",
".q c #84878B",
".r c #2C2C2D",
".s c #595C5E",
".t c #898C90",
".u c #61656B",
".v c #62666B",
".w c #63676D",
".x c #828589",
".y c #575A5D",
".z c #85888D",
".A c #5D6167",
".B c #5E6268",
".C c #272727",
".D c #5F6368",
".E c #56595B",
".F c #83868B",
".G c #5A5E64",
".H c #595D63",
".I c #282828",
".J c #FFFFFF",
".K c #FCFCFC",
".L c #5D6166",
".M c #5E6267",
".N c #7D8085",
".O c #2C2D2D",
".P c #57595C",
".Q c #818489",
".R c #595E63",
".S c #5A5E63",
".T c #5D6066",
".U c #5E6167",
".V c #7E8186",
".W c #2C2C2C",
".X c #82858A",
".Y c #5B5E64",
".Z c #5B5F65",
".0 c #FDFDFD",
".1 c #292929",
".2 c #5C6066",
".3 c #55575B",
".4 c #595E64",
".5 c #5D6267",
".6 c #5D6268",
".7 c #7F8186",
".8 c #424549",
".9 c #808388",
".@ c #44484F",
".# c #44494F",
".; c #444950",
".: c #454950",
".= c #464A51",
".+ c #454A50",
".% c #474B52",
".$ c #474C52",
".( c #474C53",
".) c #484C53",
".[ c #494E54",
".] c #7F8388",
",. c #45484B",
",, c #818488",
",- c #484D53",
",* c #484D54",
",a c #4A4F56",
",b c #4B4F56",
",c c #4B5056",
",d c #4B5057",
",e c #4C5158",
",f c #2D2D2D",
",g c #474B4F",
",h c #4C5057",
",i c #4C5157",
",j c #4E535A",
",k c #4F535A",
",l c #4F545A",
",m c #4F545B",
",n c #51555C",
",o c #4A4D52",
",p c #50545B",
",q c #50555B",
",r c #50555C",
",s c #53575E",
",t c #53585E",
",u c #53585F",
",v c #54585F",
",w c #555A60",
",x c #4D5055",
",y c #82868A",
",z c #54595F",
",A c #545960",
",B c #555960",
",C c #575C62",
",D c #575C63",
",E c #585C63",
",F c #585D63",
",G c #595E65",
",H c #4F5358",
",I c #83878C",
",J c #595D64",
",K c #5A5E65",
",L c #5A5F65",
",M c #5A5F66",
",N c #5B5F66",
",O c #5B6066",
",P c #5B6067",
",Q c #5C6067",
",R c #5C6167",
",S c #5C6168",
",T c #5D6168",
",U c #5E6269",
",V c #84878C",
",W c #52565B",
",X c #5D6269",
",Y c #5E6369",
",Z c #5F636A",
",0 c #5F646A",
",1 c #60646B",
",2 c #60656B",
",3 c #61656C",
",4 c #62666D",
",5 c #84888D",
",6 c #55585E",
",7 c #86898E",
",8 c #81858A",
",9 c #82858B",
",@ c #82868B",
",# c #83878B",
",; c #878A90",
",: c #575B61",
",= c #5E6168",
",+ c #454545",
",% c #444444",
"..............................................................",
".,.-.-.-.-.-.-.-.-.-.-.-.-.-.-.-.-.-.-.-.-.-.-.-.-.-.-.-.-.-.*",
".a.b.b.b.b.b.b.b.b.b.b.b.b.b.b.b.b.b.b.b.b.b.b.b.b.b.b.b.b.b.b",
".c...d.d.d.d.d.d.d.d.d.d.d.d.d.d.d.d.d.d.d.d.d.d.d.d.d.d.d.d..",
".e.f.g.h.h.h.h.h.h.h.h.h.h.h.h.h.h.h.h.h.h.h.i.i.i.i.i.j.j.k.f",
".l.f.m.n.n.n.n.n.n.n.n.n.n.n.n.n.o.o.o.o.o.o.o.o.o.o.o.o.p.q.r",
".s.f.t.u.u.u.u.u.v.v.v.v.v.v.v.v.v.v.v.v.v.v.v.v.v.v.v.v.w.x.r",
".y.r.z.A.A.B.B.B.B.B.A...................C.B.B.B.B.B.B.D.B.i.r",
".E.r.F.G.G.G.G.G.G.G.H.I.J.J.J.J.J.J.J.K.C.L.L.L.A.A.A.A.M.N.O",
".P.O.Q.H.R.R.R.R.R.S.H.I.J.J.J.J.J.J.J.K.C.T.A.A.A.A.A.U.B.V.W",
".E.W.X.H.H.H.G.Y.Z.Z.G.I.J.0.......1.J.K.C.2.2.2.2.T.L.A.B.i.r",
".3.r.Q.4.4.G.G.G.G.G.H.I.J.0.C.Z.G.1.J.K.C.A.A.A.5.6.6.6.B.7.O",
".8.r.9.@.#.;.;.;.;.:.#.I.J.0.C.=.+.1.J.K.C.%.$.(.(.(.).).[.].O",
",..O,,.(.(.(.).),-,*.(.I.J.0.......1.J.K.C,a,a,a,b,b,c,d,e.],f",
",g,f.Q,d,h,h,i,e,e,e,h.I.J.J.J.J.J.J.J.K.C,j,k,k,l,l,m,m,n.Q.f",
",o.f.X,p,q,q,r,r,n,n,q.I.J.J.J.J.J.J.J.K.C,s,t,t,u,u,v,v,w.X.O",
",x.O,y,z,A,B,B,B,w,w,A...................C,C,D,E,E,E,E,F,G.F,f",
",H,f,I,J,J,J.4.4,G,K,K,K,K,L,M,N,N,N,N,O,P,Q,Q,Q,Q,R,S,T,U,V.f",
",W.f.z,T,T.6,X,U,U,U,U,Y,Y,Z,Z,Z,Z,0,0,1,1,1,1,2,2,3,3,3,4,5.f",
",6.f,7,8,8,9,9,9,9,8.X,9,9,9,9,@,y,@,@,@,@,@.F.F.F.F.F,#,#,;,f",
",:............................................................",
".Z.Z.Z.Z.Z.Z.Z.Z.Z.Z.Z.Z.Z.Z.Z.Z.Z.Z.Z.Z.Z.Z.Z.Z.Z.Z.Z.Z.Z.Z.Z",
".B.B.B.B.B.B.B.B.B.B.B.B.B,=,=,=,=,=,=,=,=,=,=,=,=,=,=,=,=,=,=",
",+,%,%,%,%,%,%,%,%,%,%,%,%,%,%,%,%,%,%,%,%,%,%,%,%,%,%,%,%,%,%"}
