/* XPM */
static char *graphic[] = {
"31 24 166 2",
".. c #1B2231",
"., c #8793A4",
".- c #8893A4",
".* c #55657D",
".a c #54667D",
".b c #52637B",
".c c #1B2232",
".d c #1C2536",
".e c #4F6079",
".f c #212939",
".g c #7C899B",
".h c #728094",
".i c #717F93",
".j c #707E92",
".k c #7A879A",
".l c #4B5D76",
".m c #7F8C9E",
".n c #56667E",
".o c #57677F",
".p c #586880",
".q c #778598",
".r c #202838",
".s c #485973",
".t c #7D8A9C",
".u c #51627B",
".v c #53647D",
".w c #758296",
".x c #465771",
".y c #798699",
".z c #4D5E77",
".A c #4E5F78",
".B c #1C2331",
".C c #445671",
".D c #768497",
".E c #495B75",
".F c #485A74",
".G c #1D2433",
".H c #FFFFFF",
".I c #FCFCFD",
".J c #4C5D77",
".K c #4C5D78",
".L c #4D5E78",
".M c #707E93",
".N c #435671",
".O c #748296",
".P c #475975",
".Q c #485A75",
".R c #4B5D78",
".S c #4C5E78",
".T c #4C5E79",
".U c #707F94",
".V c #1F2838",
".W c #435672",
".X c #748297",
".Y c #475A75",
".Z c #485B76",
".0 c #495B76",
".1 c #FDFDFD",
".2 c #1F2534",
".3 c #4B5D79",
".4 c #4C5F7A",
".5 c #425671",
".6 c #738297",
".7 c #475A76",
".8 c #1C2332",
".9 c #495C77",
".@ c #485B78",
".# c #4B5D7A",
".; c #4B5E7A",
".: c #4C5F7B",
".= c #707F95",
".+ c #2C4261",
".% c #718096",
".$ c #2F4465",
".( c #304565",
".) c #304566",
".[ c #304465",
".] c #1B2332",
",. c #314667",
",, c #304567",
",- c #324768",
",* c #334869",
",a c #35496A",
",b c #707F96",
",c c #202839",
",d c #2F4564",
",e c #728197",
",f c #314768",
",g c #314769",
",h c #324869",
",i c #324769",
",j c #344A6B",
",k c #344A6C",
",l c #354B6C",
",m c #374C6E",
",n c #707F97",
",o c #202939",
",p c #324766",
",q c #718199",
",r c #354B6D",
",s c #364C6D",
",t c #364C6E",
",u c #374C6D",
",v c #384E70",
",w c #394F70",
",x c #394F71",
",y c #3C5172",
",z c #354A69",
",A c #72829A",
",B c #3A5071",
",C c #3A5072",
",D c #3B5172",
",E c #3B5071",
",F c #3D5374",
",G c #3D5375",
",H c #3E5475",
",I c #405576",
",J c #71829B",
",K c #212838",
",L c #384D6C",
",M c #72829B",
",N c #3E5476",
",O c #3F5576",
",P c #3F5577",
",Q c #3F5476",
",R c #415779",
",S c #425879",
",T c #42587A",
",U c #43597B",
",V c #3B506E",
",W c #73839C",
",X c #445A7C",
",Y c #445A7D",
",Z c #455B7D",
",0 c #455B7E",
",1 c #465C7E",
",2 c #475D7F",
",3 c #72839E",
",4 c #3E5371",
",5 c #74849E",
",6 c #465C7F",
",7 c #475D80",
",8 c #485E80",
",9 c #485E81",
",@ c #495F81",
",# c #495F82",
",; c #4A6082",
",: c #4A6083",
",= c #4B6183",
",+ c #73849F",
",% c #222939",
",$ c #415674",
",( c #7485A0",
",) c #70819C",
",[ c #70819D",
",] c #71829D",
"-. c #70829D",
"-, c #70829E",
"-- c #71829E",
"-* c #71839E",
"-a c #7586A1",
"-b c #445976",
"-c c #475B79",
"-d c #4A5E7C",
"-e c #374251",
"-f c #374351",
"..............................................................",
".,.,.,.,.,.,.,.,.,.,.,.,.,.,.,.,.,.,.,.,.,.,.,.,.,.,.,.,.,.,.-",
".*.*.*.*.*.*.*.*.*.*.*.*.*.*.*.*.*.*.*.*.*.*.*.*.*.*.*.*.*.*.a",
".b.c.d.d.d.d.d.d.d.d.d.d.d.d.d.d.d.d.d.d.d.d.d.d.d.d.d.d.d.d.c",
".e.f.g.h.h.h.h.h.h.h.h.h.h.h.h.h.h.h.h.h.h.h.i.i.i.i.i.j.j.k.f",
".l.f.m.n.n.n.n.n.n.n.n.n.n.n.n.n.o.o.o.o.o.o.o.o.o.o.o.o.p.q.r",
".s.f.t.u.u.u.u.u.b.b.b.b.b.b.b.b.b.b.b.b.b.b.b.b.b.b.b.b.v.w.r",
".x.r.y.z.z.A.A.A.A.A.z...................B.A.A.A.A.A.A.e.A.i.r",
".C.r.D.E.E.E.E.E.E.E.F.G.H.H.H.H.H.H.H.I.B.J.J.K.L.L.L.L.L.M.r",
".N.r.O.P.Q.Q.Q.Q.Q.Q.F.G.H.H.H.H.H.H.H.I.B.R.R.S.S.S.S.T.T.U.V",
".W.V.X.Y.Y.Y.Z.Z.Z.0.Q.G.H.1.......2.H.I.B.R.R.R.3.3.3.3.4.U.r",
".5.r.6.7.7.7.7.7.Z.Z.7.G.H.1.8.9.@.2.H.I.B.#.#.#.#.#.;.;.:.=.r",
".+.r.%.$.$.$.(.).).).[.G.H.1.],.,,.2.H.I.B,-,-,-,-,*,*,*,a,b,c",
",d,c,e,f,g,h,h,h,h,h,i.G.H.1.......2.H.I.B,j,k,l,l,l,l,l,m,n,o",
",p,o,q,r,s,s,s,s,t,t,u.G.H.H.H.H.H.H.H.I.B,v,w,w,w,x,x,x,y,q.f",
",z.f,A,B,B,C,C,C,D,D,E.G.H.H.H.H.H.H.H.I.B,F,F,G,G,G,G,H,I,J,K",
",L,K,M,N,N,N,N,O,P,P,Q...................B,R,R,R,R,S,T,T,U,J.f",
",V.f,W,T,T,T,U,U,U,U,U,U,X,X,X,X,X,Y,Z,Z,Z,Z,Z,0,1,1,1,1,2,3.f",
",4.f,5,6,2,2,2,2,2,7,8,8,8,8,8,9,9,@,@,@,@,#,#,;,;,;,;,:,=,+,%",
",$,%,(,),),),[,[,[,[,[,[,[,[,[,]-.-.-,-,-,---.-.-,-,-,-*-*-a.f",
"-b............................................................",
"-c-c-c-c-c-c-c-c-c-c-c-c-c-c-c-c-c-c-c-c-c-c-c-c-c-c-c-c-c-c-c",
"-d-d-d-d-d-d-d-d-d-d-d-d-d-d-d-d-d-d-d-d-d-d-d-d-d-d-d-d-d-d-d",
"-e-e-e-e-e-e-e-e-e-e-e-e-e-e-e-e-e-e-e-e-e-e-e-e-e-e-e-e-e-e-f"}
