/* XPM */
static char *graphic[] = {
"31 24 167 2",
".. c #1B2231",
"., c #8793A4",
".- c #8893A4",
".* c #55657D",
".a c #54667D",
".b c #52637B",
".c c #1C2333",
".d c #2B3443",
".e c #4F6079",
".f c #212939",
".g c #7C899B",
".h c #637288",
".i c #627188",
".j c #7A879A",
".k c #4B5D76",
".l c #1D3353",
".m c #203555",
".n c #778598",
".o c #202838",
".p c #485973",
".q c #788598",
".r c #748195",
".s c #465771",
".t c #768396",
".u c #1D3352",
".v c #1B2331",
".w c #1F3554",
".x c #717F93",
".y c #445671",
".z c #738194",
".A c #1D2433",
".B c #FFFFFF",
".C c #FCFCFD",
".D c #1F3555",
".E c #1F3556",
".F c #203656",
".G c #223857",
".H c #707E93",
".I c #435671",
".J c #717F94",
".K c #203657",
".L c #213757",
".M c #213758",
".N c #23395A",
".O c #243A5A",
".P c #243A5B",
".Q c #263C5C",
".R c #707F94",
".S c #1F2838",
".T c #435672",
".U c #718095",
".V c #253B5B",
".W c #253B5C",
".X c #263C5B",
".Y c #FDFDFD",
".Z c #1F2534",
".0 c #283E5E",
".1 c #283E5F",
".2 c #2B4160",
".3 c #6F7E94",
".4 c #425671",
".5 c #293F5F",
".6 c #293F60",
".7 c #2A4060",
".8 c #2A3F60",
".9 c #1B2332",
".@ c #2B4161",
".# c #2A4062",
".; c #1C2331",
".: c #2C4263",
".= c #2D4363",
".+ c #2D4364",
".% c #2F4465",
".$ c #707F95",
".( c #2C4261",
".) c #718096",
".[ c #2E4464",
".] c #2E4465",
",. c #2E4364",
",, c #2F4566",
",- c #2E4466",
",* c #304667",
",a c #314768",
",b c #334869",
",c c #707F96",
",d c #202839",
",e c #2F4564",
",f c #718097",
",g c #314769",
",h c #324869",
",i c #324769",
",j c #344A6B",
",k c #344A6C",
",l c #354B6C",
",m c #374C6E",
",n c #707F97",
",o c #202939",
",p c #324766",
",q c #718199",
",r c #354B6D",
",s c #364C6D",
",t c #364C6E",
",u c #374C6D",
",v c #384E70",
",w c #394F70",
",x c #394F71",
",y c #3C5172",
",z c #354A69",
",A c #72829A",
",B c #3A5071",
",C c #3A5072",
",D c #3B5172",
",E c #3B5071",
",F c #3D5374",
",G c #3D5375",
",H c #3E5475",
",I c #405576",
",J c #71829B",
",K c #212838",
",L c #384D6C",
",M c #72829B",
",N c #3E5476",
",O c #3F5576",
",P c #3F5577",
",Q c #3F5476",
",R c #415779",
",S c #425879",
",T c #42587A",
",U c #43597B",
",V c #3B506E",
",W c #73839C",
",X c #445A7C",
",Y c #445A7D",
",Z c #455B7D",
",0 c #455B7E",
",1 c #465C7E",
",2 c #475D7F",
",3 c #72829D",
",4 c #3E5371",
",5 c #74849E",
",6 c #465C7F",
",7 c #475D80",
",8 c #485E80",
",9 c #485E81",
",@ c #495F81",
",# c #495F82",
",; c #4A6082",
",: c #4A6083",
",= c #4B6183",
",+ c #73849F",
",% c #222939",
",$ c #415674",
",( c #7485A0",
",) c #70829D",
",[ c #70819C",
",] c #70819D",
"-. c #71829D",
"-, c #71829E",
"-- c #70829E",
"-* c #71829F",
"-a c #72839F",
"-b c #7586A1",
"-c c #445976",
"-d c #475B79",
"-e c #4A5E7C",
"-f c #374251",
"-g c #374351",
"..............................................................",
".,.,.,.,.,.,.,.,.,.,.,.,.,.,.,.,.,.,.,.,.,.,.,.,.,.,.,.,.,.,.-",
".*.*.*.*.*.*.*.*.*.*.*.*.*.*.*.*.*.*.*.*.*.*.*.*.*.*.*.*.*.*.a",
".b.c.d.d.d.d.d.d.d.d.d.d.d.d.d.d.d.d.d.d.d.d.d.d.d.d.d.d.d.d.c",
".e.f.g.h.h.h.h.h.h.h.h.h.h.h.h.h.h.h.h.h.h.h.h.h.i.i.i.i.i.j.f",
".k.f.g.l.l.l.l.l.l.l.l.l.l.l.l.l.l.l.l.l.l.l.l.l.l.l.l.l.m.n.o",
".p.o.q.l.l.l.l.l.l.l.l.l.l.l.l.l.l.l.l.l.l.l.l.l.l.l.l.l.m.r.o",
".s.o.t.l.l.l.l.l.l.l.u...................v.l.l.l.l.l.l.l.w.x.o",
".y.o.z.l.l.l.l.l.l.l.u.A.B.B.B.B.B.B.B.C.v.D.D.E.F.F.F.F.G.H.o",
".I.o.J.K.L.L.L.L.L.M.G.A.B.B.B.B.B.B.B.C.v.N.N.O.O.O.O.P.Q.R.S",
".T.S.U.V.V.V.W.W.W.Q.X.A.B.Y.......Z.B.C.v.0.0.0.1.1.1.1.2.3.o",
".4.o.U.5.6.6.6.6.7.7.8.A.B.Y.9.@.#.Z.B.C.;.:.:.:.:.:.=.+.%.$.o",
".(.o.).+.+.+.[.].].],..A.B.Y.9,,,-.Z.B.C.;,*,*,*,*,a,a,a,b,c,d",
",e,d,f,a,g,h,h,h,h,h,i.A.B.Y.......Z.B.C.;,j,k,l,l,l,l,l,m,n,o",
",p,o,q,r,s,s,s,s,t,t,u.A.B.B.B.B.B.B.B.C.;,v,w,w,w,x,x,x,y,q.f",
",z.f,A,B,B,C,C,C,D,D,E.A.B.B.B.B.B.B.B.C.;,F,F,G,G,G,G,H,I,J,K",
",L,K,M,N,N,N,N,O,P,P,Q...................;,R,R,R,R,S,T,T,U,J.f",
",V.f,W,T,T,T,U,U,U,U,U,U,X,X,X,X,X,Y,Z,Z,Z,Z,Z,0,1,1,1,1,2,3.f",
",4.f,5,6,2,2,2,2,2,7,8,8,8,8,8,9,9,@,@,@,@,#,#,;,;,;,;,:,=,+,%",
",$,%,(,),),[,],],]-.-.-.-,,],]-.-.-.-------,-,-,-*-*-*-a-a-b.f",
"-c............................................................",
"-d-d-d-d-d-d-d-d-d-d-d-d-d-d-d-d-d-d-d-d-d-d-d-d-d-d-d-d-d-d-d",
"-e-e-e-e-e-e-e-e-e-e-e-e-e-e-e-e-e-e-e-e-e-e-e-e-e-e-e-e-e-e-e",
"-f-f-f-f-f-f-f-f-f-f-f-f-f-f-f-f-f-f-f-f-f-f-f-f-f-f-f-f-f-f-g"}
