/* XPM */
static char *graphic[] = {
"20 24 186 2",
".. c #262626",
"., c #949697",
".- c #67696B",
".* c #373737",
".a c #3B3B3B",
".b c #383838",
".c c #272727",
".d c #656769",
".e c #8A8A8A",
".f c #989898",
".g c #999999",
".h c #8F8F8F",
".i c #2E2E2E",
".j c #616466",
".k c #888888",
".l c #686868",
".m c #676767",
".n c #8E8E8E",
".o c #5E6163",
".p c #848484",
".q c #646464",
".r c #8B8B8B",
".s c #2D2D2D",
".t c #5B5D60",
".u c #828282",
".v c #616161",
".w c #898989",
".x c #595B5E",
".y c #818182",
".z c #5F6060",
".A c #565657",
".B c #343434",
".C c #595959",
".D c #5E5E5F",
".E c #5E5E5E",
".F c #5B5B5B",
".G c #353535",
".H c #515151",
".I c #5D5D5D",
".J c #878787",
".K c #585B5D",
".L c #818282",
".M c #616162",
".N c #545556",
".O c #717171",
".P c #2F2F2F",
".Q c #585959",
".R c #59595A",
".S c #303030",
".T c #6F6F6F",
".U c #525252",
".V c #5D5E5E",
".W c #858586",
".X c #575A5D",
".Y c #828283",
".Z c #616263",
".0 c #606062",
".1 c #363636",
".2 c #797979",
".3 c #FFFFFF",
".4 c #9B9B9B",
".5 c #545454",
".6 c #939393",
".7 c #818181",
".8 c #333333",
".9 c #5C5D5E",
".@ c #858585",
".# c #2C2C2C",
".; c #585A5D",
".: c #818283",
".= c #626364",
".+ c #616163",
".% c #595A5C",
".$ c #BEBEBE",
".( c #A6A6A6",
".) c #949494",
".[ c #CBCBCB",
".] c #575858",
",. c #5D5E5F",
",, c #848586",
",- c #56595D",
",* c #828384",
",a c #4C4D4F",
",b c #4B4D4F",
",c c #4B4C4F",
",d c #434445",
",e c #DEDEDE",
",f c #D4D4D4",
",g c #E3E3E3",
",h c #404142",
",i c #494A4C",
",j c #48494B",
",k c #838485",
",l c #2C2D2D",
",m c #43464A",
",n c #838386",
",o c #4F5053",
",p c #4E5053",
",q c #4E5052",
",r c #4E4F52",
",s c #3F3F41",
",t c #474747",
",u c #F1F1F1",
",v c #F5F5F5",
",w c #4D4D4D",
",x c #3C3D3E",
",y c #4C4D50",
",z c #838385",
",A c #46494D",
",B c #838486",
",C c #535458",
",D c #525457",
",E c #525356",
",F c #39393B",
",G c #626262",
",H c #FCFCFC",
",I c #363738",
",J c #505255",
",K c #505154",
",L c #4F5154",
",M c #4F5153",
",N c #484C50",
",O c #848588",
",P c #57595C",
",Q c #56585C",
",R c #56585B",
",S c #55575B",
",T c #323334",
",U c #505050",
",V c #303131",
",W c #535559",
",X c #545659",
",Y c #545559",
",Z c #535558",
",0 c #848688",
",1 c #2D2D2E",
",2 c #4B4E53",
",3 c #848689",
",4 c #5B5D61",
",5 c #5A5D61",
",6 c #5A5C60",
",7 c #595C60",
",8 c #585A5E",
",9 c #57595D",
",@ c #4E5156",
",# c #85878B",
",; c #5F6166",
",: c #5E6165",
",= c #5E6065",
",+ c #5D6064",
",% c #5D5F64",
",$ c #5D5F63",
",( c #5C5F63",
",) c #5C5E63",
",[ c #5C5E62",
",] c #5B5E62",
"-. c #5B5D62",
"-, c #85878A",
"-- c #505459",
"-* c #86888C",
"-a c #63656A",
"-b c #62656A",
"-c c #62646A",
"-d c #626469",
"-e c #616469",
"-f c #616368",
"-g c #606368",
"-h c #606367",
"-i c #606267",
"-j c #5F6267",
"-k c #5F6266",
"-l c #86878B",
"-m c #53575C",
"-n c #888A8E",
"-o c #84868B",
"-p c #84868A",
"-q c #83868A",
"-r c #84858A",
"-s c #838589",
"-t c #87898D",
"-u c #56595F",
"-v c #585C62",
"-w c #5B5F65",
"-x c #5E6168",
"-y c #5E6268",
"-z c #444444",
"........................................",
".,.,.,.,.,.,.,.,.,.,.,.,.,.,.,.,.,.,.,.,",
".-.-.-.-.-.-.-.-.-.-.-.-.-.-.-.-.-.-.-.-",
"...*.a.a.a.a.a.a.a.a.a.a.a.a.a.a.a.b.c.d",
"...e.f.f.g.g.g.g.g.f.f.f.f.f.f.f.f.h.i.j",
"...k.l.l.l.l.l.l.l.m.m.m.m.m.m.m.m.n.i.o",
"...p.q.q.q.q.q.q.q.q.q.q.q.q.q.q.q.r.s.t",
"...u.v.v.v.v.v.v.v.v.v.v.v.v.v.v.v.w.s.x",
"...y.v.v.z.A.B.C.D.E.E.F.G.H.I.I.I.J.s.K",
"...L.M.M.N.i.O.P.Q.D.R.S.T.P.U.E.V.W.s.X",
"...Y.Z.0.1.2.3.4.i.5.S.6.3.7.8.D.9.@.#.;",
"...:.=.+.%.s.$.3.(.c.).3.[.P.].D,.,,.#,-",
"..,*,a,b,c,d.G,e.3,f.3,g.*,h,i,j,j,k,l,m",
"..,n,o,p,q,r,s,t,u.3,v,w,x,y,a,b,c,z.s,A",
"..,B,C,D,D,D,E,F,G,H.T,I,J,K,K,L,M,B.s,N",
"..,O,P,Q,Q,R,R,S,T,U,V,W,X,X,Y,Z,Z,0,1,2",
"..,3,4,5,6,6,6,7,R,T,X,8,8,8.;,9,9,3,l,@",
"..,#,;,:,:,=,=,+,%,%,$,(,),[,[,]-.-,.s--",
"..-*-a-b-b-c-d-e-e-f-f-g-h-i-i-j-k-l.s-m",
"..-n,#-o-o-p-p-q-p-p-r-p-p-p-r-s-q-t,1-u",
"......................................-v",
"-w-w-w-w-w-w-w-w-w-w-w-w-w-w-w-w-w-w-w-w",
"-x-x-x-x-x-x-x-x-x-x-x-x-y-y-y-y-y-y-y-y",
"-z-z-z-z-z-z-z-z-z-z-z-z-z-z-z-z-z-z-z-z"}
