/* XPM */
static char *graphic[] = {
"20 24 179 2",
".. c #1B2231",
"., c #8793A4",
".- c #55657D",
".* c #2B3443",
".a c #1C2333",
".b c #52637B",
".c c #7A879A",
".d c #627188",
".e c #637288",
".f c #7C899B",
".g c #212939",
".h c #4F6079",
".i c #778598",
".j c #1D3353",
".k c #4B5D76",
".l c #748195",
".m c #788598",
".n c #202838",
".o c #485973",
".p c #717F93",
".q c #768396",
".r c #465771",
".s c #707E92",
".t c #203656",
".u c #1E314F",
".v c #1C263A",
".w c #1F3351",
".x c #1E3455",
".y c #1E3454",
".z c #1E3351",
".A c #1C273A",
".B c #1D2F4B",
".C c #738194",
".D c #445671",
".E c #707F94",
".F c #243A5B",
".G c #243A5A",
".H c #223552",
".I c #202737",
".J c #6A6E78",
".K c #1C2638",
".L c #223655",
".M c #223859",
".N c #213654",
".O c #686D76",
".P c #202939",
".Q c #20324F",
".R c #213757",
".S c #717F94",
".T c #435671",
".U c #293F5F",
".V c #283E5F",
".W c #1F2A3E",
".X c #72767F",
".Y c #FFFFFF",
".Z c #9599A0",
".0 c #1D2637",
".1 c #253854",
".2 c #1D2638",
".3 c #8D9198",
".4 c #7B7F87",
".5 c #1E283B",
".6 c #253B5B",
".7 c #1F2838",
".8 c #435672",
".9 c #707F95",
".@ c #2D4364",
".# c #2C4263",
".; c #2A3F5D",
".: c #1E2737",
".= c #BBBDC2",
".+ c #A1A4AA",
".% c #1C2332",
".$ c #8E9299",
".( c #C8CACE",
".) c #283C5A",
".[ c #293F60",
".] c #718095",
",. c #425671",
",, c #707F96",
",- c #314768",
",* c #304667",
",a c #2B3E5B",
",b c #2A3140",
",c c #DCDDDF",
",d c #D1D3D6",
",e c #E1E2E4",
",f c #2E3342",
",g c #293B58",
",h c #2E4465",
",i c #718096",
",j c #2C4261",
",k c #708098",
",l c #354B6C",
",m c #344A6C",
",n c #2A3A54",
",o c #3E4451",
",p c #F1F1F2",
",q c #F4F5F5",
",r c #444A56",
",s c #293952",
",t c #324869",
",u c #314769",
",v c #718097",
",w c #202839",
",x c #2F4564",
",y c #718199",
",z c #394F71",
",A c #394F70",
",B c #384E70",
",C c #27344B",
",D c #5A5F6A",
",E c #FBFCFC",
",F c #263349",
",G c #374D6E",
",H c #364C6E",
",I c #364C6D",
",J c #324766",
",K c #71829B",
",L c #3E5475",
",M c #3D5375",
",N c #3D5374",
",O c #3B5273",
",P c #242E42",
",Q c #474C59",
",R c #222C40",
",S c #3A5071",
",T c #3B5173",
",U c #3B5172",
",V c #3A5072",
",W c #72829A",
",X c #354A69",
",Y c #42587A",
",Z c #415779",
",0 c #415778",
",1 c #3D5273",
",2 c #242F42",
",3 c #3C5071",
",4 c #3F5577",
",5 c #3F5576",
",6 c #3E5476",
",7 c #72829B",
",8 c #212838",
",9 c #384D6C",
",@ c #72839E",
",# c #465C7E",
",; c #455B7D",
",: c #445A7D",
",= c #445A7C",
",+ c #43597B",
",% c #73839C",
",$ c #3B506E",
",( c #73849F",
",) c #4A6083",
",[ c #4A6082",
",] c #495F82",
"-. c #495F81",
"-, c #485E81",
"-- c #485E80",
"-* c #475D80",
"-a c #475D7F",
"-b c #73849D",
"-c c #3E5371",
"-d c #7586A1",
"-e c #72839F",
"-f c #71829F",
"-g c #71829E",
"-h c #70829E",
"-i c #71829D",
"-j c #70819D",
"-k c #70819C",
"-l c #70829D",
"-m c #7586A0",
"-n c #222939",
"-o c #415674",
"-p c #445976",
"-q c #475B79",
"-r c #4A5E7C",
"-s c #374251",
"........................................",
".,.,.,.,.,.,.,.,.,.,.,.,.,.,.,.,.,.,.,.,",
".-.-.-.-.-.-.-.-.-.-.-.-.-.-.-.-.-.-.-.-",
"...*.*.*.*.*.*.*.*.*.*.*.*.*.*.*.*.*.a.b",
"...c.d.d.e.e.e.e.e.e.e.e.e.e.e.e.e.f.g.h",
"...i.j.j.j.j.j.j.j.j.j.j.j.j.j.j.j.f.g.k",
"...l.j.j.j.j.j.j.j.j.j.j.j.j.j.j.j.m.n.o",
"...p.j.j.j.j.j.j.j.j.j.j.j.j.j.j.j.q.n.r",
"...s.t.t.t.u.v.w.x.y.y.z.A.B.j.j.j.C.n.D",
"...E.F.G.H.I.J.K.L.M.N.K.O.P.Q.R.R.S.n.T",
"...E.U.V.W.X.Y.Z.0.1.2.3.Y.4.5.6.6.E.7.8",
"...9.@.#.;.:.=.Y.+.%.$.Y.(.g.).[.[.].n,.",
"..,,,-,-,*,a,b,c.Y,d.Y,e,f,g,h.@.@,i.n,j",
"..,k,l,l,l,m,n,o,p.Y,q,r,s,t,t,t,u,v,w,x",
"..,y,z,z,A,A,B,C,D,E.O,F,G,H,H,I,I,y.P,J",
"..,K,L,M,M,N,N,O,P,Q,R,S,T,U,V,V,S,W.g,X",
"..,K,Y,Y,Z,Z,Z,0,1,2,3,4,4,4,5,6,6,7,8,9",
"..,@,#,#,#,;,;,;,:,=,=,=,+,+,+,+,Y,%.g,$",
"..,(,),[,[,],]-.-.-,-------*-a-a-a-b.g-c",
"..-d-e-f-f-g-h-h-i-i-j-g-i-i-j-k-l-m-n-o",
"......................................-p",
"-q-q-q-q-q-q-q-q-q-q-q-q-q-q-q-q-q-q-q-q",
"-r-r-r-r-r-r-r-r-r-r-r-r-r-r-r-r-r-r-r-r",
"-s-s-s-s-s-s-s-s-s-s-s-s-s-s-s-s-s-s-s-s"}
