/* XPM */
static char *graphic[] = {
"20 24 189 2",
".. c #1B2231",
"., c #8793A4",
".- c #55657D",
".* c #1C2536",
".a c #1B2232",
".b c #52637B",
".c c #7B889A",
".d c #717F93",
".e c #728094",
".f c #7C899B",
".g c #212939",
".h c #4F6079",
".i c #778598",
".j c #57677F",
".k c #56667E",
".l c #808C9E",
".m c #4B5D76",
".n c #758296",
".o c #51627B",
".p c #7D8A9C",
".q c #485973",
".r c #4E5F78",
".s c #4D5E77",
".t c #798699",
".u c #202838",
".v c #465771",
".w c #707F93",
".x c #4D5E78",
".y c #44536C",
".z c #273043",
".A c #475770",
".B c #4A5C76",
".C c #475871",
".D c #273143",
".E c #404F66",
".F c #495B75",
".G c #768497",
".H c #445671",
".I c #717F94",
".J c #4C5E79",
".K c #4C5E78",
".L c #43526A",
".M c #232A3A",
".N c #6A6E78",
".O c #222B3C",
".P c #465770",
".Q c #4A5C77",
".R c #45566F",
".S c #232C3D",
".T c #686D76",
".U c #232B3B",
".V c #3F4E66",
".W c #485A75",
".X c #748296",
".Y c #435671",
".Z c #707F94",
".0 c #4B5E79",
".1 c #4B5D79",
".2 c #283245",
".3 c #72767F",
".4 c #FFFFFF",
".5 c #9599A0",
".6 c #222A3B",
".7 c #415069",
".8 c #232B3D",
".9 c #8D9198",
".@ c #7B7F87",
".# c #262F41",
".; c #475A75",
".: c #748297",
".= c #1F2838",
".+ c #435672",
".% c #717F96",
".$ c #4B5E7A",
".( c #4B5D7A",
".) c #465772",
".[ c #212A3A",
".] c #BBBDC2",
",. c #A1A4AA",
",, c #1C2332",
",- c #8E9299",
",* c #C8CACE",
",a c #242B3B",
",b c #42536D",
",c c #475A76",
",d c #738297",
",e c #425671",
",f c #707F96",
",g c #334869",
",h c #324768",
",i c #2D3F5B",
",j c #2A3140",
",k c #DCDDDF",
",l c #D1D3D6",
",m c #E1E2E4",
",n c #2E3342",
",o c #2B3C59",
",p c #304566",
",q c #2F4465",
",r c #718096",
",s c #2C4261",
",t c #708098",
",u c #354B6C",
",v c #344A6C",
",w c #2A3A54",
",x c #3E4451",
",y c #F1F1F2",
",z c #F4F5F5",
",A c #444A56",
",B c #293952",
",C c #324869",
",D c #314769",
",E c #728197",
",F c #202839",
",G c #2F4564",
",H c #718199",
",I c #394F71",
",J c #394F70",
",K c #384E70",
",L c #27344B",
",M c #5A5F6A",
",N c #FBFCFC",
",O c #263349",
",P c #374D6E",
",Q c #364C6E",
",R c #364C6D",
",S c #202939",
",T c #324766",
",U c #71829B",
",V c #3E5475",
",W c #3D5375",
",X c #3D5374",
",Y c #3B5273",
",Z c #242E42",
",0 c #474C59",
",1 c #222C40",
",2 c #3A5071",
",3 c #3B5173",
",4 c #3B5172",
",5 c #3A5072",
",6 c #72829A",
",7 c #354A69",
",8 c #72839C",
",9 c #42587A",
",@ c #415779",
",# c #415778",
",; c #3D5273",
",: c #242F42",
",= c #3C5071",
",+ c #3F5577",
",% c #3F5576",
",$ c #3E5476",
",( c #72829B",
",) c #212838",
",[ c #384D6C",
",] c #72839E",
"-. c #465C7E",
"-, c #455B7D",
"-- c #445A7D",
"-* c #445A7C",
"-a c #43597B",
"-b c #73839C",
"-c c #3B506E",
"-d c #73849F",
"-e c #4A6083",
"-f c #4A6082",
"-g c #495F82",
"-h c #495F81",
"-i c #485E81",
"-j c #485E80",
"-k c #475D80",
"-l c #475D7F",
"-m c #74849E",
"-n c #3E5371",
"-o c #7586A1",
"-p c #71839E",
"-q c #70829E",
"-r c #71829E",
"-s c #70829D",
"-t c #71829D",
"-u c #70819D",
"-v c #70819C",
"-w c #7586A0",
"-x c #222939",
"-y c #415674",
"-z c #445976",
"-A c #475B79",
"-B c #4A5E7C",
"-C c #374251",
"........................................",
".,.,.,.,.,.,.,.,.,.,.,.,.,.,.,.,.,.,.,.,",
".-.-.-.-.-.-.-.-.-.-.-.-.-.-.-.-.-.-.-.-",
"...*.*.*.*.*.*.*.*.*.*.*.*.*.*.*.*.*.a.b",
"...c.d.d.d.e.e.e.e.e.e.e.e.e.e.e.e.f.g.h",
"...i.j.j.j.j.j.j.j.k.k.k.k.k.k.k.k.l.g.m",
"...n.b.b.b.b.b.b.b.b.b.b.b.b.o.o.o.p.g.q",
"...d.h.r.r.r.r.r.r.r.r.r.r.r.r.r.s.t.u.v",
"...w.x.x.x.y.z.A.B.B.B.C.D.E.F.F.F.G.u.H",
"...I.J.K.L.M.N.O.P.Q.R.S.T.U.V.W.W.X.u.Y",
"...Z.0.1.2.3.4.5.6.7.8.9.4.@.#.;.;.:.=.+",
"...%.$.(.).[.].4,.,,,-.4,*,a,b,c,c,d.u,e",
"..,f,g,g,h,i,j,k.4,l.4,m,n,o,p,q,q,r.u,s",
"..,t,u,u,u,v,w,x,y.4,z,A,B,C,C,C,D,E,F,G",
"..,H,I,I,J,J,K,L,M,N.T,O,P,Q,Q,R,R,H,S,T",
"..,U,V,W,W,X,X,Y,Z,0,1,2,3,4,5,5,2,6.g,7",
"..,8,9,9,@,@,@,#,;,:,=,+,+,+,%,$,$,(,),[",
"..,]-.-.-.-,-,-,---*-*-*-a-a-a-a,9-b.g-c",
"..-d-e-f-f-g-g-h-h-i-j-j-j-k-l-l-l-m.g-n",
"..-o-p-q-q-r-q-q-s-t-u-u-u-u-u-v-v-w-x-y",
"......................................-z",
"-A-A-A-A-A-A-A-A-A-A-A-A-A-A-A-A-A-A-A-A",
"-B-B-B-B-B-B-B-B-B-B-B-B-B-B-B-B-B-B-B-B",
"-C-C-C-C-C-C-C-C-C-C-C-C-C-C-C-C-C-C-C-C"}
