/* XPM */
static char *graphic[] = {
"6 4 3 1",
". c #444444",
", c #666666",
"- c #262626",
".,,,,-",
".,,,,-",
".,,,,-",
".,,,,-"}
