/* XPM */
static char *graphic[] = {
"5 24 26 1",
". c #262626",
", c #929292",
"- c #696969",
"* c #666666",
"a c #626262",
"b c #5F5F5F",
"c c #5C5C5C",
"d c #595959",
"e c #585858",
"f c #575757",
"g c #565656",
"h c #464646",
"i c #474747",
"j c #494949",
"k c #4A4A4A",
"l c #4C4C4C",
"m c #4F4F4F",
"n c #525252",
"o c #555555",
"p c #5A5A5A",
"q c #5B5B5B",
"r c #5D5D5D",
"s c #5E5E5E",
"t c #606060",
"u c #636363",
"v c #444444",
".....",
",,,,,",
"-----",
"*****",
"aaaaa",
"bbbbb",
"ccccc",
"ddddd",
"eeeee",
"eeeee",
"fffff",
"ggggg",
"hiiii",
"jjjjk",
"lllll",
"mmmmm",
"nnnnn",
"ooooo",
"eeeee",
"ppqqq",
"rrrrs",
"ttttt",
"uuuuu",
"vvvvv"}
