/* XPM */
static char *graphic[] = {
"5 24 31 1",
". c #1B2231",
", c #8390A1",
"- c #55657D",
"* c #51627B",
"a c #4D5E77",
"b c #495B75",
"c c #465872",
"d c #42556F",
"e c #41546F",
"f c #40536F",
"g c #40536E",
"h c #3E526E",
"i c #2C4161",
"j c #2C4261",
"k c #2F4463",
"l c #2F4464",
"m c #2F4564",
"n c #324766",
"o c #354A69",
"p c #384D6B",
"q c #384D6C",
"r c #3B506E",
"s c #3E5371",
"t c #415573",
"u c #415574",
"v c #415674",
"w c #445876",
"x c #445976",
"y c #475B79",
"z c #4A5E7C",
"A c #374251",
".....",
",,,,,",
"-----",
"*****",
"aaaaa",
"bbbbb",
"ccccc",
"ddddd",
"eeeee",
"fffff",
"ggggf",
"hhhhh",
"ijjjj",
"kkklm",
"nnnnn",
"ooooo",
"ppqqq",
"rrrrr",
"sssss",
"tuvvv",
"wwwwx",
"yyyyy",
"zzzzz",
"AAAAA"}
