/* XPM */
static char *graphic[] = {
"6 24 49 1",
". c None",
", c #2F2F2F",
"- c #282828",
"* c #262626",
"a c #2D2D2D",
"b c #29292A",
"c c #484A4C",
"d c #5E6064",
"e c #66696D",
"f c #2F2F30",
"g c #5E6165",
"h c #65686D",
"i c #2C2D2D",
"j c #525458",
"k c #62656A",
"l c #272727",
"m c #5D6065",
"n c #5E6166",
"o c #5B5E63",
"p c #585B60",
"q c #575A5F",
"r c #575A5E",
"s c #56595D",
"t c #56595E",
"u c #2A2A2A",
"v c #56585D",
"w c #55575B",
"x c #55575C",
"y c #45484C",
"z c #484A4E",
"A c #484B4E",
"B c #484B4F",
"C c #4B4D51",
"D c #4E5053",
"E c #515356",
"F c #545558",
"G c #545658",
"H c #57585B",
"I c #5A5B5D",
"J c #5C5E5F",
"K c #5D5E5F",
"L c #5D5E60",
"M c #5F6062",
"N c #606162",
"O c #626364",
"P c #636364",
"Q c #636365",
"R c #656667",
"S c #666667",
"...,-*",
".abcde",
".fghhh",
"ijkkkk",
"lmnnnn",
"*ooooo",
"*ppppp",
"*qqqqq",
"*rrrrr",
"*stttt",
"uvvvvv",
"*wwxxx",
"*yyyyy",
"*zzAAB",
"*CCCCC",
"*DDDDD",
"*EEEEE",
"*FFGGG",
"*HHHHH",
"*IIIII",
"*JKLLL",
"*MMNNN",
"*OOPQQ",
"*RRRSS"}
