/* XPM */
static char *graphic[] = {
"6 24 51 1",
". c #1B2231",
", c #1D2534",
"- c #242C3C",
"* c None",
"a c #56667D",
"b c #4E5D72",
"c c #3A475A",
"d c #1E2636",
"e c #20293A",
"f c #55657D",
"g c #4F5E74",
"h c #222B3B",
"i c #51627B",
"j c #425167",
"k c #202939",
"l c #4E5F78",
"m c #4D5E76",
"n c #1B2332",
"o c #4A5C75",
"p c #465872",
"q c #455772",
"r c #445772",
"s c #445771",
"t c #435671",
"u c #435571",
"v c #425571",
"w c #425570",
"x c #415570",
"y c #1E2535",
"z c #415470",
"A c #2E4463",
"B c #2E4363",
"C c #2E4362",
"D c #314665",
"E c #344968",
"F c #374C6A",
"G c #364C6A",
"H c #364B6A",
"I c #394E6D",
"J c #3C516F",
"K c #3F5472",
"L c #425775",
"M c #425674",
"N c #455977",
"O c #445977",
"P c #475C7A",
"Q c #475C79",
"R c #4A5F7C",
"S c #4A5E7C",
"T c #4D617F",
"U c #4D617E",
".,-***",
"abcde*",
"fffgh*",
"iiiijk",
"llllmn",
"ooooo.",
"ppppp.",
"qqqqq.",
"rssss.",
"tuuuu.",
"vvwxxy",
"zzzzz.",
"AABBC.",
"DDDDD.",
"EEEEE.",
"FFFGH.",
"IIIII.",
"JJJJJ.",
"KKKKK.",
"LMMMM.",
"NNOOO.",
"PPPQQ.",
"RRSSS.",
"TTTTU."}
