/* XPM */
static char *graphic[] = {
"6 24 50 1",
". c None",
", c #232B3C",
"- c #1D2534",
"* c #1B2231",
"a c #212939",
"b c #1E2636",
"c c #3B465A",
"d c #4E5D72",
"e c #56667D",
"f c #222C3C",
"g c #4F5E74",
"h c #55657D",
"i c #435168",
"j c #51627B",
"k c #1B2332",
"l c #4C5D75",
"m c #4D5E77",
"n c #495B75",
"o c #465872",
"p c #455772",
"q c #445771",
"r c #445772",
"s c #435571",
"t c #435671",
"u c #1E2535",
"v c #415570",
"w c #425570",
"x c #425571",
"y c #405470",
"z c #2E4362",
"A c #2E4363",
"B c #2E4463",
"C c #314665",
"D c #344968",
"E c #364B6A",
"F c #364C6A",
"G c #374C6A",
"H c #394E6D",
"I c #3C516F",
"J c #3F5472",
"K c #425674",
"L c #425775",
"M c #445977",
"N c #455977",
"O c #475C79",
"P c #475C7A",
"Q c #4A5E7C",
"R c #4A5F7C",
"S c #4D617E",
"T c #4D617F",
"...,-*",
".abcde",
".fghhh",
"aijjjj",
"klmmmm",
"*nnnnn",
"*ooooo",
"*ppppp",
"*qqqqr",
"*sssst",
"uvvwxx",
"*yyyyy",
"*zAABB",
"*CCCCC",
"*DDDDD",
"*EFFGG",
"*HHHHH",
"*IIIII",
"*JJJJJ",
"*KKKKL",
"*MMMNN",
"*OOPPP",
"*QQQRR",
"*STTTT"}
