/* XPM */
static char *graphic[] = {
"6 24 30 1",
". c #262626",
", c #282828",
"- c #2F2F2F",
"* c None",
"a c #696969",
"b c #606060",
"c c #494949",
"d c #292929",
"e c #2D2D2D",
"f c #616161",
"g c #303030",
"h c #666666",
"i c #555555",
"j c #636363",
"k c #626262",
"l c #272727",
"m c #5C5C5C",
"n c #5B5B5B",
"o c #5A5A5A",
"p c #595959",
"q c #2A2A2A",
"r c #484848",
"s c #4B4B4B",
"t c #4E4E4E",
"u c #515151",
"v c #505050",
"w c #535353",
"x c #565656",
"y c #5E5E5E",
"z c #646464",
".,-***",
"abcde*",
"aaafg*",
"hhhhie",
"jjjjkl",
"bbbbb.",
"mmmmm.",
"nnnnn.",
"nnnnn.",
"opppp.",
"pppppq",
"ppppp.",
"ccrrr.",
"sssss.",
"ttttt.",
"uuuuv.",
"wwwww.",
"xxxxx.",
"ppppp.",
"mnnnn.",
"yyyyy.",
"fffff.",
"zzjjj.",
"hhhhh."}
