/* XPM */
static char * close_inactive_xpm[] = {
"32 30 51 1",
" 	c None",
".	c #B5CEE7",
"+	c #8F99A2",
"@	c #707171",
"#	c #707070",
"$	c #969BA0",
"%	c #E5ECF3",
"&	c #DFEAF4",
"*	c #E4ECF3",
"=	c #C0D5E9",
"-	c #BED4E9",
";	c #83888D",
">	c #B7CCDF",
",	c #B8CCE0",
"'	c #84898E",
")	c #FFFFFF",
"!	c #DDDDDD",
"~	c #7F7F80",
"{	c #B1C4D6",
"]	c #B2C5D7",
"^	c #7E7F80",
"/	c #DBDBDB",
"(	c #7D8184",
"_	c #E7E7E7",
":	c #E6E6E6",
"<	c #7E7F7F",
"[	c #7E7E7F",
"}	c #E4E4E4",
"|	c #E9E9E9",
"1	c #7C7F83",
"2	c #B5C9DB",
"3	c #818182",
"4	c #EBEBEB",
"5	c #E5E5E5",
"6	c #EDEDED",
"7	c #848484",
"8	c #B4C7DA",
"9	c #ADBFCF",
"0	c #818181",
"a	c #EEEEEE",
"b	c #838484",
"c	c #ABBBCC",
"d	c #B1C3D5",
"e	c #EAEAEA",
"f	c #7F8080",
"g	c #B0C1D2",
"h	c #B7CBDE",
"i	c #808181",
"j	c #7F8081",
"k	c #7F8387",
"l	c #B1C3D4",
"                                ",
"................................",
"................................",
"................................",
"................................",
"................................",
"...+@######################@+...",
"..+$%&&&&&&&&&&&&&&&&&&&&&&%$+..",
"..@*=----------------------=*@..",
"..#&------------------------&#..",
"..#&--------#;>--,'#--------&#..",
"..#&-------#)!~{]^/)#-------&#..",
"..#&-------(_):<[})|1-------&#..",
"..#&-------234):5)678-------&#..",
"..#&--------904))abc--------&#..",
"..#&--------d[:))efg--------&#..",
"..#&-------hi_)||)|jh-------&#..",
"..#&-------k})|^<|)}k-------&#..",
"..#&-------#)}~llj})#-------&#..",
"..#&--------#kh--hk#--------&#..",
"..#&------------------------&#..",
"..@*=----------------------=*@..",
"..+$%&&&&&&&&&&&&&&&&&&&&&&%$+..",
"...+@######################@+...",
"................................",
"................................",
"................................",
"................................",
"................................",
"                                "};
