/* XPM */
static char * close_active_xpm[] = {
"32 30 100 2",
"  	c None",
". 	c #B5CEE7",
"+ 	c #B4CCE5",
"@ 	c #909CA7",
"# 	c #777A7D",
"$ 	c #707070",
"% 	c #909CA8",
"& 	c #948784",
"* 	c #E8D2CE",
"= 	c #F5D6D0",
"- 	c #F4D4CD",
"; 	c #938683",
"> 	c #77797C",
", 	c #E7D1CB",
"' 	c #E9B0A3",
") 	c #E7A698",
"! 	c #E9B0A4",
"~ 	c #E7D0CC",
"{ 	c #F3D4CD",
"] 	c #E6A395",
"^ 	c #F2CFC9",
"/ 	c #E59F92",
"( 	c #8C7B78",
"_ 	c #DB9B8F",
": 	c #DC9B8F",
"< 	c #8D7C79",
"[ 	c #F1CDC7",
"} 	c #E39B8E",
"| 	c #FFFFFF",
"1 	c #DDDDDD",
"2 	c #807E7D",
"3 	c #D09489",
"4 	c #D2958A",
"5 	c #807D7D",
"6 	c #DBDBDB",
"7 	c #F0CCC5",
"8 	c #E1988A",
"9 	c #837774",
"0 	c #E7E7E7",
"a 	c #E6E6E6",
"b 	c #7F7D7C",
"c 	c #7F7C7C",
"d 	c #E4E4E4",
"e 	c #E9E9E9",
"f 	c #817674",
"g 	c #EFCBC4",
"h 	c #DF9688",
"i 	c #D39285",
"j 	c #818180",
"k 	c #EBEBEB",
"l 	c #E5E5E5",
"m 	c #EDEDED",
"n 	c #848382",
"o 	c #D19185",
"p 	c #E3B1A7",
"q 	c #C7624E",
"r 	c #B46454",
"s 	c #81807F",
"t 	c #EEEEEE",
"u 	c #838383",
"v 	c #B26656",
"w 	c #DCA397",
"x 	c #B9462F",
"y 	c #AE4E3B",
"z 	c #7E7B7B",
"A 	c #EAEAEA",
"B 	c #7F7E7D",
"C 	c #AB4E3B",
"D 	c #DEA59A",
"E 	c #BC4B34",
"F 	c #B54F3A",
"G 	c #807D7C",
"H 	c #DFA99E",
"I 	c #BE523D",
"J 	c #7F6A66",
"K 	c #7E7D7D",
"L 	c #7E7D7C",
"M 	c #E1ADA2",
"N 	c #C25A45",
"O 	c #B45F4E",
"P 	c #7F7D7D",
"Q 	c #C6634F",
"R 	c #806D69",
"S 	c #BE6553",
"T 	c #806E6A",
"U 	c #E6B9B1",
"V 	c #CA6B59",
"W 	c #E6BAB1",
"X 	c #DEC0BA",
"Y 	c #D38373",
"Z 	c #CD7462",
"` 	c #D38474",
" .	c #DEC0B9",
"..	c #8E7D79",
"+.	c #DFC1BC",
"@.	c #E9C1B9",
"#.	c #E8BDB5",
"$.	c #DFC2BC",
"%.	c #8F7D7A",
"&.	c #919DA9",
"                                                                ",
". . . . . . . . . . . . . . . . . . . . . . . . . . . . . . . . ",
". . . . . . . . . . . . . . . . . . . . . . . . . . . . . . . . ",
". . . . . . . . . . . . . . . . . . . . . . . . . . . . . . . . ",
". . . . . . . . . . . . . . . . . . . . . . . . . . . . . . . . ",
". . . . . . . . . . . . . . . . . . . . . . . . . . . . . . . . ",
". . + @ # $ $ $ $ $ $ $ $ $ $ $ $ $ $ $ $ $ $ $ $ $ $ # % + . . ",
". . % & * = - - - - - - - - - - - - - - - - - - - - = * ; % . . ",
". . > , ' ) ) ) ) ) ) ) ) ) ) ) ) ) ) ) ) ) ) ) ) ) ) ! ~ # . . ",
". . $ { ] ] ] ] ] ] ] ] ] ] ] ] ] ] ] ] ] ] ] ] ] ] ] ] { $ . . ",
". . $ ^ / / / / / / / / $ ( _ / / : < $ / / / / / / / / ^ $ . . ",
". . $ [ } } } } } } } $ | 1 2 3 4 5 6 | $ } } } } } } } [ $ . . ",
". . $ 7 8 8 8 8 8 8 8 9 0 | a b c d | e f 8 8 8 8 8 8 8 7 $ . . ",
". . $ g h h h h h h h i j k | a l | m n o h h h h h h h g $ . . ",
". . $ p q q q q q q q q r s k | | t u v q q q q q q q q p $ . . ",
". . $ w x x x x x x x x y z a | | A B C x x x x x x x x w $ . . ",
". . $ D E E E E E E E F G 0 | e e | e b F E E E E E E E D $ . . ",
". . $ H I I I I I I I J d | e K L e | d J I I I I I I I H $ . . ",
". . $ M N N N N N N N $ | d b O O P d | $ N N N N N N N M $ . . ",
". . $ p Q Q Q Q Q Q Q Q $ R S Q Q S T $ Q Q Q Q Q Q Q Q p $ . . ",
". . $ U V V V V V V V V V V V V V V V V V V V V V V V V W $ . . ",
". . > X Y Z Z Z Z Z Z Z Z Z Z Z Z Z Z Z Z Z Z Z Z Z Z `  .# . . ",
". . % ..+.@.#.#.#.#.#.#.#.#.#.#.#.#.#.#.#.#.#.#.#.#.@.$.%.&.. . ",
". . + &.# $ $ $ $ $ $ $ $ $ $ $ $ $ $ $ $ $ $ $ $ $ $ # &.+ . . ",
". . . . . . . . . . . . . . . . . . . . . . . . . . . . . . . . ",
". . . . . . . . . . . . . . . . . . . . . . . . . . . . . . . . ",
". . . . . . . . . . . . . . . . . . . . . . . . . . . . . . . . ",
". . . . . . . . . . . . . . . . . . . . . . . . . . . . . . . . ",
". . . . . . . . . . . . . . . . . . . . . . . . . . . . . . . . ",
"                                                                "};
