/* XPM */
static char * close_pressed_xpm[] = {
"32 30 99 2",
"  	c None",
". 	c #B5CEE7",
"+ 	c #B4CCE5",
"@ 	c #909CA7",
"# 	c #777A7D",
"$ 	c #707070",
"% 	c #909CA8",
"& 	c #917F7C",
"* 	c #E4C5C2",
"= 	c #EFC4BF",
"- 	c #EEC1BB",
"; 	c #917E7C",
"> 	c #77797C",
", 	c #E3C2BF",
"' 	c #DF8C81",
") 	c #DB7E72",
"! 	c #DF8C82",
"~ 	c #E3C3BE",
"{ 	c #EDBFBA",
"] 	c #D8776C",
"^ 	c #EBB7B2",
"/ 	c #D76F65",
"( 	c #89706E",
"_ 	c #CE6F66",
": 	c #CF6F65",
"< 	c #8A706D",
"[ 	c #EAB3AF",
"} 	c #D5675E",
"| 	c #FFFFFF",
"1 	c #DDDDDD",
"2 	c #7F7B7B",
"3 	c #C46860",
"4 	c #C66861",
"5 	c #7F7B7A",
"6 	c #DBDBDB",
"7 	c #E9B0AB",
"8 	c #D26057",
"9 	c #806D6C",
"0 	c #E7E7E7",
"a 	c #E6E6E6",
"b 	c #7E7B7A",
"c 	c #E4E4E4",
"d 	c #E9E9E9",
"e 	c #7F6D6C",
"f 	c #E7AEAA",
"g 	c #CF5D55",
"h 	c #C45F58",
"i 	c #817F7F",
"j 	c #EBEBEB",
"k 	c #E5E5E5",
"l 	c #EDEDED",
"m 	c #848281",
"n 	c #C35F58",
"o 	c #D39997",
"p 	c #A7322F",
"q 	c #9B3F3C",
"r 	c #EEEEEE",
"s 	c #838282",
"t 	c #9A413F",
"u 	c #C68889",
"v 	c #8C1012",
"w 	c #882123",
"x 	c #7D7A7A",
"y 	c #EAEAEA",
"z 	c #7F7D7D",
"A 	c #872223",
"B 	c #C38083",
"C 	c #870006",
"D 	c #850B10",
"E 	c #7E7B7B",
"F 	c #C38082",
"G 	c #870105",
"H 	c #745A5B",
"I 	c #7D7C7C",
"J 	c #7D7B7B",
"K 	c #745B5C",
"L 	c #C48481",
"M 	c #890803",
"N 	c #851B18",
"O 	c #CA8980",
"P 	c #951201",
"Q 	c #775D5A",
"R 	c #921B0C",
"S 	c #775E5B",
"T 	c #D89688",
"U 	c #AB2103",
"V 	c #D89789",
"W 	c #DBAC9E",
"X 	c #C9522B",
"Y 	c #C23D11",
"Z 	c #C9532C",
"` 	c #DBAD9D",
" .	c #8F766B",
"..	c #E0B7A4",
"+.	c #EAB398",
"@.	c #E9AE92",
"#.	c #E0B8A4",
"$.	c #8F776B",
"%.	c #919DA9",
"                                                                ",
". . . . . . . . . . . . . . . . . . . . . . . . . . . . . . . . ",
". . . . . . . . . . . . . . . . . . . . . . . . . . . . . . . . ",
". . . . . . . . . . . . . . . . . . . . . . . . . . . . . . . . ",
". . . . . . . . . . . . . . . . . . . . . . . . . . . . . . . . ",
". . . . . . . . . . . . . . . . . . . . . . . . . . . . . . . . ",
". . + @ # $ $ $ $ $ $ $ $ $ $ $ $ $ $ $ $ $ $ $ $ $ $ # % + . . ",
". . % & * = - - - - - - - - - - - - - - - - - - - - = * ; % . . ",
". . > , ' ) ) ) ) ) ) ) ) ) ) ) ) ) ) ) ) ) ) ) ) ) ) ! ~ # . . ",
". . $ { ] ] ] ] ] ] ] ] ] ] ] ] ] ] ] ] ] ] ] ] ] ] ] ] { $ . . ",
". . $ ^ / / / / / / / / $ ( _ / / : < $ / / / / / / / / ^ $ . . ",
". . $ [ } } } } } } } $ | 1 2 3 4 5 6 | $ } } } } } } } [ $ . . ",
". . $ 7 8 8 8 8 8 8 8 9 0 | a 2 b c | d e 8 8 8 8 8 8 8 7 $ . . ",
". . $ f g g g g g g g h i j | a k | l m n g g g g g g g f $ . . ",
". . $ o p p p p p p p p q i j | | r s t p p p p p p p p o $ . . ",
". . $ u v v v v v v v v w x a | | y z A v v v v v v v v u $ . . ",
". . $ B C C C C C C C D E 0 | d d | d E D C C C C C C C B $ . . ",
". . $ F G G G G G G G H c | d I J d | c K G G G G G G G F $ . . ",
". . $ L M M M M M M M $ | c x N N E c | $ M M M M M M M L $ . . ",
". . $ O P P P P P P P P $ Q R P P R S $ P P P P P P P P O $ . . ",
". . $ T U U U U U U U U U U U U U U U U U U U U U U U U V $ . . ",
". . > W X Y Y Y Y Y Y Y Y Y Y Y Y Y Y Y Y Y Y Y Y Y Y Z ` # . . ",
". . %  ...+.@.@.@.@.@.@.@.@.@.@.@.@.@.@.@.@.@.@.@.@.+.#.$.%.. . ",
". . + %.# $ $ $ $ $ $ $ $ $ $ $ $ $ $ $ $ $ $ $ $ $ $ # %.+ . . ",
". . . . . . . . . . . . . . . . . . . . . . . . . . . . . . . . ",
". . . . . . . . . . . . . . . . . . . . . . . . . . . . . . . . ",
". . . . . . . . . . . . . . . . . . . . . . . . . . . . . . . . ",
". . . . . . . . . . . . . . . . . . . . . . . . . . . . . . . . ",
". . . . . . . . . . . . . . . . . . . . . . . . . . . . . . . . ",
"                                                                "};
