/* XPM */
static char * hide_pressed_xpm[] = {
"32 30 56 1",
" 	c None",
".	c #B5CEE7",
"+	c #B4CCE5",
"@	c #909CA7",
"#	c #777A7D",
"$	c #707070",
"%	c #909CA8",
"&	c #82888D",
"*	c #CBD5DB",
"=	c #CDDAE4",
"-	c #CAD8E2",
";	c #82888C",
">	c #77797C",
",	c #C8D2DA",
"'	c #9AB4C6",
")	c #8EABC0",
"!	c #9AB5C7",
"~	c #C8D2D9",
"{	c #C6D5DF",
"]	c #86A6BB",
"^	c #BFD0DB",
"/	c #7FA0B7",
"(	c #BBCDD9",
"_	c #779AB3",
":	c #B8CAD7",
"<	c #7094AF",
"[	c #B4C7D5",
"}	c #688FAA",
"|	c #B0C4D3",
"1	c #6189A6",
"2	c #86A2B0",
"3	c #0C4560",
"4	c #87A8B5",
"5	c #0E516A",
"6	c #88AEBA",
"7	c #105C74",
"8	c #FEFEFE",
"9	c #89B4BF",
"0	c #12687E",
"a	c #FFFFFF",
"b	c #8ABAC4",
"c	c #147488",
"d	c #92C3CB",
"e	c #178091",
"f	c #A1C7CD",
"g	c #3398A6",
"h	c #198B9B",
"i	c #3498A7",
"j	c #A0C7CD",
"k	c #698385",
"l	c #A0CCD0",
"m	c #94CED5",
"n	c #8DCBD2",
"o	c #A1CCD0",
"p	c #698386",
"q	c #919DA9",
"                                ",
"................................",
"................................",
"................................",
"................................",
"................................",
"..+@#$$$$$$$$$$$$$$$$$$$$$$#%+..",
"..%&*=--------------------=*;%..",
"..>,'))))))))))))))))))))))!~#..",
"..${]]]]]]]]]]]]]]]]]]]]]]]]{$..",
"..$^////////////////////////^$..",
"..$(________________________($..",
"..$:<<<<<<<<<<<<<<<<<<<<<<<<:$..",
"..$[}}}}}}}}}}}}}}}}}}}}}}}}[$..",
"..$|111111111111111111111111|$..",
"..$23333333333333333333333332$..",
"..$455555555$$$$$$$$555555554$..",
"..$67777777$88888888$77777776$..",
"..$90000000$aaaaaaaa$00000009$..",
"..$bcccccccc$$$$$$$$ccccccccb$..",
"..$deeeeeeeeeeeeeeeeeeeeeeeed$..",
"..>fghhhhhhhhhhhhhhhhhhhhhhij#..",
"..%klmnnnnnnnnnnnnnnnnnnnnmopq..",
"..+q#$$$$$$$$$$$$$$$$$$$$$$#q+..",
"................................",
"................................",
"................................",
"................................",
"................................",
"                                "};
