/* XPM */
static char * hide_active_xpm[] = {
"32 30 57 1",
" 	c None",
".	c #B5CEE7",
"+	c #B4CCE5",
"@	c #909CA7",
"#	c #777A7D",
"$	c #707070",
"%	c #909CA8",
"&	c #8A8E90",
"*	c #D7DEE1",
"=	c #DDE6EB",
"-	c #DBE5EA",
";	c #898D8F",
">	c #77797C",
",	c #D4DBDF",
"'	c #B8CCD5",
")	c #B0C6D0",
"!	c #B8CCD6",
"~	c #D4DCDF",
"{	c #D7E2E7",
"]	c #AAC2CC",
"^	c #D7E3E7",
"/	c #D2DFE4",
"(	c #A4BEC8",
"_	c #CEDCE2",
":	c #9DB9C5",
"<	c #CBDAE0",
"[	c #97B5C1",
"}	c #C8D8DE",
"|	c #91B1BD",
"1	c #C5D6DC",
"2	c #8AADB9",
"3	c #AFC3CB",
"4	c #5F8697",
"5	c #B1C4CD",
"6	c #62899B",
"7	c #707171",
"8	c #B2C5CF",
"9	c #658B9E",
"0	c #FEFEFE",
"a	c #B3C7D1",
"b	c #678EA2",
"c	c #FFFFFF",
"d	c #B5C8D2",
"e	c #6A91A5",
"f	c #BACCD6",
"g	c #6D93A8",
"h	c #BBCCD6",
"i	c #BECBD3",
"j	c #7FA1B5",
"k	c #7096AC",
"l	c #80A2B6",
"m	c #7B8387",
"n	c #BFCCD4",
"o	c #BDCFD9",
"p	c #B9CCD7",
"q	c #7B8388",
"r	c #919DA9",
"                                ",
"................................",
"................................",
"................................",
"................................",
"................................",
"..+@#$$$$$$$$$$$$$$$$$$$$$$#%+..",
"..%&*=--------------------=*;%..",
"..>,'))))))))))))))))))))))!~#..",
"..${]]]]]]]]]]]]]]]]]]]]]]]]^$..",
"..$/((((((((((((((((((((((((/$..",
"..$_::::::::::::::::::::::::_$..",
"..$<[[[[[[[[[[[[[[[[[[[[[[[[<$..",
"..$}||||||||||||||||||||||||}$..",
"..$12222222222222222222222221$..",
"..$34444444444444444444444443$..",
"..$56666666677777777666666665$..",
"..$89999999700000000799999998$..",
"..$abbbbbbb$cccccccc$bbbbbbba$..",
"..$deeeeeeee$$$$$$$$eeeeeeeed$..",
"..$fggggggggggggggggggggggggh$..",
"..>ijkkkkkkkkkkkkkkkkkkkkkkli#..",
"..%mnopppppppppppppppppppponqr..",
"..+r#$$$$$$$$$$$$$$$$$$$$$$#r+..",
"................................",
"................................",
"................................",
"................................",
"................................",
"                                "};
