/* XPM */
static char * maximize_pressed_xpm[] = {
"32 30 72 1",
" 	c None",
".	c #B5CEE7",
"+	c #B4CCE5",
"@	c #909CA7",
"#	c #777A7D",
"$	c #707070",
"%	c #909CA8",
"&	c #82888D",
"*	c #CBD5DB",
"=	c #CDDAE4",
"-	c #CAD8E2",
";	c #82888C",
">	c #77797C",
",	c #C8D2DA",
"'	c #9AB4C6",
")	c #8EABC0",
"!	c #9AB5C7",
"~	c #C8D2D9",
"{	c #C6D5DF",
"]	c #86A6BB",
"^	c #BFD0DB",
"/	c #7FA0B7",
"(	c #7F9FB6",
"_	c #717171",
":	c #BBCDD9",
"<	c #779AB3",
"[	c #7799B2",
"}	c #727272",
"|	c #FFFFFF",
"1	c #B8CAD7",
"2	c #7094AF",
"3	c #7093AE",
"4	c #FEFEFE",
"5	c #B4C7D5",
"6	c #688FAA",
"7	c #688EA9",
"8	c #707171",
"9	c #B0C4D3",
"0	c #6189A6",
"a	c #6188A5",
"b	c #86A2B0",
"c	c #0C4560",
"d	c #0D4560",
"e	c #6F7070",
"f	c #87A8B5",
"g	c #0E516A",
"h	c #0F516A",
"i	c #88AEBA",
"j	c #105C74",
"k	c #115C74",
"l	c #89B4BF",
"m	c #12687E",
"n	c #13687E",
"o	c #8ABAC4",
"p	c #147488",
"q	c #157486",
"r	c #147487",
"s	c #92C3CB",
"t	c #178091",
"u	c #177F90",
"v	c #A1C7CD",
"w	c #3398A6",
"x	c #198B9B",
"y	c #3498A7",
"z	c #A0C7CD",
"A	c #698385",
"B	c #A0CCD0",
"C	c #94CED5",
"D	c #8DCBD2",
"E	c #A1CCD0",
"F	c #698386",
"G	c #919DA9",
"                                ",
"................................",
"................................",
"................................",
"................................",
"................................",
"..+@#$$$$$$$$$$$$$$$$$$$$$$#%+..",
"..%&*=--------------------=*;%..",
"..>,'))))))))))))))))))))))!~#..",
"..${]]]]]]]]]]]]]]]]]]]]]]]]{$..",
"..$^///////(________////////^$..",
"..$:<<<<<<[}||||||||$<<<<<<<:$..",
"..$12222223}||4444||$22222221$..",
"..$56666667}|4$88$||$66666665$..",
"..$9000000a}|4$00$||$00000009$..",
"..$bccccccd}|4ecc$||$cccccccb$..",
"..$fggggggh}|4$$$$||$gggggggf$..",
"..$ijjjjjjk}||||||||$jjjjjjji$..",
"..$lmmmmmmn}||||||||$mmmmmmml$..",
"..$opppppppq________rpppppppo$..",
"..$sttttttttuuuuuuuutttttttts$..",
"..>vwxxxxxxxxxxxxxxxxxxxxxxyz#..",
"..%ABCDDDDDDDDDDDDDDDDDDDDCEFG..",
"..+G#$$$$$$$$$$$$$$$$$$$$$$#G+..",
"................................",
"................................",
"................................",
"................................",
"................................",
"                                "};
