/* XPM */
static char * maximize_inactive_xpm[] = {
"32 30 20 1",
" 	c None",
".	c #B5CEE7",
"+	c #8F99A2",
"@	c #707171",
"#	c #707070",
"$	c #969BA0",
"%	c #E5ECF3",
"&	c #DFEAF4",
"*	c #E4ECF3",
"=	c #C0D5E9",
"-	c #BED4E9",
";	c #BED3E8",
">	c #BDD2E6",
",	c #717171",
"'	c #BDD3E7",
")	c #727272",
"!	c #FFFFFF",
"~	c #FEFEFE",
"{	c #BCD2E6",
"]	c #BDD3E8",
"                                ",
"................................",
"................................",
"................................",
"................................",
"................................",
"...+@######################@+...",
"..+$%&&&&&&&&&&&&&&&&&&&&&&%$+..",
"..@*=----------------------=*@..",
"..#&--------;;;;;;;;--------&#..",
"..#&------->,,,,,,,,;-------&#..",
"..#&------')!!!!!!!!#-------&#..",
"..#&------')!!~~~~!!#-------&#..",
"..#&------')!~#,,#!!#-------&#..",
"..#&------')!~@--#!!#-------&#..",
"..#&------')!~@--#!!#-------&#..",
"..#&------')!~####!!#-------&#..",
"..#&------')!!!!!!!!#-------&#..",
"..#&------')!!!!!!!!#-------&#..",
"..#&-------{,,,,,,,,]-------&#..",
"..#&--------]]]]]]]]--------&#..",
"..@*=----------------------=*@..",
"..+$%&&&&&&&&&&&&&&&&&&&&&&%$+..",
"...+@######################@+...",
"................................",
"................................",
"................................",
"................................",
"................................",
"                                "};
