/* XPM */
static char * maximize_active_xpm[] = {
"32 30 72 1",
" 	c None",
".	c #B5CEE7",
"+	c #B4CCE5",
"@	c #909CA7",
"#	c #777A7D",
"$	c #707070",
"%	c #909CA8",
"&	c #8A8E90",
"*	c #D7DEE1",
"=	c #DDE6EB",
"-	c #DBE5EA",
";	c #898D8F",
">	c #77797C",
",	c #D4DBDF",
"'	c #B8CCD5",
")	c #B0C6D0",
"!	c #B8CCD6",
"~	c #D4DCDF",
"{	c #D7E2E7",
"]	c #AAC2CC",
"^	c #AAC1CB",
"/	c #D7E3E7",
"(	c #D2DFE4",
"_	c #A4BEC8",
":	c #A3BDC6",
"<	c #717171",
"[	c #A4BEC7",
"}	c #CEDCE2",
"|	c #9DB9C5",
"1	c #9CB8C4",
"2	c #727272",
"3	c #FFFFFF",
"4	c #CBDAE0",
"5	c #97B5C1",
"6	c #96B4C0",
"7	c #FEFEFE",
"8	c #C8D8DE",
"9	c #91B1BD",
"0	c #90B0BC",
"a	c #C5D6DC",
"b	c #8AADB9",
"c	c #89ACB8",
"d	c #AFC3CB",
"e	c #5F8697",
"f	c #5F8596",
"g	c #B1C4CD",
"h	c #62899B",
"i	c #62889A",
"j	c #B2C5CF",
"k	c #658B9E",
"l	c #658A9D",
"m	c #B3C7D1",
"n	c #678EA2",
"o	c #678DA1",
"p	c #B5C8D2",
"q	c #6A91A5",
"r	c #6A8FA3",
"s	c #6A90A4",
"t	c #BACCD6",
"u	c #6D93A8",
"v	c #6D92A7",
"w	c #BBCCD6",
"x	c #BECBD3",
"y	c #7FA1B5",
"z	c #7096AC",
"A	c #80A2B6",
"B	c #7B8387",
"C	c #BFCCD4",
"D	c #BDCFD9",
"E	c #B9CCD7",
"F	c #7B8388",
"G	c #919DA9",
"                                ",
"................................",
"................................",
"................................",
"................................",
"................................",
"..+@#$$$$$$$$$$$$$$$$$$$$$$#%+..",
"..%&*=--------------------=*;%..",
"..>,'))))))))))))))))))))))!~#..",
"..${]]]]]]]]^^^^^^^^]]]]]]]]/$..",
"..$(_______:<<<<<<<<[_______($..",
"..$}||||||1233333333$|||||||}$..",
"..$45555556233777733$55555554$..",
"..$89999990237$<<$33$99999998$..",
"..$abbbbbbc237$bb$33$bbbbbbba$..",
"..$deeeeeef237$ee$33$eeeeeeed$..",
"..$ghhhhhhi237$$$$33$hhhhhhhg$..",
"..$jkkkkkkl233333333$kkkkkkkj$..",
"..$mnnnnnno233333333$nnnnnnnm$..",
"..$pqqqqqqqr<<<<<<<<sqqqqqqqp$..",
"..$tuuuuuuuuvvvvvvvvuuuuuuuuw$..",
"..>xyzzzzzzzzzzzzzzzzzzzzzzAx#..",
"..%BCDEEEEEEEEEEEEEEEEEEEEDCFG..",
"..+G#$$$$$$$$$$$$$$$$$$$$$$#G+..",
"................................",
"................................",
"................................",
"................................",
"................................",
"                                "};
