/* XPM */
static char * title_2_active_xpm[] = {
"5 30 3 1",
" 	c #6E747D",
".	c #B5CEE7",
"+	c #90A3D4",
"     ",
".....",
".....",
".....",
".....",
".....",
".....",
".....",
".....",
".....",
".....",
".....",
".....",
".....",
".....",
".....",
".....",
".....",
".....",
".....",
".....",
".....",
".....",
".....",
".....",
".....",
".....",
".....",
".....",
"+++++"};
