/* XPM */
static char * top_right_active_xpm[] = {
"27 30 12 1",
" 	c None",
".	c #6E747D",
"+	c #68717C",
"@	c #B5CEE7",
"#	c #A9B8C8",
"$	c #8F9EAF",
"%	c #AFC4DA",
"&	c #778391",
"*	c #7F8C9A",
"=	c #7F8C9B",
"-	c #90A3D4",
";	c #99ADD8",
"........................+  ",
"@@@@@@@@@@@@@@@@@@@@@@@@#  ",
"@@@@@@@@@@@@@@@@@@@@@@@@@$ ",
"@@@@@@@@@@@@@@@@@@@@@@@@@%&",
"@@@@@@@@@@@@@@@@@@@@@@@@@@*",
"@@@@@@@@@@@@@@@@@@@@@@@@@@=",
"@@@@@@@@@@@@@@@@@@@@@@@@@@=",
"@@@@@@@@@@@@@@@@@@@@@@@@@@=",
"@@@@@@@@@@@@@@@@@@@@@@@@@@=",
"@@@@@@@@@@@@@@@@@@@@@@@@@@=",
"@@@@@@@@@@@@@@@@@@@@@@@@@@=",
"@@@@@@@@@@@@@@@@@@@@@@@@@@=",
"@@@@@@@@@@@@@@@@@@@@@@@@@@=",
"@@@@@@@@@@@@@@@@@@@@@@@@@@=",
"@@@@@@@@@@@@@@@@@@@@@@@@@@=",
"@@@@@@@@@@@@@@@@@@@@@@@@@@=",
"@@@@@@@@@@@@@@@@@@@@@@@@@@=",
"@@@@@@@@@@@@@@@@@@@@@@@@@@=",
"@@@@@@@@@@@@@@@@@@@@@@@@@@=",
"@@@@@@@@@@@@@@@@@@@@@@@@@@=",
"@@@@@@@@@@@@@@@@@@@@@@@@@@=",
"@@@@@@@@@@@@@@@@@@@@@@@@@@=",
"@@@@@@@@@@@@@@@@@@@@@@@@@@=",
"@@@@@@@@@@@@@@@@@@@@@@@@@@=",
"@@@@@@@@@@@@@@@@@@@@@@@@@@=",
"@@@@@@@@@@@@@@@@@@@@@@@@@@=",
"@@@@@@@@@@@@@@@@@@@@@@@@@@=",
"@@@@@@@@@@@@@@@@@@@@@@@@@@=",
"@@@@@@@@@@@@@@@@@@@@@@@@@@=",
"-------------------;@@@@@@="};
