/* XPM */

static char* bottom_right_inactive_xpm [] = {
	
	"30 30 4 1",
	
	"  c None",
	"@ c #FFFFFF s inactive_hilight_2",
	"+ c #CCCCCC s inactive_color_2",
	"# c #888888 s inactive_shadow_2",
	
	"                        @@++##",
	"                        @@++##",
	"                        @@++##",
	"                        @@++##",
	"                        @@++##",
	"                        @@++##",
	"                        @@++##",
	"                        @@++##",
	"                        @@++##",
	"                        @@++##",
	"                        @@++##",
	"                        @@++##",
	"                        @@++##",
	"                        @@++##",
	"                        @@++##",
	"                        @@++##",
	"                        @@++##",
	"                        @@++##",
	"                        @@++##",
	"                        @@++##",
	"                        @@++##",
	"                        @@++##",
	"                        @@++##",
	"                        @@++##",
	"@@@@@@@@@@@@@@@@@@@@@@@@@@++##",
	"@@@@@@@@@@@@@@@@@@@@@@@@@@++##",
	"++++++++++++++++++++++++++++##",
	"++++++++++++++++++++++++++++##",
	"##############################",
	"##############################",
};
