/* XPM */

static char* bottom_left_active_xpm [] = {
	
	"30 30 4 1",
	
	"  c None",
	"@ c #FF0000 s active_hilight_2",
	"+ c #CC0000 s active_color_2",
	"# c #880000 s active_shadow_2",
	
	"@@++##                        ",
	"@@++##                        ",
	"@@++##                        ",
	"@@++##                        ",
	"@@++##                        ",
	"@@++##                        ",
	"@@++##                        ",
	"@@++##                        ",
	"@@++##                        ",
	"@@++##                        ",
	"@@++##                        ",
	"@@++##                        ",
	"@@++##                        ",
	"@@++##                        ",
	"@@++##                        ",
	"@@++##                        ",
	"@@++##                        ",
	"@@++##                        ",
	"@@++##                        ",
	"@@++##                        ",
	"@@++##                        ",
	"@@++##                        ",
	"@@++##                        ",
	"@@++##                        ",
	"@@++#+@@@@@@@@@@@@@@@@@@@@@@@@",
	"@@+++@@@@@@@@@@@@@@@@@@@@@@@@@",
	"@@++++++++++++++++++++++++++++",
	"@@++++++++++++++++++++++++++++",
	"@+############################",
	"+#############################",
};
