/* XPM */

static char* bottom_active_xpm [] = {
	
	"1 6 3 1",
	
	"@ c #FF0000 s active_hilight_2",
	"+ c #CC0000 s active_color_2",
	"# c #880000 s active_shadow_2",
	
	"@",
	"@",
	"+",
	"+",
	"#",
	"#",
};
