/* XPM */

static char* stick_toggled_active_xpm [] = {
	
	"24 30 5 1",
	
	"  c None",
	"@ c #FF0000 s active_hilight_2",
	"+ c #CC0000 s active_color_2",
	"# c #880000 s active_shadow_2",
	"% c #FFFF00 s active_text_color",
	
	"                        ",
	"                        ",
	"                        ",
	"                        ",
	"                        ",
	"                        ",
	"#######################+",
	"######################+@",
	"##++++++++++++++++++++@@",
	"##++++++++++++++++++++@@",
	"##++++++++++++++++++++@@",
	"##++++++++++++++++++++@@",
	"##++++++++++++++++++++@@",
	"##++++++++++++++++++++@@",
	"##+++++++++%%+++++++++@@",
	"##++++++++%%%%++++++++@@",
	"##+++++++%%%%%%+++++++@@",
	"##++++++%%%%%%%%++++++@@",
	"##++++++%%%%%%%%++++++@@",
	"##+++++++%%%%%%+++++++@@",
	"##++++++++%%%%++++++++@@",
	"##+++++++++%%+++++++++@@",
	"##++++++++++++++++++++@@",
	"##++++++++++++++++++++@@",
	"##++++++++++++++++++++@@",
	"##++++++++++++++++++++@@",
	"##++++++++++++++++++++@@",
	"##++++++++++++++++++++@@",
	"#+@@@@@@@@@@@@@@@@@@@@@@",
	"+@@@@@@@@@@@@@@@@@@@@@@@",
};
