/* XPM */

static char* title_5_inactive_xpm [] = {
	
	"1 30 3 1",
	
	"@ c #FFFFFF s inactive_hilight_2",
	"+ c #CCCCCC s inactive_color_2",
	"# c #888888 s inactive_shadow_2",
	
	"@",
	"@",
	"+",
	"+",
	"#",
	"#",
	"@",
	"@",
	"+",
	"+",
	"+",
	"+",
	"+",
	"+",
	"+",
	"+",
	"+",
	"+",
	"+",
	"+",
	"+",
	"+",
	"+",
	"+",
	"+",
	"+",
	"+",
	"+",
	"#",
	"#",
};
