/* XPM */
static char * close_inactive_xpm[] = {
"24 38 24 1",
" 	c None",
".	c #262626",
"+	c #292929",
"@	c #2C2C2C",
"#	c #2E2E2E",
"$	c #2F2F2F",
"%	c #2B2B2B",
"&	c #919191",
"*	c #7A7A7A",
"=	c #373737",
"-	c #363636",
";	c #787878",
">	c #808080",
",	c #7F7F7F",
"'	c #828282",
")	c #3A3A3A",
"!	c #838383",
"~	c #858585",
"{	c #3B3B3B",
"]	c #3C3C3C",
"^	c #393939",
"/	c #383838",
"(	c #818181",
"_	c #7E7E7E",
"                        ",
"                        ",
"                        ",
"                        ",
"                        ",
"                        ",
"                        ",
"       .+@#$$#@+.       ",
"     .%$$$$$$$$$$%.     ",
"    +#$$$$$$$$$$$$#+    ",
"   +$$$$$$$$$$$$$$$$+   ",
"  +$$$$$$$$$$$$$$$$$$+  ",
" .#$$$$$$$$$$$$$$$$$$#. ",
" %$$$$$$$$$$$$$$$$$$$$% ",
".$$$$$$$$$$$$$$$$$$$$$$.",
"+$$$$$$$&*=$$-;&$$$$$$$+",
"@$$$$$$$>&>==,&'$$$$$$$@",
"#$$$$$$$)!&>,&~{$$$$$$$#",
"$$$$$$$$$)!&&~]$$$$$$$$$",
"$$$$$$$$$=>&&'^$$$$$$$$$",
"#$$$$$$$/(&''&'/$$$$$$$#",
"@$$$$$$$_&'//'&,$$$$$$$@",
"+$$$$$$$&,/$$/,&$$$$$$$+",
".$$$$$$$$$$$$$$$$$$$$$$.",
" %$$$$$$$$$$$$$$$$$$$$% ",
" .#$$$$$$$$$$$$$$$$$$#. ",
"  +$$$$$$$$$$$$$$$$$$+  ",
"   +$$$$$$$$$$$$$$$$+   ",
"    +#$$$$$$$$$$$$#+    ",
"     .%$$$$$$$$$$%.     ",
"       .+@#$$#@+.       ",
"                        ",
"                        ",
"                        ",
"                        ",
"                        ",
"                        ",
"                        "};
