/* XPM */
static char * close_active_xpm[] = {
"24 38 29 1",
" 	c None",
".	c #343434",
"+	c #3A3A3A",
"@	c #3F3F3F",
"#	c #434343",
"$	c #454545",
"%	c #3D3D3D",
"&	c #393939",
"*	c #FFFFFF",
"=	c #D3D3D3",
"-	c #545454",
";	c #535353",
">	c #D0D0D0",
",	c #E0E0E0",
"'	c #DEDEDE",
")	c #DCDCDC",
"!	c #E2E2E2",
"~	c #595959",
"{	c #E5E5E5",
"]	c #DDDDDD",
"^	c #E8E8E8",
"/	c #5C5C5C",
"(	c #E9E9E9",
"_	c #5E5E5E",
":	c #555555",
"<	c #E3E3E3",
"[	c #585858",
"}	c #575757",
"|	c #DBDBDB",
"                        ",
"                        ",
"                        ",
"                        ",
"                        ",
"                        ",
"                        ",
"       .+@#$$#@+.       ",
"     .%$$$$$$$$$$%.     ",
"    &#$$$$$$$$$$$$#&    ",
"   +$$$$$$$$$$$$$$$$+   ",
"  &$$$$$$$$$$$$$$$$$$&  ",
" .#$$$$$$$$$$$$$$$$$$#. ",
" %$$$$$$$$$$$$$$$$$$$$% ",
".$$$$$$$$$$$$$$$$$$$$$$.",
"+$$$$$$$*=-$$;>*$$$$$$$+",
"@$$$$$$$,*'--)*!$$$$$$$@",
"#$$$$$$$~{*']*^/$$$$$$$#",
"$$$$$$$$$~{**(_$$$$$$$$$",
"$$$$$$$$$:'**<[$$$$$$$$$",
"#$$$$$$$},*!!*!}$$$$$$$#",
"@$$$$$$$|*!}}!*)$$$$$$$@",
"+$$$$$$$*)}$$})*$$$$$$$+",
".$$$$$$$$$$$$$$$$$$$$$$.",
" %$$$$$$$$$$$$$$$$$$$$% ",
" .#$$$$$$$$$$$$$$$$$$#. ",
"  &$$$$$$$$$$$$$$$$$$&  ",
"   +$$$$$$$$$$$$$$$$+   ",
"    &#$$$$$$$$$$$$#&    ",
"     .%$$$$$$$$$$%.     ",
"       .+@#$$#@+.       ",
"                        ",
"                        ",
"                        ",
"                        ",
"                        ",
"                        ",
"                        "};
