/* XPM */
static char * maximize_toggled_pressed_xpm[] = {
"24 38 15 1",
" 	c None",
".	c #3A3A3A",
"+	c #4E4E4E",
"@	c #5D5D5D",
"#	c #676767",
"$	c #6D6D6D",
"%	c #3C3C3C",
"&	c #575757",
"*	c #6E6E6E",
"=	c #4A4A4A",
"-	c #686868",
";	c #6F6F6F",
">	c #707070",
",	c #FFFFFF",
"'	c #FEFEFE",
"                        ",
"                        ",
"                        ",
"                        ",
"                        ",
"                        ",
"                        ",
"       .+@#$$#@+.       ",
"     %&**********&%     ",
"    =-************-=    ",
"   +****************+   ",
"  =******************=  ",
" %-******************-% ",
" &********************& ",
".**********************.",
"+********;;;;;;********+",
"@*******>,,,,,,********@",
"#*******>,,'',,********#",
"$*******>,'**,,********$",
"$*******>,'**,,********$",
"#*******>,,,,,,********#",
"@*******>,,,,,,********@",
"+********;;;;;;********+",
".**********************.",
" &********************& ",
" %-******************-% ",
"  =******************=  ",
"   +****************+   ",
"    =-************-=    ",
"     %&**********&%     ",
"       .+@#$$#@+.       ",
"                        ",
"                        ",
"                        ",
"                        ",
"                        ",
"                        ",
"                        "};
