/* XPM */
static char * maximize_active_xpm[] = {
"24 38 12 1",
" 	c None",
".	c #343434",
"+	c #3A3A3A",
"@	c #3F3F3F",
"#	c #434343",
"$	c #454545",
"%	c #3D3D3D",
"&	c #393939",
"*	c #464646",
"=	c #474747",
"-	c #FFFFFF",
";	c #FEFEFE",
"                        ",
"                        ",
"                        ",
"                        ",
"                        ",
"                        ",
"                        ",
"       .+@#$$#@+.       ",
"     .%$$$$$$$$$$%.     ",
"    &#$$$$$$$$$$$$#&    ",
"   +$$$$$$$$$$$$$$$$+   ",
"  &$$$$$$$$$$$$$$$$$$&  ",
" .#$$$$$$$$$$$$$$$$$$#. ",
" %$$$$$$$$$$$$$$$$$$$$% ",
".$$$$$$$********$$$$$$$.",
"+$$$$$$=--------$$$$$$$+",
"@$$$$$$=--;;;;--$$$$$$$@",
"#$$$$$$=-;$$$$--$$$$$$$#",
"$$$$$$$=-;$$$$--$$$$$$$$",
"$$$$$$$=-;$$$$--$$$$$$$$",
"#$$$$$$=-;$$$$--$$$$$$$#",
"@$$$$$$=--------$$$$$$$@",
"+$$$$$$=--------$$$$$$$+",
".$$$$$$$********$$$$$$$.",
" %$$$$$$$$$$$$$$$$$$$$% ",
" .#$$$$$$$$$$$$$$$$$$#. ",
"  &$$$$$$$$$$$$$$$$$$&  ",
"   +$$$$$$$$$$$$$$$$+   ",
"    &#$$$$$$$$$$$$#&    ",
"     .%$$$$$$$$$$%.     ",
"       .+@#$$#@+.       ",
"                        ",
"                        ",
"                        ",
"                        ",
"                        ",
"                        ",
"                        "};
