/* XPM */
static char * menu_pressed_xpm[] = {
"24 38 18 1",
" 	c None",
".	c #3A3A3A",
"+	c #4E4E4E",
"@	c #5D5D5D",
"#	c #676767",
"$	c #6D6D6D",
"%	c #3C3C3C",
"&	c #575757",
"*	c #6E6E6E",
"=	c #4A4A4A",
"-	c #686868",
";	c #999999",
">	c #F0F0F0",
",	c #EFEFEF",
"'	c #989898",
")	c #FFFFFF",
"!	c #EEEEEE",
"~	c #969696",
"                        ",
"                        ",
"                        ",
"                        ",
"                        ",
"                        ",
"                        ",
"       .+@#$$#@+.       ",
"     %&**********&%     ",
"    =-************-=    ",
"   +****************+   ",
"  =*******;>,'*******=  ",
" %-*******>))!*******-% ",
" &********>))!********& ",
".*********',,~*********.",
"+**********************+",
"@**********************@",
"#*********;>,'*********#",
"$*********>))!*********$",
"$*********>))!*********$",
"#*********',,~*********#",
"@**********************@",
"+**********************+",
".*********;>,'*********.",
" &********>))!********& ",
" %-*******>))!*******-% ",
"  =*******',,~*******=  ",
"   +****************+   ",
"    =-************-=    ",
"     %&**********&%     ",
"       .+@#$$#@+.       ",
"                        ",
"                        ",
"                        ",
"                        ",
"                        ",
"                        ",
"                        "};
