/* XPM */
static char * menu_active_xpm[] = {
"24 38 16 1",
" 	c None",
".	c #343434",
"+	c #3A3A3A",
"@	c #3F3F3F",
"#	c #434343",
"$	c #454545",
"%	c #3D3D3D",
"&	c #393939",
"*	c #7C7C7C",
"=	c #EBEBEB",
"-	c #7A7A7A",
";	c #FFFFFF",
">	c #E9E9E9",
",	c #7B7B7B",
"'	c #EAEAEA",
")	c #797979",
"                        ",
"                        ",
"                        ",
"                        ",
"                        ",
"                        ",
"                        ",
"       .+@#$$#@+.       ",
"     .%$$$$$$$$$$%.     ",
"    &#$$$$$$$$$$$$#&    ",
"   +$$$$$$$$$$$$$$$$+   ",
"  &$$$$$$$*==-$$$$$$$&  ",
" .#$$$$$$$=;;>$$$$$$$#. ",
" %$$$$$$$$=;;>$$$$$$$$% ",
".$$$$$$$$$,=')$$$$$$$$$.",
"+$$$$$$$$$$$$$$$$$$$$$$+",
"@$$$$$$$$$$$$$$$$$$$$$$@",
"#$$$$$$$$$*==-$$$$$$$$$#",
"$$$$$$$$$$=;;>$$$$$$$$$$",
"$$$$$$$$$$=;;>$$$$$$$$$$",
"#$$$$$$$$$,=')$$$$$$$$$#",
"@$$$$$$$$$$$$$$$$$$$$$$@",
"+$$$$$$$$$$$$$$$$$$$$$$+",
".$$$$$$$$$*==-$$$$$$$$$.",
" %$$$$$$$$=;;>$$$$$$$$% ",
" .#$$$$$$$=;;>$$$$$$$#. ",
"  &$$$$$$$,=')$$$$$$$&  ",
"   +$$$$$$$$$$$$$$$$+   ",
"    &#$$$$$$$$$$$$#&    ",
"     .%$$$$$$$$$$%.     ",
"       .+@#$$#@+.       ",
"                        ",
"                        ",
"                        ",
"                        ",
"                        ",
"                        ",
"                        "};
