/* XPM */
static char * menu_inactive_xpm[] = {
"24 38 14 1",
" 	c None",
".	c #262626",
"+	c #292929",
"@	c #2C2C2C",
"#	c #2E2E2E",
"$	c #2F2F2F",
"%	c #2B2B2B",
"&	c #4C4C4C",
"*	c #878787",
"=	c #868686",
"-	c #4B4B4B",
";	c #919191",
">	c #858585",
",	c #4A4A4A",
"                        ",
"                        ",
"                        ",
"                        ",
"                        ",
"                        ",
"                        ",
"       .+@#$$#@+.       ",
"     .%$$$$$$$$$$%.     ",
"    +#$$$$$$$$$$$$#+    ",
"   +$$$$$$$$$$$$$$$$+   ",
"  +$$$$$$$&*=-$$$$$$$+  ",
" .#$$$$$$$*;;>$$$$$$$#. ",
" %$$$$$$$$*;;>$$$$$$$$% ",
".$$$$$$$$$-==,$$$$$$$$$.",
"+$$$$$$$$$$$$$$$$$$$$$$+",
"@$$$$$$$$$$$$$$$$$$$$$$@",
"#$$$$$$$$$&*=-$$$$$$$$$#",
"$$$$$$$$$$*;;>$$$$$$$$$$",
"$$$$$$$$$$*;;>$$$$$$$$$$",
"#$$$$$$$$$-==,$$$$$$$$$#",
"@$$$$$$$$$$$$$$$$$$$$$$@",
"+$$$$$$$$$$$$$$$$$$$$$$+",
".$$$$$$$$$&*=-$$$$$$$$$.",
" %$$$$$$$$*;;>$$$$$$$$% ",
" .#$$$$$$$*;;>$$$$$$$#. ",
"  +$$$$$$$-==,$$$$$$$+  ",
"   +$$$$$$$$$$$$$$$$+   ",
"    +#$$$$$$$$$$$$#+    ",
"     .%$$$$$$$$$$%.     ",
"       .+@#$$#@+.       ",
"                        ",
"                        ",
"                        ",
"                        ",
"                        ",
"                        ",
"                        "};
