/* XPM */
static char * stick_toggled_pressed_xpm[] = {
"24 38 28 1",
" 	c None",
".	c #3A3A3A",
"+	c #4E4E4E",
"@	c #5D5D5D",
"#	c #676767",
"$	c #6D6D6D",
"%	c #3C3C3C",
"&	c #575757",
"*	c #6E6E6E",
"=	c #4A4A4A",
"-	c #686868",
";	c #B7B7B7",
">	c #FFFFFF",
",	c #F5F5F5",
"'	c #D8D8D8",
")	c #D7D7D7",
"!	c #989898",
"~	c #FEFEFE",
"{	c #969696",
"]	c #B6B6B6",
"^	c #B5B5B5",
"/	c #B4B4B4",
"(	c #CCCCCC",
"_	c #CBCBCB",
":	c #E0E0E0",
"<	c #DDDDDD",
"[	c #DCDCDC",
"}	c #DEDEDE",
"                        ",
"                        ",
"                        ",
"                        ",
"                        ",
"                        ",
"                        ",
"       .+@#$$#@+.       ",
"     %&**********&%     ",
"    =-************-=    ",
"   +****************+   ",
"  =********;;********=  ",
" %-********>>********-% ",
" &*********>>*********& ",
".**********>>**********.",
"+**********>>**********+",
"@**********************@",
"#******,>>>>>>>>,******#",
"$******'>>>>>>>>)******$",
"$******!~>>>>>>~{******$",
"#*******;~>>>>~]*******#",
"@********^>>>>/********@",
"+********;>>>>]********+",
".********(>>>>_********.",
" &*******:>>>>:*******& ",
" %-*****<>>>>>>[*****-% ",
"  =*****}>>>>>><*****=  ",
"   +****************+   ",
"    =-************-=    ",
"     %&**********&%     ",
"       .+@#$$#@+.       ",
"                        ",
"                        ",
"                        ",
"                        ",
"                        ",
"                        ",
"                        "};
