/* XPM */
static char * stick_active_xpm[] = {
"24 38 25 1",
" 	c None",
".	c #343434",
"+	c #3A3A3A",
"@	c #3F3F3F",
"#	c #434343",
"$	c #454545",
"%	c #3D3D3D",
"&	c #393939",
"*	c #D5D5D5",
"=	c #FFFFFF",
"-	c #D3D3D3",
";	c #D8D8D8",
">	c #D7D7D7",
",	c #BDBDBD",
"'	c #BCBCBC",
")	c #A2A2A2",
"!	c #9F9F9F",
"~	c #FEFEFE",
"{	c #A1A1A1",
"]	c #7A7A7A",
"^	c #797979",
"/	c #CDCDCD",
"(	c #CCCCCC",
"_	c #F3F3F3",
":	c #F2F2F2",
"                        ",
"                        ",
"                        ",
"                        ",
"                        ",
"                        ",
"                        ",
"       .+@#$$#@+.       ",
"     .%$$$$$$$$$$%.     ",
"    &#$$$$$$$$$$$$#&    ",
"   +$$$$$$$$$$$$$$$$+   ",
"  &$$$$$*======-$$$$$&  ",
" .#$$$$$-======-$$$$$#. ",
" %$$$$$$$;====>$$$$$$$% ",
".$$$$$$$$,===='$$$$$$$$.",
"+$$$$$$$$)====)$$$$$$$$+",
"@$$$$$$$$!====!$$$$$$$$@",
"#$$$$$$$)~====~{$$$$$$$#",
"$$$$$$$]~======~^$$$$$$$",
"$$$$$$$/========($$$$$$$",
"#$$$$$$_========:$$$$$$#",
"@$$$$$$$$$$$$$$$$$$$$$$@",
"+$$$$$$$$$$==$$$$$$$$$$+",
".$$$$$$$$$$==$$$$$$$$$$.",
" %$$$$$$$$$==$$$$$$$$$% ",
" .#$$$$$$$$==$$$$$$$$#. ",
"  &$$$$$$$$))$$$$$$$$&  ",
"   +$$$$$$$$$$$$$$$$+   ",
"    &#$$$$$$$$$$$$#&    ",
"     .%$$$$$$$$$$%.     ",
"       .+@#$$#@+.       ",
"                        ",
"                        ",
"                        ",
"                        ",
"                        ",
"                        ",
"                        "};
