/* XPM */
static char * stick_toggled_inactive_xpm[] = {
"24 38 20 1",
" 	c None",
".	c #262626",
"+	c #292929",
"@	c #2C2C2C",
"#	c #2E2E2E",
"$	c #2F2F2F",
"%	c #2B2B2B",
"&	c #606060",
"*	c #919191",
"=	c #8A8A8A",
"-	c #777777",
";	c #767676",
">	c #4B4B4B",
",	c #4A4A4A",
"'	c #5F5F5F",
")	c #5E5E5E",
"!	c #6E6E6E",
"~	c #7C7C7C",
"{	c #7A7A7A",
"]	c #7B7B7B",
"                        ",
"                        ",
"                        ",
"                        ",
"                        ",
"                        ",
"                        ",
"       .+@#$$#@+.       ",
"     .%$$$$$$$$$$%.     ",
"    +#$$$$$$$$$$$$#+    ",
"   +$$$$$$$$$$$$$$$$+   ",
"  +$$$$$$$$&&$$$$$$$$+  ",
" .#$$$$$$$$**$$$$$$$$#. ",
" %$$$$$$$$$**$$$$$$$$$% ",
".$$$$$$$$$$**$$$$$$$$$$.",
"+$$$$$$$$$$**$$$$$$$$$$+",
"@$$$$$$$$$$$$$$$$$$$$$$@",
"#$$$$$$=********=$$$$$$#",
"$$$$$$$-********;$$$$$$$",
"$$$$$$$>********,$$$$$$$",
"#$$$$$$$&******'$$$$$$$#",
"@$$$$$$$$'****)$$$$$$$$@",
"+$$$$$$$$&****&$$$$$$$$+",
".$$$$$$$$!****!$$$$$$$$.",
" %$$$$$$$~****~$$$$$$$% ",
" .#$$$$${******{$$$$$#. ",
"  +$$$$$]******{$$$$$+  ",
"   +$$$$$$$$$$$$$$$$+   ",
"    +#$$$$$$$$$$$$#+    ",
"     .%$$$$$$$$$$%.     ",
"       .+@#$$#@+.       ",
"                        ",
"                        ",
"                        ",
"                        ",
"                        ",
"                        ",
"                        "};
