/* XPM */
static char * stick_toggled_active_xpm[] = {
"24 38 25 1",
" 	c None",
".	c #343434",
"+	c #3A3A3A",
"@	c #3F3F3F",
"#	c #434343",
"$	c #454545",
"%	c #3D3D3D",
"&	c #393939",
"*	c #A2A2A2",
"=	c #FFFFFF",
"-	c #F3F3F3",
";	c #F2F2F2",
">	c #CDCDCD",
",	c #CCCCCC",
"'	c #7A7A7A",
")	c #FEFEFE",
"!	c #797979",
"~	c #A1A1A1",
"{	c #9F9F9F",
"]	c #BDBDBD",
"^	c #BCBCBC",
"/	c #D8D8D8",
"(	c #D7D7D7",
"_	c #D3D3D3",
":	c #D5D5D5",
"                        ",
"                        ",
"                        ",
"                        ",
"                        ",
"                        ",
"                        ",
"       .+@#$$#@+.       ",
"     .%$$$$$$$$$$%.     ",
"    &#$$$$$$$$$$$$#&    ",
"   +$$$$$$$$$$$$$$$$+   ",
"  &$$$$$$$$**$$$$$$$$&  ",
" .#$$$$$$$$==$$$$$$$$#. ",
" %$$$$$$$$$==$$$$$$$$$% ",
".$$$$$$$$$$==$$$$$$$$$$.",
"+$$$$$$$$$$==$$$$$$$$$$+",
"@$$$$$$$$$$$$$$$$$$$$$$@",
"#$$$$$$-========;$$$$$$#",
"$$$$$$$>========,$$$$$$$",
"$$$$$$$')======)!$$$$$$$",
"#$$$$$$$*)====)~$$$$$$$#",
"@$$$$$$$${===={$$$$$$$$@",
"+$$$$$$$$*====*$$$$$$$$+",
".$$$$$$$$]====^$$$$$$$$.",
" %$$$$$$$/====($$$$$$$% ",
" .#$$$$$_======_$$$$$#. ",
"  &$$$$$:======_$$$$$&  ",
"   +$$$$$$$$$$$$$$$$+   ",
"    &#$$$$$$$$$$$$#&    ",
"     .%$$$$$$$$$$%.     ",
"       .+@#$$#@+.       ",
"                        ",
"                        ",
"                        ",
"                        ",
"                        ",
"                        ",
"                        "};
