/* XPM */
static char * top_left_active_xpm[] = {
"12 38 10 1",
" 	c None",
".	c #454545",
"+	c #414141",
"@	c #3B3B3B",
"#	c #363636",
"$	c #323232",
"%	c #383838",
"&	c #303030",
"*	c #3C3C3C",
"=	c #1F1F1F",
"          ..",
"       .+@#$",
"     .+%&&&&",
"    .*$&&&&&",
"   .@&&&&&&&",
"  .*&&&&&&&&",
"  +$&&&&&&&&",
" .%&&&&&&&&&",
" +&&&&&&&&&&",
" @&&&&&&&&&&",
".#&&&&&&&&&&",
".$&&&&&&&&&&",
".&&&&&&&&&&&",
".&&&&&&&&&&&",
".&&&&&&&&&&&",
".&&&&&&&&&&&",
".&&&&&&&&&&&",
".&&&&&&&&&&&",
".&&&&&&&&&&&",
".&&&&&&&&&&&",
".&&&&&&&&&&&",
".&&&&&&&&&&&",
".&&&&&&&&&&&",
".&&&&&&&&&&&",
".&&&&&&&&&&&",
".&&&&&&&&&&&",
".&&&&&&&&&&&",
".&&&&&&&&&&&",
".&&&&&&&&&&&",
".&&&&&&&&&&&",
".&&&&&&&&&&&",
".&&&&&&&&&&&",
".&&&&&&&&&&&",
".&&&&&&&&&&&",
".&&&&&&&&&&&",
".&&&&&&&&&&&",
".&&&&&&&&&&&",
".==========="};
