/* XPM */
static char * top_left_inactive_xpm[] = {
"12 38 9 1",
" 	c None",
".	c #2F2F2F",
"+	c #2D2D2D",
"@	c #2A2A2A",
"#	c #272727",
"$	c #252525",
"%	c #282828",
"&	c #242424",
"*	c #171717",
"          ..",
"       .+@#$",
"     .+%&&&&",
"    .@$&&&&&",
"   .@&&&&&&&",
"  .@&&&&&&&&",
"  +$&&&&&&&&",
" .%&&&&&&&&&",
" +&&&&&&&&&&",
" @&&&&&&&&&&",
".#&&&&&&&&&&",
".$&&&&&&&&&&",
".&&&&&&&&&&&",
".&&&&&&&&&&&",
".&&&&&&&&&&&",
".&&&&&&&&&&&",
".&&&&&&&&&&&",
".&&&&&&&&&&&",
".&&&&&&&&&&&",
".&&&&&&&&&&&",
".&&&&&&&&&&&",
".&&&&&&&&&&&",
".&&&&&&&&&&&",
".&&&&&&&&&&&",
".&&&&&&&&&&&",
".&&&&&&&&&&&",
".&&&&&&&&&&&",
".&&&&&&&&&&&",
".&&&&&&&&&&&",
".&&&&&&&&&&&",
".&&&&&&&&&&&",
".&&&&&&&&&&&",
".&&&&&&&&&&&",
".&&&&&&&&&&&",
".&&&&&&&&&&&",
".&&&&&&&&&&&",
".&&&&&&&&&&&",
".***********"};
