/* XPM */
static char * close_inactive_xpm[] = {
"26 26 2 1",
" 	c None",
".	c #004761 s inactive_text_color",
"                          ",
"                          ",
"                          ",
"                          ",
"                          ",
"        .        .        ",
"       ...      ...       ",
"      .....    .....      ",
"       .....  .....       ",
"        ..........        ",
"         ........         ",
"          ......          ",
"          ......          ",
"         ........         ",
"        ..........        ",
"       .....  .....       ",
"      .....    .....      ",
"       ...      ...       ",
"        .        .        ",
"                          ",
"                          ",
"                          ",
"                          ",
"                          ",
"                          ",
"                          "};
