/* XPM */
static char * stick_pressed_xpm[] = {
"26 26 3 1",
" 	c None",
".	c #004761 s active_text_color",
"+	c #5C92BE s inactive_color_1",
"++++++++++++++++++++++++++",
"++++++++++++++++++++++++++",
"++++++++++++++++++++++++++",
"++++++++++++++++++++++++++",
"++++++++++++++++++++++++++",
"++++++++++++++++++++++++++",
"++++++++++++++++++++++++++",
"+++++++++........+++++++++",
"++++++++++......++++++++++",
"++++++++++......++++++++++",
"++++++++++......++++++++++",
"++++++++++......++++++++++",
"++++++++++......++++++++++",
"+++++++++........+++++++++",
"++++++++..........++++++++",
"++++++++++++..++++++++++++",
"++++++++++++..++++++++++++",
"++++++++++++..++++++++++++",
"++++++++++++.+++++++++++++",
"++++++++++++++++++++++++++",
"++++++++++++++++++++++++++",
"++++++++++++++++++++++++++",
"++++++++++++++++++++++++++",
"++++++++++++++++++++++++++",
"++++++++++++++++++++++++++",
"++++++++++++++++++++++++++"};
