/* XPM */
static char * bottom_right_active_xpm[] = {
"8 8 3 1",
" 	c #000000",
".	c #6BADF6 s active_color_1",
"+	c #000000",
" ......+",
".......+",
".......+",
".......+",
".......+",
".......+",
".......+",
"++++++++"};
