/* XPM */
static char * bottom_active_xpm[] = {
"17 8 4 1",
" 	c None",
".	c #000000",
"+	c #6BADF6 s active_color_1",
"@	c #000000",
".................",
"+++++++++++++++++",
"+++++++++++++++++",
"+++++++++++++++++",
"+++++++++++++++++",
"+++++++++++++++++",
"+++++++++++++++++",
"@@@@@@@@@@@@@@@@@"};
