/* XPM */
static char * close_inactive_xpm[] = {
"45 31 5 1",
" 	c #000000",
".	c #BCBCBC s inactive_text_color",
"+	c #FFFFFF s inactive_border_color",
"@	c #EBEBEB s inactive_border_color",
"#	c #000000",
"                                             ",
" ........................................... ",
" ........................................... ",
" ........................................... ",
" ........................................... ",
" ........................................... ",
" ........................................... ",
" .................+++...+++................. ",
" ..................+++.+++.................. ",
" ...................+++++................... ",
" ....................+++.................... ",
" ....................+++.................... ",
" ...................+++++................... ",
" ..................+++.+++.................. ",
" .................+++...+++................. ",
" ........................................... ",
" ........................................... ",
" ........................................... ",
" ........................................... ",
" ........................................... ",
" ........................................... ",
"                                             ",
"@@@@@@@@@@@@@@@@@@@@@@@@@@@@@@@@@@@@@@@@@@@@@",
"@@@@@@@@@@@@@@@@@@@@@@@@@@@@@@@@@@@@@@@@@@@@@",
"@@@@@@@@@@@@@@@@@@@@@@@@@@@@@@@@@@@@@@@@@@@@@",
"@@@@@@@@@@@@@@@@@@@@@@@@@@@@@@@@@@@@@@@@@@@@@",
"@@@@@@@@@@@@@@@@@@@@@@@@@@@@@@@@@@@@@@@@@@@@@",
"@@@@@@@@@@@@@@@@@@@@@@@@@@@@@@@@@@@@@@@@@@@@@",
"@@@@@@@@@@@@@@@@@@@@@@@@@@@@@@@@@@@@@@@@@@@@@",
"@@@@@@@@@@@@@@@@@@@@@@@@@@@@@@@@@@@@@@@@@@@@@",
"#############################################"};
