/* XPM */
static char * maximize_prelight_xpm[] = {
"26 31 6 1",
" 	c #000000",
".	c #3665B3",
"+	c #3665B4",
"@	c #FFFFFF",
"#	c #6BADF6 s active_color_1",
"$	c #000000",
"                          ",
" .......................+.",
" .......................+.",
" .......................+.",
" .......................+.",
" .......................+.",
" .......@@@@@@@@@@......+.",
" .......@@@@@@@@@@......+.",
" .......@@@@@@@@@@......+.",
" .......@@@....@@@......+.",
" .......@@@....@@@......+.",
" .......@@@....@@@......+.",
" .......@@@@@@@@@@......+.",
" .......@@@@@@@@@@......+.",
" .......@@@@@@@@@@......+.",
" .......................+.",
" .......................+.",
" .......................+.",
" .......................+.",
" .......................+.",
" .......................+.",
"                          ",
"##########################",
"##########################",
"##########################",
"##########################",
"##########################",
"##########################",
"##########################",
"##########################",
"$$$$$$$$$$$$$$$$$$$$$$$$$$"};
