/* XPM */
static char * maximize_toggled_pressed_xpm[] = {
"26 31 5 1",
" 	c #000000",
".	c #2F589C",
"+	c #FFFFFF",
"@	c #6BADF6 s active_color_1",
"#	c #000000",
"                          ",
" .........................",
" .........................",
" .........................",
" ........+++++++++++......",
" ..................+......",
" .......++++++++++.+......",
" .......++++++++++.+......",
" .......++++++++++.+......",
" .......+++....+++.+......",
" .......+++....+++.+......",
" .......+++....+++.+......",
" .......++++++++++.+......",
" .......++++++++++.+......",
" .......++++++++++........",
" .........................",
" .........................",
" .........................",
" .........................",
" .........................",
" .........................",
"                          ",
"@@@@@@@@@@@@@@@@@@@@@@@@@@",
"@@@@@@@@@@@@@@@@@@@@@@@@@@",
"@@@@@@@@@@@@@@@@@@@@@@@@@@",
"@@@@@@@@@@@@@@@@@@@@@@@@@@",
"@@@@@@@@@@@@@@@@@@@@@@@@@@",
"@@@@@@@@@@@@@@@@@@@@@@@@@@",
"@@@@@@@@@@@@@@@@@@@@@@@@@@",
"@@@@@@@@@@@@@@@@@@@@@@@@@@",
"##########################"};
