/* XPM */
static char * menu_prelight_xpm[] = {
"20 30 2 1",
" 	c None",
".	c #6BADF6 s active_color_1",
"                    ",
"                    ",
"                    ",
"                    ",
"                    ",
"....................",
"....................",
"....................",
"....................",
"....................",
"....................",
"....................",
"....................",
"....................",
"....................",
"....................",
"....................",
"....................",
"....................",
"....................",
"....................",
"....................",
"....................",
"....................",
"....................",
"                    ",
"                    ",
"                    ",
"                    ",
"                    "};
