/* XPM */
static char * right_inactive_xpm[] = {
"8 17 4 1",
" 	c None",
".	c #000000",
"+	c #EBEBEB s inactive_border_color",
"@	c #000000",
".++++++@",
".++++++@",
".++++++@",
".++++++@",
".++++++@",
".++++++@",
".++++++@",
".++++++@",
".++++++@",
".++++++@",
".++++++@",
".++++++@",
".++++++@",
".++++++@",
".++++++@",
".++++++@",
".++++++@"};
