/* XPM */
static char * right_active_xpm[] = {
"8 17 4 1",
" 	c None",
".	c #000000",
"+	c #6BADF6 s active_color_1",
"@	c #000000",
".++++++@",
".++++++@",
".++++++@",
".++++++@",
".++++++@",
".++++++@",
".++++++@",
".++++++@",
".++++++@",
".++++++@",
".++++++@",
".++++++@",
".++++++@",
".++++++@",
".++++++@",
".++++++@",
".++++++@"};
