/* XPM */
static char * title_4_inactive_xpm[] = {
"8 31 4 1",
" 	c None",
".	c #000000",
"+	c #EBEBEB s inactive_border_color",
"@	c #000000",
"........",
"++++++++",
"++++++++",
"++++++++",
"++++++++",
"++++++++",
"++++++++",
"++++++++",
"++++++++",
"++++++++",
"++++++++",
"++++++++",
"++++++++",
"++++++++",
"++++++++",
"++++++++",
"++++++++",
"++++++++",
"++++++++",
"++++++++",
"++++++++",
"++++++++",
"++++++++",
"++++++++",
"++++++++",
"++++++++",
"++++++++",
"++++++++",
"++++++++",
"++++++++",
"@@@@@@@@"};
