/* XPM */
static char * top_right_inactive_xpm[] = {
"8 31 3 1",
" 	c #000000",
".	c #EBEBEB s inactive_border_color",
"+	c #000000",
"        ",
"....... ",
"....... ",
"....... ",
"....... ",
"....... ",
"....... ",
"....... ",
"....... ",
"....... ",
"....... ",
"....... ",
"....... ",
"....... ",
"....... ",
"....... ",
"....... ",
"....... ",
"....... ",
"....... ",
"....... ",
"....... ",
"....... ",
"....... ",
"....... ",
"....... ",
"....... ",
"....... ",
"....... ",
"....... ",
"+...... "};
