/* XPM */
static char * top_right_active_xpm[] = {
"8 31 3 1",
" 	c #000000",
".	c #6BADF6 s active_color_1",
"+	c #000000",
"        ",
"....... ",
"....... ",
"....... ",
"....... ",
"....... ",
"....... ",
"....... ",
"....... ",
"....... ",
"....... ",
"....... ",
"....... ",
"....... ",
"....... ",
"....... ",
"....... ",
"....... ",
"....... ",
"....... ",
"....... ",
"....... ",
"....... ",
"....... ",
"....... ",
"....... ",
"....... ",
"....... ",
"....... ",
"....... ",
"+...... "};
