/* XPM */
static char * bottom_left_active_xpm[] = {
"2 2 2 1",
" 	c None",
"+	s active_color_1",
"++",
" +"}

