/* XPM */
static char * close_active_xpm[] = {
"16 16 4 1",
" 	c None",
".	c #C0C0C0 s inactive_color_2",
"+	c #FFFFFF s inactive_color_1",
"@	c #4BFF4E s inactive_text_color_2",
"++++++++++++++++",
"++++++++++++++++",
"................",
"................",
"................",
"................",
"......@@@@......",
".....@....@.....",
".....@....@.....",
".....@....@.....",
".....@....@.....",
"......@@@@......",
"................",
"................",
"................",
"................"}
