/* XPM */
static char * title_1_active_xpm[] = {
"2 16 2 1",
".	s active_color_2",
"+	s active_color_1",
"++",
"++",
"..",
"..",
"..",
"..",
"..",
"..",
"..",
"..",
"..",
"..",
"..",
"..",
"..",
".."}

