/* XPM */
static char * top_left_active_xpm[] = {
"2 16 2 1",
" 	c None",
"+	c #FFFFFF s active_color_1",
" +",
"++",
"++",
"++",
"++",
"++",
"++",
"++",
"++",
"++",
"++",
"++",
"++",
"++",
"++",
"++"}
