/* XPM */
static char * bottom_active_xpm[] = {
"8 2 3 1",
" 	c #837183",
".	c #7B6D7B",
"+	c #000000",
" . . . .",
"++++++++"};
