/* XPM */
static char * close_pressed_xpm[] = {
"25 27 158 2",
"  	c #000000",
". 	c #737173",
"+ 	c #736D73",
"@ 	c #7B6D7B",
"# 	c #394039",
"$ 	c #4A3C4A",
"% 	c #414041",
"& 	c #393C4A",
"* 	c #4A3C39",
"= 	c #413C41",
"- 	c #524052",
"; 	c #413841",
"> 	c #413C4A",
", 	c #393C41",
"' 	c #313839",
") 	c #39445A",
"! 	c #394462",
"~ 	c #314862",
"{ 	c #394862",
"] 	c #314462",
"^ 	c #294452",
"/ 	c #414462",
"( 	c #313C41",
"_ 	c #4A384A",
": 	c #393439",
"< 	c #313431",
"[ 	c #393841",
"} 	c #010E0F",
"| 	c #020D0E",
"1 	c #010B0B",
"2 	c #000909",
"3 	c #000808",
"4 	c #000708",
"5 	c #000707",
"6 	c #020C0E",
"7 	c #010D0F",
"8 	c #293839",
"9 	c #312C31",
"0 	c #393039",
"a 	c #393852",
"b 	c #6AB9CF",
"c 	c #6FBDD2",
"d 	c #72BFD5",
"e 	c #75C2D7",
"f 	c #74C6DA",
"g 	c #74C6E1",
"h 	c #78CBE3",
"i 	c #7CCFE5",
"j 	c #80CFE7",
"k 	c #7ED1E6",
"l 	c #7BCCE3",
"m 	c #78C9E0",
"n 	c #7BC8DC",
"o 	c #79C5D9",
"p 	c #71BFD4",
"q 	c #413C5A",
"r 	c #292C31",
"s 	c #293C52",
"t 	c #73BBCF",
"u 	c #000206",
"v 	c #000C1D",
"w 	c #011938",
"x 	c #00234A",
"y 	c #001E43",
"z 	c #011C3C",
"A 	c #79C0D4",
"B 	c #20384A",
"C 	c #292829",
"D 	c #312831",
"E 	c #202C29",
"F 	c #29385A",
"G 	c #000809",
"H 	c #7BBCCE",
"I 	c #000202",
"J 	c #012E5D",
"K 	c #034FA0",
"L 	c #055FB8",
"M 	c #0558AE",
"N 	c #0351A2",
"O 	c #81C1D3",
"P 	c #293C5A",
"Q 	c #292C29",
"R 	c #202429",
"S 	c #203852",
"T 	c #82BDCD",
"U 	c #00020A",
"V 	c #011B38",
"W 	c #0450A0",
"X 	c #33AAFD",
"Y 	c #33A0FD",
"Z 	c #88C2D2",
"` 	c #18344A",
" .	c #202420",
"..	c #202020",
"+.	c #313031",
"@.	c #313039",
"#.	c #313C5A",
"$.	c #83B7C6",
"%.	c #00050A",
"&.	c #00244A",
"*.	c #0761B8",
"=.	c #43ACFD",
"-.	c #8FC2D0",
";.	c #393C62",
">.	c #000408",
",.	c #001829",
"'.	c #7DAAB8",
").	c #002043",
"!.	c #085CAE",
"~.	c #89B7C4",
"{.	c #081831",
"].	c #7298A2",
"^.	c #011E3C",
"/.	c #0555A2",
"(.	c #8AB0BC",
"_.	c #68828B",
":.	c #00060A",
"<.	c #095EAE",
"[.	c #7E9DA6",
"}.	c #081839",
"|.	c #586970",
"1.	c #00264A",
"2.	c #0A67B8",
"3.	c #6D858B",
"4.	c #001429",
"5.	c #444E52",
"6.	c #021E38",
"7.	c #0857A0",
"8.	c #5C676A",
"9.	c #010A0B",
"0.	c #2D2E33",
"a.	c #000D1D",
"b.	c #04345D",
"c.	c #0958A0",
"d.	c #0C69B8",
"e.	c #0C61AE",
"f.	c #075AA2",
"g.	c #0C62AE",
"h.	c #03345D",
"i.	c #404748",
"j.	c #000008",
"k.	c #001018",
"l.	c #0F1010",
"m.	c #000E1D",
"n.	c #021D38",
"o.	c #00284A",
"p.	c #002243",
"q.	c #02203C",
"r.	c #1F2021",
"s.	c #000A0B",
"t.	c #000D0E",
"u.	c #020E0F",
"v.	c #020D0F",
"w.	c #020D10",
"x.	c #020E10",
"y.	c #000103",
"z.	c #00090A",
"A.	c #000B0B",
"                                                  ",
". + . . + . @ . . + . . + . @ . . + . . + . @ . . ",
"# $ % $ # $ % $ # & % $ # * % $ # * % $ # $ % = - ",
"; = ; = % > , > , > , > , > , > , > , > ; = ; = ; ",
"; ; ' & ) ! ~ ! { ! ~ ! { ! ~ ! { ! ] ^ / ( ; ; _ ",
": < [ } | 1 2 3 4 5 5 5 5 5 5 5 5 3 2 1 6 7 8 : : ",
"9 0 a 6 b c d e f g h i j k l m n o e e p 6 q 0 : ",
"9 r s 1 t     u v w x y z y x w v u     A 1 B C C ",
"D E F G H   I v J K L M N M L K J v I   O 2 P Q 9 ",
"C R S 3 T   U V W X Y X   X Y X W V U   Z 3 `  ...",
"+.@.#.5 $.  %.&.*.Y =.Y   Y =.Y *.&.%.  -.5 ;.9 0 ",
"  >.,.5 '.  %.).!.X Y X   X Y X !.).%.  ~.5 ,.    ",
"  >.{.5 ].  U ^./.      =.      /.^.U   (.5 {.    ",
"  >.,.5 _.  :.).<.X Y X   X Y X <.).:.  [.5 ,.    ",
"  >.}.3 |.  :.1.2.Y =.Y   Y =.Y 2.1.:.  3.3 }.    ",
"  >.4.G 5.  U 6.7.X Y X   X Y X 7.6.U   8.2 ,.    ",
"  >.{.9.0.  I a.b.c.d.e.f.g.d.c.h.a.I   i.9.{.    ",
"  j.k.6 l.    u m.n.o.p.q.p.o.n.m.u     r.6 k.    ",
"      } | 1 2 3 4 5 5 5 5 5 5 5 5 3 2 1 6 7 >.    ",
"      s.t.u.v.w.x.x.x.x.x.x.x.x.x.w.v.u.t.s.      ",
"      y.5 z.A.s.s.s.s.s.s.s.s.s.s.s.A.z.5 y.      ",
"                                                  ",
"                                                  ",
"                                                  ",
"                                                  ",
"                                                  ",
"                                                  "};
