/* XPM */
static char * close_active_xpm[] = {
"25 27 99 2",
"  	c #000000",
". 	c #737173",
"+ 	c #736D73",
"@ 	c #7B6D7B",
"# 	c #394039",
"$ 	c #4A3C4A",
"% 	c #414041",
"& 	c #393C4A",
"* 	c #4A3C39",
"= 	c #413C41",
"- 	c #524052",
"; 	c #413841",
"> 	c #413C4A",
", 	c #393C41",
"' 	c #313839",
") 	c #39445A",
"! 	c #394462",
"~ 	c #314862",
"{ 	c #394862",
"] 	c #314462",
"^ 	c #294452",
"/ 	c #414462",
"( 	c #313C41",
"_ 	c #4A384A",
": 	c #393439",
"< 	c #313431",
"[ 	c #393841",
"} 	c #293839",
"| 	c #312C31",
"1 	c #393039",
"2 	c #393852",
"3 	c #9C959C",
"4 	c #949594",
"5 	c #A49DA4",
"6 	c #9C999C",
"7 	c #A4A5AC",
"8 	c #9C9DAC",
"9 	c #ACAABD",
"0 	c #A4AAB4",
"a 	c #B4AEBD",
"b 	c #ACAEBD",
"c 	c #9CA1AC",
"d 	c #ACA5AC",
"e 	c #9C9D9C",
"f 	c #ACA1AC",
"g 	c #413C5A",
"h 	c #292C31",
"i 	c #293C52",
"j 	c #948D94",
"k 	c #000008",
"l 	c #000408",
"m 	c #001020",
"n 	c #001429",
"o 	c #20384A",
"p 	c #292829",
"q 	c #312831",
"r 	c #202C29",
"s 	c #29385A",
"t 	c #000400",
"u 	c #000810",
"v 	c #081C41",
"w 	c #083062",
"x 	c #084083",
"y 	c #083873",
"z 	c #083473",
"A 	c #003062",
"B 	c #A499A4",
"C 	c #293C5A",
"D 	c #292C29",
"E 	c #202429",
"F 	c #203852",
"G 	c #8B8D8B",
"H 	c #33AAFD",
"I 	c #33A0FD",
"J 	c #949194",
"K 	c #18344A",
"L 	c #202420",
"M 	c #202020",
"N 	c #313031",
"O 	c #313039",
"P 	c #313C5A",
"Q 	c #43ACFD",
"R 	c #393C62",
"S 	c #001829",
"T 	c #7B757B",
"U 	c #00386A",
"V 	c #838183",
"W 	c #081831",
"X 	c #8B818B",
"Y 	c #525052",
"Z 	c #6A696A",
"` 	c #081839",
" .	c #625962",
"..	c #393C39",
"+.	c #201C20",
"@.	c #001018",
"#.	c #080808",
"$.	c #000410",
"%.	c #101010",
"                                                  ",
". + . . + . @ . . + . . + . @ . . + . . + . @ . . ",
"# $ % $ # $ % $ # & % $ # * % $ # * % $ # $ % = - ",
"; = ; = % > , > , > , > , > , > , > , > ; = ; = ; ",
"; ; ' & ) ! ~ ! { ! ~ ! { ! ~ ! { ! ] ^ / ( ; ; _ ",
": < [                                       } : : ",
"| 1 2   3 4 5 6 7 8 9 0 a 0 b c d e f 6 5   g 1 : ",
"| h i   j     k l m n n m n n m l       4   o p p ",
"q r s   3   t u v w x y z y x A v u t   B   C D | ",
"p E F   G     m A H I H   H I H A m     J   K L M ",
"N O P   j   l n x I Q I   I Q I x n l   B   R | 1 ",
"  l S   T     n U H I H   H I H U n     V   S     ",
"  l W   +   l m z       Q       z m l   X   W     ",
"  l S   Y     n y H I H   H I H y n     Z   S     ",
"  l `   %   l n x I Q I   I Q I x n l    .  `     ",
"  l n   D     m A H I H   H I H A m     ..  S     ",
"  l W   +.  t u v w x y z y x A v u t   q   W     ",
"  k @.  #.      $.m n n m n n m $.k     %.  @.    ",
"                t   l l l t l k t           l     ",
"                                                  ",
"                                                  ",
"                                                  ",
"                                                  ",
"                                                  ",
"                                                  ",
"                                                  ",
"                                                  "};
