/* XPM */
static char * close_prelight_xpm[] = {
"25 27 174 2",
"  	c #000000",
". 	c #737173",
"+ 	c #736D73",
"@ 	c #7B6D7B",
"# 	c #394039",
"$ 	c #4A3C4A",
"% 	c #414041",
"& 	c #393C4A",
"* 	c #4A3C39",
"= 	c #413C41",
"- 	c #524052",
"; 	c #413841",
"> 	c #413E44",
", 	c #404047",
"' 	c #3F494E",
") 	c #3D4851",
"! 	c #3D4A53",
"~ 	c #3D4B54",
"{ 	c #3E4651",
"] 	c #3F444A",
"^ 	c #414047",
"/ 	c #303E3B",
"( 	c #3C4957",
"_ 	c #2C565F",
": 	c #365F76",
"< 	c #2D6374",
"[ 	c #35657E",
"} 	c #2D6677",
"| 	c #35667F",
"1 	c #2D6271",
"2 	c #2D5F6D",
"3 	c #375669",
"4 	c #30494C",
"5 	c #3C3E48",
"6 	c #4A384A",
"7 	c #393439",
"8 	c #313431",
"9 	c #384654",
"0 	c #072426",
"a 	c #0C383C",
"b 	c #0E4A4F",
"c 	c #11565B",
"d 	c #135A61",
"e 	c #125D62",
"f 	c #135D63",
"g 	c #0B383D",
"h 	c #072327",
"i 	c #2D464A",
"j 	c #312C31",
"k 	c #393039",
"l 	c #2A4D5B",
"m 	c #6AB9CF",
"n 	c #6FBDD2",
"o 	c #72BFD5",
"p 	c #75C2D7",
"q 	c #74C6DA",
"r 	c #74C6E1",
"s 	c #78CBE3",
"t 	c #7CCFE5",
"u 	c #80CFE7",
"v 	c #7ED1E6",
"w 	c #7BCCE3",
"x 	c #78C9E0",
"y 	c #7BC8DC",
"z 	c #79C5D9",
"A 	c #71BFD4",
"B 	c #335064",
"C 	c #292C31",
"D 	c #2E596F",
"E 	c #73BBCF",
"F 	c #000206",
"G 	c #000C1D",
"H 	c #011938",
"I 	c #00234A",
"J 	c #001E43",
"K 	c #011C3C",
"L 	c #79C0D4",
"M 	c #275567",
"N 	c #292829",
"O 	c #312831",
"P 	c #202C29",
"Q 	c #24586C",
"R 	c #11545B",
"S 	c #7BBCCE",
"T 	c #000202",
"U 	c #012E5D",
"V 	c #034FA0",
"W 	c #055FB8",
"X 	c #0558AE",
"Y 	c #0351A2",
"Z 	c #81C1D3",
"` 	c #245C6C",
" .	c #292C29",
"..	c #202429",
"+.	c #285B72",
"@.	c #82BDCD",
"#.	c #00020A",
"$.	c #011B38",
"%.	c #0450A0",
"&.	c #33AAFD",
"*.	c #33A0FD",
"=.	c #88C2D2",
"-.	c #23576B",
";.	c #202420",
">.	c #202020",
",.	c #313031",
"'.	c #313039",
").	c #275F71",
"!.	c #135C63",
"~.	c #83B7C6",
"{.	c #00050A",
"].	c #00244A",
"^.	c #0761B8",
"/.	c #43ACFD",
"(.	c #8FC2D0",
"_.	c #2D5F77",
":.	c #000408",
"<.	c #0B4256",
"[.	c #7DAAB8",
"}.	c #002043",
"|.	c #085CAE",
"1.	c #89B7C4",
"2.	c #0B4257",
"3.	c #7298A2",
"4.	c #011E3C",
"5.	c #0555A2",
"6.	c #8AB0BC",
"7.	c #68828B",
"8.	c #00060A",
"9.	c #095EAE",
"0.	c #7E9DA6",
"a.	c #0A4155",
"b.	c #586970",
"c.	c #00264A",
"d.	c #0A67B8",
"e.	c #6D858B",
"f.	c #0B4155",
"g.	c #0A3D52",
"h.	c #444E52",
"i.	c #021E38",
"j.	c #0857A0",
"k.	c #5C676A",
"l.	c #0A3F53",
"m.	c #09384B",
"n.	c #0F4A50",
"o.	c #2D2E33",
"p.	c #000D1D",
"q.	c #04345D",
"r.	c #0958A0",
"s.	c #0C69B8",
"t.	c #0C61AE",
"u.	c #075AA2",
"v.	c #0C62AE",
"w.	c #03345D",
"x.	c #404748",
"y.	c #09384C",
"z.	c #000008",
"A.	c #082B39",
"B.	c #0F1010",
"C.	c #000E1D",
"D.	c #021D38",
"E.	c #00284A",
"F.	c #002243",
"G.	c #02203C",
"H.	c #1F2021",
"I.	c #041214",
"J.	c #135D66",
"K.	c #135F66",
"L.	c #02090A",
"M.	c #051D1F",
"N.	c #082529",
"O.	c #092A2F",
"P.	c #0A2E32",
"Q.	c #0A2F33",
"                                                  ",
". + . . + . @ . . + . . + . @ . . + . . + . @ . . ",
"# $ % $ # $ % $ # & % $ # * % $ # * % $ # $ % = - ",
"; = > , ' ) ! ~ ~ ~ ~ ~ ~ ~ ~ ~ ~ ~ ! { ] ^ > = ; ",
"; ; / ( _ : < [ } | } | } | } | } [ 1 2 3 4 5 ; 6 ",
"7 8 9 0 a b c d e f f f f f f f f d c b g h i 7 7 ",
"j k l g m n o p q r s t u v w x y z p p A g B k 7 ",
"j C D b E     F G H I J K J I H G F     L b M N N ",
"O P Q R S   T G U V W X Y X W V U G T   Z c `  .j ",
"N ..+.d @.  #.$.%.&.*.&.  &.*.&.%.$.#.  =.d -.;.>.",
",.'.).!.~.  {.].^.*./.*.  *./.*.^.].{.  (.f _.j k ",
"  :.<.f [.  {.}.|.&.*.&.  &.*.&.|.}.{.  1.f 2.    ",
"  :.<.f 3.  #.4.5.      /.      5.4.#.  6.f 2.    ",
"  :.<.!.7.  8.}.9.&.*.&.  &.*.&.9.}.8.  0.f <.    ",
"  :.a.d b.  8.c.d.*./.*.  *./.*.d.c.8.  e.d f.    ",
"  :.g.R h.  #.i.j.&.*.&.  &.*.&.j.i.#.  k.c l.    ",
"  :.m.n.o.  T p.q.r.s.t.u.v.s.r.w.p.T   x.n.y.    ",
"  z.A.g B.    F C.D.E.F.G.F.E.D.C.F     H.g A.    ",
"    I.0 a b c d e J.K.K.J.K.K.J.f d c b g h I.    ",
"    L.I.M.N.O.P.Q.Q.Q.Q.Q.Q.Q.Q.Q.P.O.N.M.I.L.    ",
"                                                  ",
"                                                  ",
"                                                  ",
"                                                  ",
"                                                  ",
"                                                  ",
"                                                  "};
