/* XPM */
static char * hide_prelight_xpm[] = {
"25 27 172 2",
"  	c #000000",
". 	c #737173",
"+ 	c #736D73",
"@ 	c #7B6D7B",
"# 	c #394039",
"$ 	c #4A444A",
"% 	c #414041",
"& 	c #4A3C4A",
"* 	c #393C39",
"= 	c #524052",
"- 	c #414052",
"; 	c #524041",
"> 	c #413841",
", 	c #413C41",
"' 	c #413E44",
") 	c #414047",
"! 	c #3F444A",
"~ 	c #3E4651",
"{ 	c #3D4A53",
"] 	c #3D4B54",
"^ 	c #3D4E54",
"/ 	c #3D4851",
"( 	c #3F444E",
"_ 	c #404047",
": 	c #3C3E48",
"< 	c #30494C",
"[ 	c #375669",
"} 	c #2D5F6D",
"| 	c #2D6271",
"1 	c #35657E",
"2 	c #2D6677",
"3 	c #35667F",
"4 	c #2D6576",
"5 	c #35637C",
"6 	c #313831",
"7 	c #4A384A",
"8 	c #393439",
"9 	c #313431",
"0 	c #384654",
"a 	c #072426",
"b 	c #0C383C",
"c 	c #0E4A4F",
"d 	c #11565B",
"e 	c #135A61",
"f 	c #125D62",
"g 	c #135D63",
"h 	c #0B383D",
"i 	c #072327",
"j 	c #2D464A",
"k 	c #312C31",
"l 	c #393039",
"m 	c #335064",
"n 	c #71BFD5",
"o 	c #73C1D6",
"p 	c #75C3D8",
"q 	c #75C4D9",
"r 	c #73C3DB",
"s 	c #73C4DC",
"t 	c #75C6DD",
"u 	c #75C6DE",
"v 	c #78C6DE",
"w 	c #7AC8DC",
"x 	c #7CC7DC",
"y 	c #7AC6DB",
"z 	c #78C4D9",
"A 	c #77C4D9",
"B 	c #293031",
"C 	c #292829",
"D 	c #275567",
"E 	c #76C0D4",
"F 	c #000206",
"G 	c #000C1D",
"H 	c #001C3C",
"I 	c #00244F",
"J 	c #002755",
"K 	c #7BC4D8",
"L 	c #313039",
"M 	c #312831",
"N 	c #292C29",
"O 	c #245B6C",
"P 	c #11545B",
"Q 	c #7EC1D3",
"R 	c #000202",
"S 	c #02295C",
"T 	c #034D9C",
"U 	c #0464BE",
"V 	c #056EC8",
"W 	c #046FCB",
"X 	c #056DC8",
"Y 	c #82C4D6",
"Z 	c #245C6C",
"` 	c #202829",
" .	c #292429",
"..	c #22576B",
"+.	c #84C0D1",
"@.	c #001633",
"#.	c #044A92",
"$.	c #31B4FF",
"%.	c #31AAFF",
"&.	c #88C4D5",
"*.	c #23576B",
"=.	c #292C31",
"-.	c #202020",
";.	c #313031",
">.	c #2D5F77",
",.	c #135C63",
"'.	c #84BBCA",
").	c #001A33",
"!.	c #044B94",
"~.	c #42B5FE",
"{.	c #31B9FF",
"].	c #90C5D4",
"^.	c #0B4256",
"/.	c #7EAFBD",
"(.	c #010C1D",
"_.	c #023367",
":.	c #0869C1",
"<.	c #0B98F3",
"[.	c #88B8C7",
"}.	c #0B4257",
"|.	c #000408",
"1.	c #759EA9",
"2.	c #00050E",
"3.	c #011E3C",
"4.	c #055399",
"5.	c #0B90EA",
"6.	c #8AB4C0",
"7.	c #6A8892",
"8.	c #00142C",
"9.	c #06478A",
"0.	c #7FA2AB",
"a.	c #0A4155",
"b.	c #5B7077",
"c.	c #000D1D",
"d.	c #043668",
"e.	c #0B75C8",
"f.	c #043568",
"g.	c #6E8B92",
"h.	c #0B4155",
"i.	c #0A3D52",
"j.	c #475259",
"k.	c #00060A",
"l.	c #021C37",
"m.	c #034783",
"n.	c #0C73C7",
"o.	c #0C72C7",
"p.	c #5D6B70",
"q.	c #0A3F53",
"r.	c #09384B",
"s.	c #0F4A50",
"t.	c #313338",
"u.	c #000002",
"v.	c #00060E",
"w.	c #033767",
"x.	c #034480",
"y.	c #424B4D",
"z.	c #09384C",
"A.	c #082B39",
"B.	c #101112",
"C.	c #000E1D",
"D.	c #001125",
"E.	c #222425",
"F.	c #000008",
"G.	c #041214",
"H.	c #041821",
"I.	c #02090A",
"J.	c #051D1F",
"K.	c #082529",
"L.	c #092A2F",
"M.	c #0A2E32",
"N.	c #0A2F33",
"O.	c #02090C",
"                                                  ",
". + . . + . @ . . + . . + . @ . . + . . + . @ . . ",
"# $ % & # & % & # * = * = * - * = * ; * = * ; * = ",
"> , ' ) ! ~ { ] ] ^ ] ] ] ] ] ] ] ] { / ( _ ' , > ",
"> > : < [ } | 1 2 2 3 2 3 2 3 2 3 4 5 } [ < : 6 7 ",
"8 9 0 a b c d e f g g g g g g g g e d c h i j 8 8 ",
"k l m h n o o p q r s t u u u v w x y z A h m B 8 ",
"k C D c E     F G H I J J J I H G F     K c D L C ",
"M N O P Q   R G S T U V W X U T S G R   Y d Z ` k ",
"C  ...e +.  F @.#.$.%.$.%.$.%.$.#.@.F   &.e *.=.-.",
";.k >.,.'.  F ).!.%.~.%.{.%.~.%.!.).F   ].g >.B l ",
"    ^.g /.  R (._.:.<.$.%.$.<.:._.(.R   [.g }.|.  ",
"    ^.g 1.    2.3.4.5.%.~.%.5.4.3.2.    6.g }.|.  ",
"    ^.,.7.    F 8.9.%.$.%.$.%.9.8.F     0.g ^.|.  ",
"    a.e b.    R c.d.e.%.{.%.e.f.c.R     g.e h.|.  ",
"    i.P j.      k.l.m.n.%.o.m.l.k.      p.d q.|.  ",
"    r.s.t.      u.v.l.w.x.w.l.v.u.      y.s.z.|.  ",
"    A.h B.        u.k.C.D.C.k.u.        E.h A.F.  ",
"    G.a b c d e f g g g g g g g g e d c h i H.    ",
"    I.G.J.K.L.M.N.N.N.N.N.N.N.N.N.M.L.K.J.G.O.    ",
"                                                  ",
"                                                  ",
"                                                  ",
"                                                  ",
"                                                  ",
"                                                  ",
"                                                  "};
