/* XPM */
static char * hide_pressed_xpm[] = {
"25 27 158 2",
"  	c #000000",
". 	c #737173",
"+ 	c #736D73",
"@ 	c #7B6D7B",
"# 	c #394039",
"$ 	c #4A444A",
"% 	c #414041",
"& 	c #4A3C4A",
"* 	c #393C39",
"= 	c #524052",
"- 	c #414052",
"; 	c #524041",
"> 	c #413841",
", 	c #413C41",
"' 	c #413C4A",
") 	c #393C41",
"! 	c #41404A",
"~ 	c #313C41",
"{ 	c #414462",
"] 	c #294452",
"^ 	c #314462",
"/ 	c #394462",
"( 	c #394862",
"_ 	c #29445A",
": 	c #39486A",
"< 	c #41486A",
"[ 	c #313831",
"} 	c #4A384A",
"| 	c #393439",
"1 	c #313431",
"2 	c #393841",
"3 	c #010E0F",
"4 	c #020D0E",
"5 	c #010B0B",
"6 	c #000909",
"7 	c #000808",
"8 	c #000708",
"9 	c #000707",
"0 	c #020C0E",
"a 	c #010D0F",
"b 	c #293839",
"c 	c #312C31",
"d 	c #393039",
"e 	c #413C5A",
"f 	c #71BFD5",
"g 	c #73C1D6",
"h 	c #75C3D8",
"i 	c #75C4D9",
"j 	c #73C3DB",
"k 	c #73C4DC",
"l 	c #75C6DD",
"m 	c #75C6DE",
"n 	c #78C6DE",
"o 	c #7AC8DC",
"p 	c #7CC7DC",
"q 	c #7AC6DB",
"r 	c #78C4D9",
"s 	c #77C4D9",
"t 	c #293031",
"u 	c #292829",
"v 	c #20384A",
"w 	c #76C0D4",
"x 	c #000206",
"y 	c #000C1D",
"z 	c #001C3C",
"A 	c #00244F",
"B 	c #002755",
"C 	c #7BC4D8",
"D 	c #313039",
"E 	c #312831",
"F 	c #292C29",
"G 	c #293C5A",
"H 	c #000809",
"I 	c #7EC1D3",
"J 	c #000202",
"K 	c #02295C",
"L 	c #034D9C",
"M 	c #0464BE",
"N 	c #056EC8",
"O 	c #046FCB",
"P 	c #056DC8",
"Q 	c #82C4D6",
"R 	c #202829",
"S 	c #292429",
"T 	c #18344A",
"U 	c #84C0D1",
"V 	c #001633",
"W 	c #044A92",
"X 	c #31B4FF",
"Y 	c #31AAFF",
"Z 	c #88C4D5",
"` 	c #292C31",
" .	c #202020",
"..	c #313031",
"+.	c #393C62",
"@.	c #84BBCA",
"#.	c #001A33",
"$.	c #044B94",
"%.	c #42B5FE",
"&.	c #31B9FF",
"*.	c #90C5D4",
"=.	c #001829",
"-.	c #7EAFBD",
";.	c #010C1D",
">.	c #023367",
",.	c #0869C1",
"'.	c #0B98F3",
").	c #88B8C7",
"!.	c #000408",
"~.	c #081831",
"{.	c #759EA9",
"].	c #00050E",
"^.	c #011E3C",
"/.	c #055399",
"(.	c #0B90EA",
"_.	c #8AB4C0",
":.	c #6A8892",
"<.	c #00142C",
"[.	c #06478A",
"}.	c #7FA2AB",
"|.	c #081839",
"1.	c #5B7077",
"2.	c #000D1D",
"3.	c #043668",
"4.	c #0B75C8",
"5.	c #043568",
"6.	c #6E8B92",
"7.	c #001429",
"8.	c #475259",
"9.	c #00060A",
"0.	c #021C37",
"a.	c #034783",
"b.	c #0C73C7",
"c.	c #0C72C7",
"d.	c #5D6B70",
"e.	c #010A0B",
"f.	c #313338",
"g.	c #000002",
"h.	c #00060E",
"i.	c #033767",
"j.	c #034480",
"k.	c #424B4D",
"l.	c #001018",
"m.	c #101112",
"n.	c #000E1D",
"o.	c #001125",
"p.	c #222425",
"q.	c #000008",
"r.	c #080810",
"s.	c #000A0B",
"t.	c #000D0E",
"u.	c #020E0F",
"v.	c #020D0F",
"w.	c #020D10",
"x.	c #020E10",
"y.	c #000103",
"z.	c #00090A",
"A.	c #000B0B",
"                                                  ",
". + . . + . @ . . + . . + . @ . . + . . + . @ . . ",
"# $ % & # & % & # * = * = * - * = * ; * = * ; * = ",
"> , > , > ' ) ' ) ! ) ' ) ' ) ' ) ' ) ' > , > , > ",
"> > > ~ { ] ^ / ( _ : _ < _ : _ < _ : ] { ~ > [ } ",
"| 1 2 3 4 5 6 7 8 9 9 9 9 9 9 9 9 7 6 5 0 a b | | ",
"c d e 0 f g g h i j k l m m m n o p q r s 0 e t | ",
"c u v 5 w     x y z A B B B A z y x     C 5 v D u ",
"E F G H I   J y K L M N O P M L K y J   Q 6 G R c ",
"u S T 7 U   x V W X Y X Y X Y X W V x   Z 7 T `  .",
"..c +.9 @.  x #.$.Y %.Y &.Y %.Y $.#.x   *.9 +.t d ",
"    =.9 -.  J ;.>.,.'.X Y X '.,.>.;.J   ).9 =.!.  ",
"    ~.9 {.    ].^./.(.Y %.Y (./.^.].    _.9 ~.!.  ",
"    =.9 :.    x <.[.Y X Y X Y [.<.x     }.9 =.!.  ",
"    |.7 1.    J 2.3.4.Y &.Y 4.5.2.J     6.7 |.!.  ",
"    7.H 8.      9.0.a.b.Y c.a.0.9.      d.6 =.!.  ",
"    ~.e.f.      g.h.0.i.j.i.0.h.g.      k.e.~.!.  ",
"    l.0 m.        g.9.n.o.n.9.g.        p.0 l.q.  ",
"      3 4 5 6 7 8 9 9 9 9 9 9 9 9 7 6 5 0 a r.    ",
"      s.t.u.v.w.x.x.x.x.x.x.x.x.x.w.v.u.t.s.      ",
"      y.9 z.A.s.s.s.s.s.s.s.s.s.s.s.A.z.9 y.      ",
"                                                  ",
"                                                  ",
"                                                  ",
"                                                  ",
"                                                  ",
"                                                  "};
