/* XPM */
static char * hide_active_xpm[] = {
"25 27 112 2",
"  	c #000000",
". 	c #737173",
"+ 	c #736D73",
"@ 	c #7B6D7B",
"# 	c #394039",
"$ 	c #4A444A",
"% 	c #414041",
"& 	c #4A3C4A",
"* 	c #393C39",
"= 	c #524052",
"- 	c #414052",
"; 	c #524041",
"> 	c #413841",
", 	c #413C41",
"' 	c #413C4A",
") 	c #393C41",
"! 	c #41404A",
"~ 	c #313C41",
"{ 	c #414462",
"] 	c #294452",
"^ 	c #314462",
"/ 	c #394462",
"( 	c #394862",
"_ 	c #29445A",
": 	c #39486A",
"< 	c #41486A",
"[ 	c #313831",
"} 	c #4A384A",
"| 	c #393439",
"1 	c #313431",
"2 	c #393841",
"3 	c #293839",
"4 	c #312C31",
"5 	c #393039",
"6 	c #413C5A",
"7 	c #A49DA4",
"8 	c #9C999C",
"9 	c #AC9DAC",
"0 	c #ACA1AC",
"a 	c #9C99A4",
"b 	c #ACA1B4",
"c 	c #9C9DA4",
"d 	c #ACA5B4",
"e 	c #ACA5AC",
"f 	c #A4A1A4",
"g 	c #293031",
"h 	c #292829",
"i 	c #20384A",
"j 	c #949594",
"k 	c #000008",
"l 	c #000408",
"m 	c #001020",
"n 	c #001429",
"o 	c #001831",
"p 	c #001829",
"q 	c #313039",
"r 	c #312831",
"s 	c #292C29",
"t 	c #293C5A",
"u 	c #A499A4",
"v 	c #000400",
"w 	c #000810",
"x 	c #081C41",
"y 	c #003062",
"z 	c #08448B",
"A 	c #08488B",
"B 	c #084C9C",
"C 	c #202829",
"D 	c #292429",
"E 	c #18344A",
"F 	c #949194",
"G 	c #000C18",
"H 	c #002C5A",
"I 	c #31B4FF",
"J 	c #31AAFF",
"K 	c #000C20",
"L 	c #9C959C",
"M 	c #292C31",
"N 	c #202020",
"O 	c #313031",
"P 	c #393C62",
"Q 	c #9C919C",
"R 	c #001018",
"S 	c #08306A",
"T 	c #42B5FE",
"U 	c #31B9FF",
"V 	c #7B7D7B",
"W 	c #001C39",
"X 	c #084483",
"Y 	c #0865CD",
"Z 	c #838583",
"` 	c #081831",
" .	c #7B717B",
"..	c #081420",
"+.	c #1065C5",
"@.	c #8B858B",
"#.	c #5A555A",
"$.	c #000818",
"%.	c #082852",
"&.	c #6A6D6A",
"*.	c #081839",
"=.	c #524452",
"-.	c #08489C",
";.	c #625D62",
">.	c #00284A",
",.	c #084494",
"'.	c #201C20",
").	c #08285A",
"!.	c #392C39",
"~.	c #080808",
"{.	c #101010",
"].	c #080810",
"                                                  ",
". + . . + . @ . . + . . + . @ . . + . . + . @ . . ",
"# $ % & # & % & # * = * = * - * = * ; * = * ; * = ",
"> , > , > ' ) ' ) ! ) ' ) ' ) ' ) ' ) ' > , > , > ",
"> > > ~ { ] ^ / ( _ : _ < _ : _ < _ : ] { ~ > [ } ",
"| 1 2                                       3 | | ",
"4 5 6   7 8 9 8 0 a b c d c d 7 e f e 7 0   6 g | ",
"4 h i   j     k l m n o p o n m l       8   i q h ",
"r s t   u   v w x y z A B A z y x w v   9   t C 4 ",
"h D E   F     G H I J I J I J I H K     L   E M N ",
"O 4 P   Q   l R S J T J U J T J S R l   7   P g 5 ",
"    p   V     w W X Y I J I Y z W w     Z   p l   ",
"    `    .    l ..y +.J T J +.y ..l     @.  ` l   ",
"    p   #.      $.%.J I J I J %.$.k     &.  p l   ",
"    *.  =.      w W -.J U J -.W w       ;.  *.l   ",
"    n   4         m >.,.J z >.m         %   p l   ",
"    `   '.      k l m W ).W m l k       !.  ` l   ",
"    R   ~.            w w w             {.  R k   ",
"                        v                   ].    ",
"                                                  ",
"                                                  ",
"                                                  ",
"                                                  ",
"                                                  ",
"                                                  ",
"                                                  ",
"                                                  "};
