/* XPM */
static char * maximize_prelight_xpm[] = {
"25 27 185 2",
"  	c #000000",
". 	c #737173",
"+ 	c #736D73",
"@ 	c #7B6D7B",
"# 	c #394039",
"$ 	c #4A444A",
"% 	c #414041",
"& 	c #4A3C4A",
"* 	c #393C39",
"= 	c #524052",
"- 	c #414052",
"; 	c #524041",
"> 	c #413841",
", 	c #413C41",
"' 	c #413C4A",
") 	c #393C41",
"! 	c #41404A",
"~ 	c #3C3E48",
"{ 	c #30494C",
"] 	c #375669",
"^ 	c #2D5F6D",
"/ 	c #2D6271",
"( 	c #35657E",
"_ 	c #2D6677",
": 	c #35667F",
"< 	c #2D6576",
"[ 	c #35637C",
"} 	c #313831",
"| 	c #4A384A",
"1 	c #393439",
"2 	c #313431",
"3 	c #384654",
"4 	c #072426",
"5 	c #0C383C",
"6 	c #0E4A4F",
"7 	c #11565B",
"8 	c #135A61",
"9 	c #125D62",
"0 	c #135D63",
"a 	c #0B383D",
"b 	c #072327",
"c 	c #2D464A",
"d 	c #312C31",
"e 	c #393039",
"f 	c #335064",
"g 	c #71BFD5",
"h 	c #73C1D6",
"i 	c #75C3D8",
"j 	c #72C4D9",
"k 	c #6FC1DC",
"l 	c #6AC3DE",
"m 	c #6AC2E0",
"n 	c #6AC4E1",
"o 	c #6AC3E1",
"p 	c #6DC4DF",
"q 	c #73C4DF",
"r 	c #78C8DC",
"s 	c #7CC7DC",
"t 	c #7AC6DB",
"u 	c #78C4D9",
"v 	c #77C4D9",
"w 	c #293031",
"x 	c #292829",
"y 	c #275567",
"z 	c #78C0D4",
"A 	c #000206",
"B 	c #000C1D",
"C 	c #011C3C",
"D 	c #00244F",
"E 	c #002755",
"F 	c #7EC5D8",
"G 	c #313039",
"H 	c #312831",
"I 	c #292C29",
"J 	c #245B6C",
"K 	c #11545B",
"L 	c #7FC1D3",
"M 	c #000202",
"N 	c #012E5D",
"O 	c #0350A2",
"P 	c #0567C2",
"Q 	c #056CCB",
"R 	c #056FCC",
"S 	c #0351A2",
"T 	c #83C5D6",
"U 	c #245C6C",
"V 	c #202829",
"W 	c #292429",
"X 	c #22576B",
"Y 	c #86C1D1",
"Z 	c #00020A",
"` 	c #011A38",
" .	c #0450A0",
"..	c #31B4FF",
"+.	c #31AAFF",
"@.	c #0353A2",
"#.	c #011D3C",
"$.	c #8AC4D5",
"%.	c #23576B",
"&.	c #292C31",
"*.	c #202020",
"=.	c #313031",
"-.	c #2D5F77",
";.	c #135C63",
">.	c #86BBCA",
",.	c #00050A",
"'.	c #00244A",
").	c #0661B8",
"!.	c #42B5FE",
"~.	c #31B9FF",
"{.	c #076AC2",
"].	c #00264F",
"^.	c #00050E",
"/.	c #91C5D4",
"(.	c #0B4256",
"_.	c #80AFBD",
":.	c #001F43",
"<.	c #075CAE",
"[.	c #0773CB",
"}.	c #002A55",
"|.	c #8AB9C7",
"1.	c #0B4257",
"2.	c #000408",
"3.	c #769EA9",
"4.	c #011E3C",
"5.	c #0555A2",
"6.	c #0974CC",
"7.	c #8CB4C0",
"8.	c #6B8892",
"9.	c #00060A",
"0.	c #002043",
"a.	c #095EAE",
"b.	c #0974C9",
"c.	c #002B55",
"d.	c #00060E",
"e.	c #81A2AB",
"f.	c #0A4155",
"g.	c #5C7077",
"h.	c #00264A",
"i.	c #0966B6",
"j.	c #0B6FC1",
"k.	c #00284F",
"l.	c #708B92",
"m.	c #0B4155",
"n.	c #0A3D52",
"o.	c #485259",
"p.	c #021E38",
"q.	c #0857A0",
"r.	c #065AA2",
"s.	c #021F3C",
"t.	c #5E6C70",
"u.	c #0A3F53",
"v.	c #09384B",
"w.	c #0F4A50",
"x.	c #313438",
"y.	c #000D1D",
"z.	c #03345D",
"A.	c #0858A0",
"B.	c #0C69B8",
"C.	c #0C61AE",
"D.	c #075AA2",
"E.	c #0958A0",
"F.	c #03335D",
"G.	c #434B4D",
"H.	c #09384C",
"I.	c #082B39",
"J.	c #101112",
"K.	c #000E1D",
"L.	c #021D38",
"M.	c #00284A",
"N.	c #002243",
"O.	c #02203C",
"P.	c #222425",
"Q.	c #000008",
"R.	c #041214",
"S.	c #135D66",
"T.	c #135F66",
"U.	c #041821",
"V.	c #02090A",
"W.	c #051D1F",
"X.	c #082529",
"Y.	c #092A2F",
"Z.	c #0A2E32",
"`.	c #0A2F33",
" +	c #02090C",
"                                                  ",
". + . . + . @ . . + . . + . @ . . + . . + . @ . . ",
"# $ % & # & % & # * = * = * - * = * ; * = * ; * = ",
"> , > , > ' ) ' ) ! ) ' ) ' ) ' ) ' ) ' > , > , > ",
"> > ~ { ] ^ / ( _ _ : _ : _ : _ : < [ ^ ] { ~ } | ",
"1 2 3 4 5 6 7 8 9 0 0 0 0 0 0 0 0 8 7 6 a b c 1 1 ",
"d e f a g h h i j k l m n o p q r s t u v a f w 1 ",
"d x y 6 z     A B C D E E E D C B A     F 6 y G x ",
"H I J K L   M B N O P Q R Q P S N B M   T 7 U V d ",
"x W X 8 Y   Z `  ...+...+...+...@.#.Z   $.8 %.&.*.",
"=.d -.;.>.  ,.'.).+.!.+.~.+.!.+.{.].^.  /.0 -.w e ",
"    (.0 _.  ,.:.<...+...+...+...[.}.^.  |.0 1.2.  ",
"    (.0 3.  Z 4.5.        +.~.+.6.}.^.  7.0 1.2.  ",
"    (.;.8.  9.0.a...+...  ..+...b.c.d.  e.0 (.2.  ",
"    f.8 g.  9.h.i.+.!.+.  +.!.+.j.k.d.  l.8 m.2.  ",
"    n.K o.  Z p.q...+...  ..+...r.s.Z   t.7 u.2.  ",
"    v.w.x.  M y.z.A.B.C.D.C.B.E.F.y.M   G.w.H.2.  ",
"    I.a J.    A K.L.M.N.O.N.M.L.K.A     P.a I.Q.  ",
"    R.4 5 6 7 8 9 S.T.T.S.T.T.S.0 8 7 6 a b U.    ",
"    V.R.W.X.Y.Z.`.`.`.`.`.`.`.`.`.Z.Y.X.W.R. +    ",
"                                                  ",
"                                                  ",
"                                                  ",
"                                                  ",
"                                                  ",
"                                                  ",
"                                                  "};
