/* XPM */
static char * maximize_toggled_pressed_xpm[] = {
"25 27 176 2",
"  	c #000000",
". 	c #737173",
"+ 	c #736D73",
"@ 	c #7B6D7B",
"# 	c #394039",
"$ 	c #4A444A",
"% 	c #414041",
"& 	c #4A3C4A",
"* 	c #393C39",
"= 	c #524052",
"- 	c #414052",
"; 	c #524041",
"> 	c #413841",
", 	c #413C41",
"' 	c #413C4A",
") 	c #393C41",
"! 	c #41404A",
"~ 	c #313C41",
"{ 	c #414462",
"] 	c #294452",
"^ 	c #314462",
"/ 	c #394462",
"( 	c #394862",
"_ 	c #29445A",
": 	c #39486A",
"< 	c #41486A",
"[ 	c #313831",
"} 	c #4A384A",
"| 	c #393439",
"1 	c #313431",
"2 	c #393841",
"3 	c #010E0F",
"4 	c #020D0E",
"5 	c #010B0B",
"6 	c #000909",
"7 	c #000808",
"8 	c #000708",
"9 	c #000707",
"0 	c #020C0E",
"a 	c #010D0F",
"b 	c #293839",
"c 	c #312C31",
"d 	c #393039",
"e 	c #413C5A",
"f 	c #71BFD5",
"g 	c #73C1D6",
"h 	c #75C3D8",
"i 	c #72C4D9",
"j 	c #6FC1DC",
"k 	c #6AC3DE",
"l 	c #6AC2E0",
"m 	c #6AC4E1",
"n 	c #6AC3E1",
"o 	c #6DC4DF",
"p 	c #73C4DF",
"q 	c #78C8DC",
"r 	c #7CC7DC",
"s 	c #7AC6DB",
"t 	c #78C4D9",
"u 	c #77C4D9",
"v 	c #293031",
"w 	c #292829",
"x 	c #20384A",
"y 	c #78C0D4",
"z 	c #000206",
"A 	c #000C1D",
"B 	c #011C3C",
"C 	c #00244F",
"D 	c #002755",
"E 	c #7EC5D8",
"F 	c #313039",
"G 	c #312831",
"H 	c #292C29",
"I 	c #293C5A",
"J 	c #000809",
"K 	c #7FC1D3",
"L 	c #000202",
"M 	c #012E5D",
"N 	c #0350A2",
"O 	c #0567C2",
"P 	c #056CCB",
"Q 	c #056FCC",
"R 	c #0351A2",
"S 	c #83C5D6",
"T 	c #202829",
"U 	c #292429",
"V 	c #18344A",
"W 	c #86C1D1",
"X 	c #00020A",
"Y 	c #011A38",
"Z 	c #0450A0",
"` 	c #31B4FF",
" .	c #31AAFF",
"..	c #0353A2",
"+.	c #011D3C",
"@.	c #8AC4D5",
"#.	c #292C31",
"$.	c #202020",
"%.	c #313031",
"&.	c #393C62",
"*.	c #86BBCA",
"=.	c #00050A",
"-.	c #00244A",
";.	c #0661B8",
">.	c #42B5FE",
",.	c #31B9FF",
"'.	c #076AC2",
").	c #00264F",
"!.	c #00050E",
"~.	c #91C5D4",
"{.	c #001829",
"].	c #80AFBD",
"^.	c #001F43",
"/.	c #075CAE",
"(.	c #0773CB",
"_.	c #002A55",
":.	c #8AB9C7",
"<.	c #000408",
"[.	c #081831",
"}.	c #769EA9",
"|.	c #011E3C",
"1.	c #0555A2",
"2.	c #0974CC",
"3.	c #8CB4C0",
"4.	c #6B8892",
"5.	c #00060A",
"6.	c #002043",
"7.	c #095EAE",
"8.	c #0974C9",
"9.	c #002B55",
"0.	c #00060E",
"a.	c #81A2AB",
"b.	c #081839",
"c.	c #5C7077",
"d.	c #00264A",
"e.	c #0966B6",
"f.	c #0B6FC1",
"g.	c #00284F",
"h.	c #708B92",
"i.	c #001429",
"j.	c #485259",
"k.	c #021E38",
"l.	c #0857A0",
"m.	c #065AA2",
"n.	c #021F3C",
"o.	c #5E6C70",
"p.	c #010A0B",
"q.	c #313438",
"r.	c #000D1D",
"s.	c #03345D",
"t.	c #0858A0",
"u.	c #0C69B8",
"v.	c #0C61AE",
"w.	c #075AA2",
"x.	c #0958A0",
"y.	c #03335D",
"z.	c #434B4D",
"A.	c #001018",
"B.	c #101112",
"C.	c #000E1D",
"D.	c #021D38",
"E.	c #00284A",
"F.	c #002243",
"G.	c #02203C",
"H.	c #222425",
"I.	c #000008",
"J.	c #080810",
"K.	c #000A0B",
"L.	c #000D0E",
"M.	c #020E0F",
"N.	c #020D0F",
"O.	c #020D10",
"P.	c #020E10",
"Q.	c #000103",
"R.	c #00090A",
"S.	c #000B0B",
"                                                  ",
". + . . + . @ . . + . . + . @ . . + . . + . @ . . ",
"# $ % & # & % & # * = * = * - * = * ; * = * ; * = ",
"> , > , > ' ) ' ) ! ) ' ) ' ) ' ) ' ) ' > , > , > ",
"> > > ~ { ] ^ / ( _ : _ < _ : _ < _ : ] { ~ > [ } ",
"| 1 2 3 4 5 6 7 8 9 9 9 9 9 9 9 9 7 6 5 0 a b | | ",
"c d e 0 f g g h i j k l m n o p q r s t u 0 e v | ",
"c w x 5 y     z A B C D D D C B A z     E 5 x F w ",
"G H I J K   L A M N O P Q P O R M A L   S 6 I T c ",
"w U V 7 W   X Y Z `  .`  .`  .` ..+.X   @.7 V #.$.",
"%.c &.9 *.  =.-.;. .>. .,. .>. .'.).!.  ~.9 &.v d ",
"    {.9 ].  =.^./.`  .`  .`  .` (._.!.  :.9 {.<.  ",
"    [.9 }.  X |.1.         .,. .2._.!.  3.9 [.<.  ",
"    {.9 4.  5.6.7.`  .`   `  .` 8.9.0.  a.9 {.<.  ",
"    b.7 c.  5.d.e. .>. .   .>. .f.g.0.  h.7 b.<.  ",
"    i.J j.  X k.l.`  .`   `  .` m.n.X   o.6 {.<.  ",
"    [.p.q.  L r.s.t.u.v.w.v.u.x.y.r.L   z.p.[.<.  ",
"    A.0 B.    z C.D.E.F.G.F.E.D.C.z     H.0 A.I.  ",
"      3 4 5 6 7 8 9 9 9 9 9 9 9 9 7 6 5 0 a J.    ",
"      K.L.M.N.O.P.P.P.P.P.P.P.P.P.O.N.M.L.K.      ",
"      Q.9 R.S.K.K.K.K.K.K.K.K.K.K.K.S.R.9 Q.      ",
"                                                  ",
"                                                  ",
"                                                  ",
"                                                  ",
"                                                  ",
"                                                  "};
