/* XPM */
static char * maximize_toggled_active_xpm[] = {
"25 27 109 2",
"  	c #000000",
". 	c #737173",
"+ 	c #736D73",
"@ 	c #7B6D7B",
"# 	c #394039",
"$ 	c #4A444A",
"% 	c #414041",
"& 	c #4A3C4A",
"* 	c #393C39",
"= 	c #524052",
"- 	c #414052",
"; 	c #524041",
"> 	c #413841",
", 	c #413C41",
"' 	c #413C4A",
") 	c #393C41",
"! 	c #41404A",
"~ 	c #313C41",
"{ 	c #414462",
"] 	c #294452",
"^ 	c #314462",
"/ 	c #394462",
"( 	c #394862",
"_ 	c #29445A",
": 	c #39486A",
"< 	c #41486A",
"[ 	c #313831",
"} 	c #4A384A",
"| 	c #393439",
"1 	c #313431",
"2 	c #393841",
"3 	c #293839",
"4 	c #312C31",
"5 	c #393039",
"6 	c #413C5A",
"7 	c #A49DA4",
"8 	c #9C999C",
"9 	c #AC9DAC",
"0 	c #A4A1AC",
"a 	c #9499A4",
"b 	c #A4A1B4",
"c 	c #9499AC",
"d 	c #9CA1B4",
"e 	c #9C9DAC",
"f 	c #ACA5AC",
"g 	c #A4A1A4",
"h 	c #ACA1AC",
"i 	c #293031",
"j 	c #292829",
"k 	c #20384A",
"l 	c #949594",
"m 	c #000008",
"n 	c #000408",
"o 	c #001020",
"p 	c #001429",
"q 	c #001831",
"r 	c #001829",
"s 	c #313039",
"t 	c #312831",
"u 	c #292C29",
"v 	c #293C5A",
"w 	c #A499A4",
"x 	c #000400",
"y 	c #000810",
"z 	c #081C41",
"A 	c #00346A",
"B 	c #084494",
"C 	c #08488B",
"D 	c #084C9C",
"E 	c #003462",
"F 	c #202829",
"G 	c #292429",
"H 	c #18344A",
"I 	c #949194",
"J 	c #003062",
"K 	c #31B4FF",
"L 	c #31AAFF",
"M 	c #9C959C",
"N 	c #292C31",
"O 	c #202020",
"P 	c #313031",
"Q 	c #393C62",
"R 	c #9C919C",
"S 	c #084083",
"T 	c #42B5FE",
"U 	c #31B9FF",
"V 	c #7B7D7B",
"W 	c #00386A",
"X 	c #00488B",
"Y 	c #838583",
"Z 	c #081831",
"` 	c #7B717B",
" .	c #083473",
"..	c #8B858B",
"+.	c #5A555A",
"@.	c #083873",
"#.	c #6A6D6A",
"$.	c #081839",
"%.	c #524452",
"&.	c #08448B",
"*.	c #625D62",
"=.	c #201C20",
"-.	c #083062",
";.	c #392C39",
">.	c #001018",
",.	c #080808",
"'.	c #000410",
").	c #101010",
"!.	c #080810",
"                                                  ",
". + . . + . @ . . + . . + . @ . . + . . + . @ . . ",
"# $ % & # & % & # * = * = * - * = * ; * = * ; * = ",
"> , > , > ' ) ' ) ! ) ' ) ' ) ' ) ' ) ' > , > , > ",
"> > > ~ { ] ^ / ( _ : _ < _ : _ < _ : ] { ~ > [ } ",
"| 1 2                                       3 | | ",
"4 5 6   7 8 9 8 0 a b c d c b e f g f 7 h   6 i | ",
"4 j k   l     m n o p q r q p o n       8   k s j ",
"t u v   w   x y z A B C D C B E z y x   9   v F 4 ",
"j G H   I     o J K L K L K L K E o     M   H N O ",
"P 4 Q   R   n p S L T L U L T L B p n   7   Q i 5 ",
"    r   V     p W K L K L K L K X q m   Y   r n   ",
"    Z   `   n o  .        L U L D q n   ..  Z n   ",
"    r   +.    p @.K L K   K L K C q     #.  r n   ",
"    $.  %.  n p S L T L   L T L &.p n   *.  $.n   ",
"    p   4     o J K L K   K L K E o     %   r n   ",
"    Z   =.  x y z -.S @. .@.S J z y x   ;.  Z n   ",
"    >.  ,.      '.o p p o p p o '.m     ).  >.m   ",
"                x   n n n x n m x           !.    ",
"                                                  ",
"                                                  ",
"                                                  ",
"                                                  ",
"                                                  ",
"                                                  ",
"                                                  ",
"                                                  "};
