/* XPM */
static char * right_active_xpm[] = {
"12 1 6 1",
" 	c #000000",
".	c #5A555A",
"+	c #626162",
"@	c #625D62",
"#	c #525052",
"$	c #7B6D7B",
"     .+@##$ "};
